<?xml version="1.0" encoding="UTF-8"?><svg id="Ebene_1" xmlns="http://www.w3.org/2000/svg" viewBox="0 0 600 261"><defs><style>.cls-1{fill:#bababa;}</style></defs><path class="cls-1" d="m137.26,187.15c-.58,0-.79.08-.5.21.25.08.75.08,1.04,0,.25-.12.04-.21-.54-.21Z"/><path class="cls-1" d="m265.3,136.97c-.67-.42-2.08.58-2.08,1.45s.91,1.62,1.16.91c.08-.29.42-.79.75-1.08.71-.71.71-.96.17-1.29Z"/><path class="cls-1" d="m310.32,143.83c-.79.04-1.45.79-1.25,1.41.42,1.08,1.54.79,1.54-.37,0-.58-.12-1.04-.29-1.04Z"/><path class="cls-1" d="m323.5,162.75c-.21.12-.42.91-.42,1.7s.21,1.41.42,1.41c.25,0,.42-.75.42-1.7s-.17-1.58-.42-1.41Z"/><path class="cls-1" d="m327.32,166.86c-.17-.25-.62-.54-1-.71-.54-.21-.75-.04-.75.5,0,.83,1.16,1.54,1.7,1,.21-.21.21-.54.04-.79Z"/><path class="cls-1" d="m426.42,59.44c-.71,0-1.08.21-1.08.67,0,.42.29.58.91.5,1.33-.21,1.45-1.16.17-1.16Z"/><path class="cls-1" d="m439.89,102.47c-.54-.33-.83.37-.46,1,.25.42.42.37.58-.12.12-.33.08-.75-.12-.87Z"/><path class="cls-1" d="m446.42,60.32c-.37-1.58-4.99-6.28-6.15-6.28-.37,0-1-.37-1.37-.79-.79-.83-3.87-1.7-6.15-1.7h-1.33l.96.87c.54.5,1.25,1.54,1.54,2.29.33.79.79,1.41,1.08,1.41.67,0,1.54,1.33,1.58,2.33,0,.5-.42,1.08-.91,1.33-.83.37-.87.46-.17.46.42.04,1-.25,1.25-.62.46-.58.67-.58,1.87-.08l1.37.54-1.37,1.41c-2.04,2-3.08,2.29-5.4,1.54-2.74-.91-6.48-1.29-7.15-.75-.58.5-.96.17-2.45-1.91-.62-.91-.62-1.12,0-2.7.87-2.16,1.41-2.79,4.16-4.45,1.45-.87,2.16-1.58,2.08-2.04-.21-1-6.19-.83-7.73.21-.71.46-2,.79-3.41.83-3.12.04-3.99.42-4.95,1.95-.79,1.29-.79,1.54-.25,4.2.33,1.58.87,3.28,1.25,3.82.33.54.62,1.41.62,1.91.08,2.66,3.33,7.77,6.24,9.77.79.54,2.08,1.41,2.83,1.95.75.58,2.12,1.12,3.12,1.29.96.17,2.2.54,2.79.83.58.25,1.83.42,2.83.29,1.37-.12,1.75-.33,1.75-.96,0-.42.21-.79.42-.79.25,0,.42.21.42.46s.37.17.87-.21c.5-.33,1.12-.5,1.41-.37.33.08,1-.08,1.54-.42.54-.33,1.41-.71,2-.83,1.08-.25,2.49-2.16,2.49-3.37,0-.37.21-.67.42-.67.25,0,.42-.5.42-1.08,0-.62.33-1.7.79-2.41.91-1.5,1.29-5.24.75-7.27Zm-10.68,11.31c-.46-.12-1.08-.04-1.37.21-.75.58-4.2,1-5.9.67-1.04-.17-1.45-.46-1.45-1.04,0-.46-.46-1-1.04-1.29-1.08-.46-1.7-1.7-1.25-2.41.12-.21-.08-.87-.46-1.45-.71-1.08-2.37-1.41-2.91-.58-.17.33-.37.29-.62-.08-.5-.83,1.04-1.7,2.41-1.37.62.17,2.04,1.04,3.08,1.91,1.04.87,2.08,1.58,2.33,1.58.21,0,1,.29,1.75.67.71.37,2.2.67,3.28.67,1.37,0,2.24.29,2.87.87,1.08.96.62,2-.71,1.66Zm-1.87-6.28c-.21,0-.46-.21-.54-.46-.08-.25.17-.46.54-.46s.62.21.54.46c-.08.25-.33.46-.54.46Zm-14.18-1.04c-.12-.12-.17-.5-.04-.79.12-.33.25-.21.25.25.04.46-.08.71-.21.54Z"/><path class="cls-1" d="m446.96,148.82c-.21,0-.42.29-.42.62s0,.75-.04.91c0,.17.17.37.42.46.25.08.46-.33.46-.91s-.17-1.08-.42-1.08Z"/><path class="cls-1" d="m452.07,219.36c-.46-.5-.87-.33-1.08.54-.21.83.62,1.87,1.08,1.37.37-.33.37-1.58,0-1.91Z"/><path class="cls-1" d="m452.03,149.9c-.25-.12-.58-.04-.71.21-.42.62.12,1.04.67.5.29-.29.29-.54.04-.71Z"/><path class="cls-1" d="m453.99,102.68c-.21,0-.29.21-.17.42.12.25.33.42.46.42.08,0,.17-.17.17-.42,0-.21-.21-.42-.46-.42Z"/><path class="cls-1" d="m456.6,220.98c-.17-.08-.58-.04-.91.17-.5.29-.5.54-.04,1.41.33.58.75.96.96.83.42-.29.46-2.12,0-2.41Z"/><path class="cls-1" d="m459.02,222.61c-.21-.12-.42.04-.42.42s.21.54.42.42c.25-.12.42-.33.42-.42s-.17-.29-.42-.42Z"/><path class="cls-1" d="m476.93,198.95c-.21-.17-.5-.08-.62.12-.17.21-.08.5.12.62.21.17.5.08.62-.12.17-.21.08-.5-.12-.62Z"/><path class="cls-1" d="m478.8,93.95c-.42,0-.58-.62-.54-2.54,0-2.33-.08-2.66-1.08-3.37-.62-.46-1.12-1.04-1.12-1.33,0-.71-1.87-2.41-2.2-2.04-.17.12-.29.62-.29,1.04,0,.79-1.5,1.62-2.37,1.29-.58-.25-1.37,1.16-1.37,2.49,0,.54-.33,1.33-.79,1.7-.75.67-.83.62-1.75-.46-.54-.62-1.7-1.5-2.54-1.87-.83-.37-1.75-1.21-2.08-1.87-.75-1.54-2.29-1.87-3.78-.83-.67.42-1.29.67-1.41.54-.33-.33-.33-2.37,0-4.74.25-2.16-.25-2.54-2.29-1.54-1.75.91-4.07,3.12-4.07,3.87,0,.33-.46,1.12-1.04,1.83-1.25,1.5-1.5,5.07-.37,5.49.42.17.62.71.54,1.58-.04.75.12,1.91.42,2.54.25.71.33,1.45.08,1.83-.46.83,1.75,3.03,2.79,2.79.75-.17,2.33.96,2.66,1.91.12.33-.12,1.12-.54,1.7-1.04,1.45-.96,3.7.17,3.7.62,0,.71-.12.37-.54-.25-.29-.33-1-.17-1.58.25-1,.25-.96.5.25.12.79.5,1.29,1.04,1.41,1.16.21,2.83,1.58,2.29,1.91-.21.12-.42.79-.42,1.45,0,1.04.21,1.25,1.45,1.5.79.12,2.16.12,2.99-.04.87-.12,2.29-.25,3.12-.25,1.21,0,1.7-.21,2.24-1,.37-.58.91-1.04,1.21-1.04.87,0,2-1.58,1.75-2.49-.12-.54,0-.83.37-.83.33,0,.58-.17.58-.42,0-.21.29-.42.62-.42s.62-.21.62-.46-.25-.37-.58-.25c-.67.25-1.66-.67-1.21-1.08.12-.17.71-.17,1.21-.04.67.17,1,.08,1-.29,0-.33.37-1.04.83-1.62.46-.58.83-1.45.83-1.95s.67-1.58,1.45-2.37c1.5-1.5,2-3.58.87-3.58Z"/><path class="cls-1" d="m486.58,223.35c-.25-.71-1.58-.67-2.2.04-.25.33-.71.54-1.04.42-.29-.12-.67-.04-.83.21-.12.25.04.46.37.46.37,0,.67.17.67.37s.71.17,1.66-.04c1.66-.46,1.79-.54,1.37-1.45Z"/><path class="cls-1" d="m488.03,221.23c-1.33.21-1.45,1.16-.17,1.16.71,0,1.08-.21,1.08-.67,0-.42-.29-.58-.91-.5Z"/><path class="cls-1" d="m488.95,224.89c-.46,0-.83.21-.83.42,0,.25.37.42.83.42s.83-.17.83-.42c0-.21-.37-.42-.83-.42Z"/><path class="cls-1" d="m506.16,146.32c-.37,0-.58.29-.5.71.21,1.04,1.16,1.16,1.16.17,0-.5-.25-.87-.67-.87Z"/><path class="cls-1" d="m511.98,135.77c-1.41-.54-3.12-.17-5.82,1.21-3.82,1.91-6.15,3.62-6.36,4.57-.08.42-.58,1.5-1.12,2.37-1.04,1.62-1.33,3.24-.58,3.24.25,0,.42-.21.42-.46,0-.29.58-.37,1.58-.25,2.79.33,6.19-1.12,8.69-3.74,1.21-1.25,2.2-2.62,2.2-2.99s.37-1.37.83-2.2c.71-1.33.71-1.54.17-1.75Z"/><path class="cls-1" d="m512.18,142.87c-1.33-.33-1.79,0-2.29,1.62-.46,1.45-.46,1.5.83,2.04s2.12.46,1.7-.21c-.12-.21-.04-.46.21-.62.21-.12.42-.79.42-1.41,0-.87-.25-1.25-.87-1.41Z"/><path class="cls-1" d="m514.18,123c-.58-1.33-1.91-2.95-6.4-7.9-1.91-2.08-3.45-3.95-3.45-4.16s-.37-.37-.83-.37-1-.37-1.16-.79c-.54-1.54-3.41-3.37-5.15-3.37-1.33,0-1.66.17-2,1.08-.25.58-.42,1.79-.42,2.7,0,1.16-.25,1.75-.83,2.12-1,.62-1.12,2.33-.17,2.7.37.12.87-.12,1.29-.71l.67-.96.67.91c.62.79.75.83,1.5.29.5-.33.83-1.08.83-1.75,0-1.25.5-1.62,1.41-1.04.5.33.54.5.04,1.08-.42.5-.42.79-.08,1.12.29.29.5,1.21.5,2.08,0,1.04.21,1.7.62,1.83.33.17.62.5.62.83,0,1-.96,2.66-1.54,2.66-.87,0-1.08-1-.58-2.74.54-1.95-.12-2.62-1.25-1.29-.62.79-.62,1-.12,1.54.37.46.46,1.16.29,2.2-.12.83-.29,1.54-.33,1.54s-.79-.29-1.58-.62c-.83-.33-1.79-.62-2.16-.62-.33,0-.62.29-.62.62s.21.62.42.62c.25,0,.42.21.42.42,0,.75-1.62.42-1.87-.42-.25-.75,1.21-3.33,1.91-3.33.54,0,.75-1.83.29-2.37-.54-.67-1.58,0-1.58,1.04,0,.54-.12.5-.58-.12-.33-.5-1.16-.83-2.08-.91-1.37-.08-1.5,0-1.25.87.17.67,0,1.04-.46,1.25-.87.33-.42,1.08.67,1.08.5,0,.79.21.71.54-.12.25-.42.5-.67.46-.29-.04-.96-.08-1.54-.08-1.33-.08-1.83-1.25-.91-1.95.42-.29.71-.87.71-1.33,0-.42.17-.96.42-1.21.29-.29,0-.91-.83-1.83-1.54-1.83-1.54-2.2,0-1.87,1.12.25,1.25.17,1.25-.75,0-.54-.37-1.33-.79-1.7-.79-.75-.83-.71-1.16.62-.25.91-.71,1.45-1.25,1.62-.87.21-2.95,1.95-4.28,3.58-1.16,1.45-1.95,3.28-2,4.66,0,.75-.21,1.62-.37,1.87-.21.29-.42,1.37-.46,2.41-.08,1.58.08,2.2,1,3.28.96,1.12,1.08,1.45.67,2.12-1.12,1.75-.42,2.49,2.87,3.24,1.25.29,1.95.29,2.33-.04.67-.54,2.62.17,2.62.91,0,.5,1.83,1.29,3.33,1.45.58.08,1.91.46,2.99.87,1.75.67,2.2.71,4.16.21,1.21-.33,2.66-.91,3.2-1.33.54-.46,1.21-.79,1.5-.79.25,0,.87-.46,1.33-1,.46-.54,1.54-1.08,2.37-1.25,2.54-.5,5.2-2.54,5.94-4.61.25-.67.75-1.91,1.08-2.7.5-1.16.54-1.66.17-2.54Zm-14.05,8.77c-1.04.58-2.99-.5-2.79-1.54.21-1.04,1.75-1.41,2.79-.71,1.12.79,1.12,1.66,0,2.24Zm-2.04-4.99c-.21,0-.42-.21-.42-.46,0-.21.21-.29.42-.17.25.12.42.33.42.46,0,.08-.17.17-.42.17Zm-3.99-1c-.5-.17-.58-.42-.29-.71.21-.21.71-.29,1.12-.12.5.17.58.42.29.71-.21.21-.71.29-1.12.12Z"/><path class="cls-1" d="m515.34,146.32c-.33,0-.75,0-.91-.04-.17,0-.37.17-.46.42-.08.25.33.46.91.46s1.08-.17,1.08-.42c0-.21-.29-.42-.62-.42Z"/><path class="cls-1" d="m516.01,210.01c-.5-.79-2.66-.46-2.79.46-.12.83.29.91,1.04.21.42-.46.58-.37.91.21.25.37.58.62.83.5.46-.29.46-.67,0-1.37Z"/><path class="cls-1" d="m517.42,144.33c-.67,0-.91.08-.5.21.37.08.96.08,1.25,0,.25-.12-.04-.21-.75-.21Z"/><path class="cls-1" d="m535.46,144.79c-.21-.54-.54-.96-.79-.96-.21,0-.42-.33-.42-.75,0-.37-1.12-1.91-2.45-3.37-2.08-2.24-2.62-2.62-3.49-2.37-.71.17-1.37-.04-2.08-.58-1.95-1.54-9.02-1.5-7.48.04.58.58,0,2.04-.87,2.04-.29,0-.96.46-1.5,1.04-.87.91-.87,1.04-.25,1.29.42.17,1,0,1.33-.33.67-.67,2.66-.54,2.66.17,0,.21-.37.5-.83.62-1.25.33-1,1.83.54,3.12l1.33,1.16h-1.04c-.79,0-1.16.33-1.54,1.25-.29.71-.29,1.33-.08,1.5.71.42.37.91-.87,1.21-.79.17-1.25.54-1.25,1,0,1.04-.42,1.33-1.08.75-1.7-1.54-1.75-1.54-2.37-.58-.54.79-.67.83-1.33.29-.62-.5-.75-.5-1.12.12-.46.87-1.16.54-1.16-.5,0-.58-.42-.83-1.95-1-1.79-.25-2.12-.12-3.08.91-.58.62-1.37,1.25-1.75,1.41-.79.29-.96,1.33-.29,1.75.25.12.71-.04,1.08-.37.46-.5.83-.54,1.41-.25.58.33.79.21.96-.46.29-1.04,1.12-.67,1.12.5,0,.58-.29.79-1.04.79-1.04,0-1.45.96-.62,1.45.25.12.42.54.42.87,0,.46-.29.54-1.12.33-.67-.17-1.21-.46-1.29-.67-.25-.58-1.75-.37-2,.29-.37.91.29,1.7.75.87.21-.37.54-.67.75-.67.67,0,.5,1.33-.25,2.12-.79.87-.46,1.62.71,1.62.42,0,1.29.58,1.91,1.25.58.71,1.41,1.25,1.83,1.25s1.41.33,2.2.71c1.16.54,1.7.58,2.49.21.54-.25,1.12-.29,1.33-.12,1.12.96,3.78,1.33,6.4.91,1.5-.25,3.53-.46,4.57-.46,2.54,0,4.91-1.5,8.4-5.24,2.87-3.08,3.37-4.45,3.49-9.1.04-2.29-.08-4.57-.29-5.07Z"/><path class="cls-1" d="m94.03,90.41c-.21.12-.42.42-.42.67,0,.21.21.37.42.37.25,0,.42-.29.42-.67,0-.33-.17-.5-.42-.37Z"/><path class="cls-1" d="m538.79,196.21c-.5-.79-1.04-1.5-1.25-1.58-.21-.08-.46-.79-.62-1.58-.12-.79-.62-1.62-1.04-1.87-.46-.21-.79-.75-.79-1.16s-.46-1.25-1.04-1.87c-.58-.62-1.04-1.33-1.04-1.62-.04-.62-5.32-4.7-6.86-5.28-.58-.21-1.62-.42-2.29-.42-.62,0-1.25-.25-1.37-.58-.12-.29-.75-.67-1.41-.79-2.29-.46-5.45-1.45-7.19-2.33-2.37-1.12-2.74-1.08-3.45.25l-.58,1.12-.33-.96c-.42-1.33-2.62-2.16-4.41-1.7-.79.21-3.37.58-5.78.83-4.66.5-5.82.91-5.82,1.95,0,.71-2.7,3.45-3.41,3.45-.62,0-1.54,1.29-1.58,2.2,0,.42-.67,1.37-1.45,2.2-1.66,1.62-1.62,1.58-.96,2.62.67,1.08.17,1.95-1.29,2.24-1,.21-1.29.5-1.29,1.29,0,.54-.29,1.08-.62,1.25-.33.12-.62.62-.62,1.08s-.33.96-.71,1.08c-1.54.46-2,.91-2.08,2.08-.25,2.74-.62,3.91-1.33,3.91-.42,0-1.08.29-1.54.62-1.04.79-2.66.79-2.66,0,0-.37.37-.62,1.04-.62.83,0,1.04-.21,1.04-1.04,0-1-.12-1.04-2.16-1.04-1.21.04-2.66.29-3.24.62-.91.5-1.12.46-1.75-.08-1.08-.96-.91-1.75.42-2.04,1.91-.42,2-.46.87-.91-.62-.25-1.21-.75-1.37-1.12-.21-.54-.54-.67-1.41-.46-.62.17-1.7.33-2.45.42-1.95.25-5.86,2.91-6.65,4.61l-.67,1.41-.58-1.08c-.5-1-.5-1.25.29-2.33.71-.91.79-1.29.37-1.79-.37-.46-.37-1,.04-2.41.29-1.04.37-2.04.25-2.24-.33-.54-1.91-.12-1.91.54,0,1.45-3.41,2.7-3.66,1.37-.08-.46.12-.75.5-.75.33,0,.75-.21.91-.46.17-.29-.17-.42-.91-.33-1.33.08-2.66-.37-2.66-.91,0-.21.25-.37.54-.37s.87-.58,1.29-1.29c.54-.87,1-1.21,1.62-1.12,1.16.17,1.04.87-.21,1.21-.83.21-.87.29-.21.58.37.17,1,.17,1.37.04.37-.17.91-.08,1.21.17.42.33.62.29.87-.04.17-.29.08-.62-.17-.71-.71-.21-.62-.91.17-1.79,1.08-1.21.42-2.2-1.21-1.83-2.29.46-5.28.71-5.28.42,0-.96,1-1.87,2.08-1.87,1.41,0,1.87-.58,1.75-2.16-.08-.75.12-1.29.54-1.41.87-.33.79-.87-.21-1.12-1.12-.29-1.04-.96.25-2.16.87-.79.96-1.04.42-1.33-.62-.33-1.08-4.41-.54-4.95.12-.17-.04-.83-.37-1.5-.54-1.08-.58-1.29-.04-1.7.62-.5,1.54-2.87,1.54-3.91,0-.29-.46-.75-1.04-.96-1.25-.46-1.37-1.87-.25-2.49,1.66-.87-.46-3.45-2.83-3.41-.58,0-1.37-.29-1.75-.62-.37-.33-1.21-.71-1.87-.91-.87-.21-1.16-.54-1.21-1.5-.04-.71.21-1.45.58-1.7.96-.71.29-1.75-.96-1.54-.87.17-1.08.08-1.08-.67,0-1.04-1.08-1.62-1.79-.91-.25.25-.71.46-1,.46-.33,0-.96.37-1.45.83-1.12,1.04-1.29,1.04-2.58-.08-.79-.75-1.08-1.41-1.16-3.03l-.08-2.08,1.62.17c.91.12,2.24.17,2.91.12,3.7-.25,5.11-.37,6.48-.67,1.21-.25,1.54-.17,1.75.33.42,1.04,1.66.87,1.33-.17-.17-.46-.08-.83.17-.83.79,0,.5-2.04-.37-2.49-1.16-.62-1.04-1.21.42-1.75.87-.29,1.16-.58.91-.91-.62-.75-.42-3.33.29-3.87.58-.42.42-.5-.83-.54-.87,0-1.75.29-2.04.62-.42.5-.67.54-1.08.17-.33-.25-.58-.71-.58-1,0-.33-.37-.42-1.04-.29-.58.08-1.04.46-1.04.79,0,.46-.21.42-1.04-.17-1.08-.79-1.41-2.62-.46-2.62.33,0,.67.25.79.54.08.25.33.37.5.21s0-.58-.37-.96c-.37-.37-.67-.87-.67-1.08s-.37-.37-.83-.37c-1.08,0-1.5-1-1.62-3.95-.04-1.37-.25-2.66-.46-2.87-.67-.67-.5-1.08.54-1.5l.91-.37-.91-.29c-1.29-.37-1.21-1.25.08-1.5,1-.21,1.04-.12,1.04,1.58,0,1.5.17,1.83.96,2.04.5.17,1.29.75,1.75,1.33.83,1,.87,1.04,1.79.25l.96-.75-.87-2.04c-.79-1.83-.79-2.12-.21-2.45.5-.25.58-.79.46-2.04-.12-.96-.42-1.91-.67-2.16-.21-.21-.42-.83-.42-1.29,0-.5-.54-1.41-1.25-2.08-.91-.91-1.12-1.33-.79-1.75.71-.79.12-1.79-1.04-1.79s-1.91-1.04-1.91-2.45c0-.54-.25-.87-.75-.87-.46,0-.91-.54-1.25-1.33l-.5-1.37-.79,1.33c-.87,1.37-.75,3.03.21,3.03s.67.71-.33,1c-1.62.42-1.41.71-2.66-3.49-.83-2.79-.75-3.33.42-3.33,1.37,0,1.75-.71.91-1.62-.62-.71-.67-.79-.04-1.04.75-.29.5-1.79-.42-2.54-.29-.21-.62-.71-.79-1.04-.12-.33-.17.04-.08.83.17,1.75-.5,3.82-1.16,3.62-.25-.08-.5-.67-.58-1.29-.08-.67-.79-2.37-1.62-3.82-.79-1.45-1.33-2.83-1.16-3.08.17-.25.04-.75-.25-1.08-.42-.5-.37-.83.08-1.66.67-1.29.08-1.83-2-1.83-.75,0-1.37-.17-1.37-.37s-.37-.46-.87-.54c-1.08-.17-2.24-3.12-1.58-3.95.58-.67.12-1.37-.83-1.37-.42,0-1-.25-1.25-.58-.25-.29-.91-.46-1.45-.37-.58.12-1.21-.08-1.54-.5-.33-.42-1.29-1.5-2.12-2.45-.87-.91-1.95-2.24-2.45-2.87-.5-.67-1.33-1.37-1.87-1.58-.58-.21-1.21-.83-1.41-1.37-.21-.58-.91-1.33-1.54-1.66-.62-.33-1.91-1.37-2.83-2.29-.87-.96-1.83-1.7-2.12-1.7s-1-.54-1.54-1.25c-.58-.67-1.33-1.25-1.66-1.25-.29,0-1-.46-1.54-1.04-.54-.58-1.21-1.04-1.5-1.04s-1.16-.54-1.91-1.25c-.75-.67-1.66-1.25-2.08-1.25s-.75-.17-.75-.37c0-.71-2.12-1.79-2.66-1.33-.75.62-3.66-1.5-3.49-2.62.17-1.21.87-1.25,2.16-.04.67.62,1.62,1.04,2.33,1.04.87,0,1.5.37,2.16,1.25,1.08,1.5,1.29,1.54,2.37.37,1-1.08.54-2.45-.79-2.45-.46,0-.83-.25-.83-.54,0-.87-2.04-1.66-2.74-1.08-.46.37-.62.21-.83-.83-.29-1.41-1-1.75-1-.5,0,1.08-.71,1.5-1.46.87-1.37-1.12-5.36-3.33-6.03-3.33-.42,0-.83-.21-.91-.46-.08-.29-1.08-.58-2.2-.67-1.16-.08-2.74-.21-3.53-.29-.87-.08-1.87-.54-2.58-1.25-1.29-1.25-2.2-1.37-2.79-.37-.29.5-.54.58-.96.29-1.04-.83-5.53-1.54-9.06-1.45-1.95.04-3.91.08-4.36.08-1.54-.04-7.73-.87-8.11-1.08-.21-.12-.75,0-1.16.25-.58.37-1.04.33-2.04-.17-1.41-.75-4.78-.71-9.06.12-1.37.29-6.9.54-12.26.58-12.1.12-16.21.71-17.71,2.45-.54.67-1,1.58-1,2.04,0,.71-.17.79-1.12.54-.67-.12-1.58-.67-2.08-1.12-.87-.79-1.12-.83-3.28-.42-1.29.29-2.49.37-2.7.25s-.71,0-1.12.21c-.46.25-2.08.62-3.62.87-1.54.25-3.62.83-4.61,1.25-1,.46-2.29.83-2.87.83s-1.66.29-2.37.67c-.83.42-2.37.67-4.61.67-2.79,0-3.7.17-5.45,1.04-1.45.75-3.12,1.21-5.45,1.41-3.58.29-6.32.91-8.4,1.91-.71.33-1.5.5-1.75.33-1-.58-7.48-.29-8.85.42-1.41.71-3.53,1.21-8.44,1.95-1.58.21-3.49.79-4.24,1.21-.71.46-2.12.96-3.08,1.12-2.08.37-2.74,1.33-.87,1.33,1.29,0,2.41.91,1.95,1.66-.37.62-1.33.5-1.62-.21-.33-.91-9.06-.91-9.98.04-.37.33-1.04.71-1.54.79-.5.12-1.21.46-1.58.75-.37.33-1.54.79-2.58,1.04-1.83.46-5.65,2.24-7.52,3.62-.54.33-1.54.62-2.29.62-1.12,0-1.45.21-1.79,1.08-.37,1-.58,1.08-2,.83-3.03-.5-3.2-.5-3.16.29.04.42-.21.71-.67.71-.37,0-1.12.37-1.66.83-.58.54-1.54.83-2.58.83-1.41,0-1.58.08-1.58,1.08,0,.91-.12,1.04-1,.83-.5-.12-1.08-.12-1.21.04-.17.12-1.58.29-3.2.37-2.2.12-3.33.42-4.53,1.21-1.33.79-2.12,1-4.12.91-1.37,0-2.95.17-3.49.42-.54.25-1.79.67-2.83.96-1.04.25-2.54.67-3.37.91-1.12.33-1.83.25-3.03-.25-.87-.37-2.62-.67-3.82-.67-2.04,0-2.33.12-2.74,1.08-.42.91-.42,1.16.21,1.62.87.62.54.91-1.12.87-1.41-.04-1.91-.96-.75-1.41,1.16-.42.46-2.33-.75-1.95-.5.17-.83.08-.83-.21,0-.62-1.83-1.25-2.91-.96-.62.17-.83.46-.71,1,.25,1,0,1-2.04,0-2.58-1.25-5.36-1.87-6.28-1.37-.5.29-1.79.29-3.87,0-3.24-.46-15.84-.58-20.16-.21-1.37.12-3.7.46-5.2.71s-3.2.37-3.82.25c-.62-.12-1.25-.04-1.37.17-.12.25-1.25.42-2.41.42-3.03.04-12.51,2.29-13.72,3.28-.33.25-.91.37-1.37.29-.46-.08-1.54.21-2.45.67-.91.46-2.33,1.21-3.16,1.62-.79.42-1.7,1.04-2.04,1.37-.29.37-.87.67-1.33.67-.42,0-1.5.46-2.33,1.04-.83.58-1.83,1.04-2.2,1.04s-.87.5-1.16,1.08c-.46,1.04-.54,1.08-1.29.37-.75-.67-.83-.67-1.87.46-.58.62-1.41,1.33-1.83,1.58-1.75,1.04-3.24,2.2-4.91,3.91-.96.96-2,1.75-2.29,1.75-.58,0-2.49,2.2-3.78,4.36-.42.67-1,1.45-1.29,1.66-.25.25-1.16,1.62-2,3.12-3.16,5.82-3.78,6.9-4.28,7.48-1.16,1.45-2.7,5.53-2.7,7.19,0,.96-.25,2.83-.58,4.12-.42,1.75-.46,3.24-.17,5.82.21,1.91.46,4.66.62,6.15.12,1.5.46,2.99.79,3.37.87,1,4.32,7.94,4.32,8.73,0,.37.37,1.16.83,1.75,1.33,1.66,3.74,5.32,3.74,5.65,0,.87,6.24,5.99,11.47,9.39,2.12,1.37,4.99,3.28,6.36,4.28,1.37.96,2.79,1.75,3.08,1.75s.87.25,1.33.54c1.83,1.25,6.44,2.45,9.35,2.41.79,0,1.66.21,1.95.46.33.25,1.66.42,2.99.37,2.41-.08,3.45.37,3.87,1.7.12.29.79.46,1.83.37,2.99-.21,8.4.29,14.92,1.45,2.29.37,5.65.75,7.48.79,1.83.04,5.11.12,7.27.17,4.24.12,6.36.58,7.73,1.79,1.04.91,4.66,1.04,5.82.12.46-.33,1.7-.62,2.91-.62s2.87-.29,3.74-.67c1.08-.46,2.2-.58,3.66-.42,3.08.33,13.68-.42,17.09-1.21,1.62-.37,5.2-.83,7.94-.96,4.03-.25,5.24-.46,5.9-1.04.67-.62,1.21-.71,2.7-.5,1.62.25,1.95.17,2.33-.54.58-1.08,2.58-1.41,4.91-.87,2.08.54,2.7.21,2.37-1.16-.17-.58-.62-.96-1.33-1.04-1.21-.12-1.5-.67-.91-1.58.29-.5.5-.5.91-.08.25.25.91.5,1.41.5s1.45.46,2.12.96c1.87,1.58,2.95,1.66,3.66.29.79-1.5,1.25-1.79,2.16-1.33.91.5,2.62-.08,2.62-.87,0-.5.96-2.62,2.04-4.45,1.08-1.87,1.41-2.95,1-3.37-.66-.67-1.7,0-2.7,1.75-.46.87-1.04,1.5-1.25,1.37-.54-.37-.37-2.12.29-2.66.33-.29.62-1.21.62-2.04,0-1,.33-1.87.87-2.49.46-.5.75-1.21.62-1.54-.17-.42.08-.58.83-.58.83,0,1,.17.79.79-.12.46-.04.91.21,1.08.79.5,2.04-.25,2.29-1.37.29-1.25,1.58-2.99,2.2-2.99.21,0,1.04-.67,1.87-1.45.83-.79,1.79-1.45,2.12-1.45s.83-.37,1.08-.83c.42-.75.29-.91-.83-1.33l-1.33-.42,1.37-1.41c1.04-1.08,1.5-1.29,2.08-1,.87.5,1.87.17,2.2-.62.12-.33.87-.87,1.7-1.25,1.46-.58,1.54-.67,1.25-2.2-.54-3.2-.37-4.24.75-5.4,1.54-1.58,1.5-3.28-.12-4.95-1.66-1.7-.87-2.2,1.08-.71,1.41,1.08,1.45,1.25,1.33,3.24-.12,2.04-.08,2.12.91,2.12.58,0,1.29.17,1.58.37.58.33,3.41-.87,3.41-1.5,0-.58.91-.37,1.41.29.42.58.67.5,1.83-.67.71-.71,1.33-1.12,1.33-.91s.46.62,1.04.87c1.12.54,1.25.42,1.54-1.37.21-1.29,1.29-.96,1.66.5.29,1.08.67,1.45,1.91,1.83,1.45.42,1.75.37,3.24-.67,1.16-.79,1.66-1.45,1.83-2.41.21-1.29.25-1.33,2.41-1.33,2.24-.04,2.99.46,1.04.71-1,.12-1.21.33-1.29,1.54-.17,1.58.54,2.7,1,1.58.12-.42.71-.71,1.25-.71,1.21,0,1.75-1.04,1.08-2.12-.62-.96-.25-1.91.79-2.24.46-.17,2.45-.12,4.45,0,3.08.25,3.78.21,4.32-.37.79-.75,1.83-.5,2.41.58.54,1.04,3.87,1.41,5.45.62.87-.5,1.41-.54,2-.21,1.33.71,2.08.5,2.37-.67.21-.87,0-1.29-1.29-2.45-1.21-1.12-1.45-1.62-1.25-2.37.42-1.25.62-1.45.96-.91.67,1.04,5.65,4.32,6.53,4.32.5,0,1.16.29,1.46.62.29.33,1.04.62,1.7.62,1,0,1.21-.17,1.21-1,0-1.54.46-1.58,2.95-.25,1.66.91,2.83,1.21,4.53,1.25,2.91,0,3.99.58,2.33,1.21-.62.25-1.33.37-1.54.25-.21-.17-.67-.08-1.04.12-.58.33-.54.42.37.62.54.17,1.12.67,1.25,1.12.29,1.08,1.41,1.08,1.75,0,.29-.96.67-1.04,1.37-.33.33.33.62.33,1.08-.04.37-.29.71-.33.83-.08.12.21.04.46-.21.54-.21.08-.54.91-.66,1.91-.17,1.37-.08,1.79.46,2,.83.33.46,1-.58,1-.54,0-1.04.5-1.45,1.54-1.08,2.58.04,3.58,1.79,1.58.5-.58,1.12-1.04,1.33-1.04.25,0,.62-.46.83-1.04.21-.58.66-1.04,1-1.04.37,0,.75-.62.96-1.75.42-2.08,1.25-2.49,1.79-.87.25.67.79,1.41,1.25,1.7.75.46.87.37,1.25-.54.46-1.25,1.29-1.04.96.21-.37,1.33.96,2.99,2.29,2.83,1.37-.17,1.66-1.37.79-3.33-.37-.75-.75-1.91-.87-2.54-.33-1.33-1.58-1.95-4.03-1.95-.87,0-1.62-.17-1.62-.42,0-.54,1.58-1.33,1.83-.87.12.17,1.29.46,2.58.58,2.54.25,3.2.79,2.87,2.24-.25,1.04,1.04,2.62,2.08,2.62.37,0,.62.37.62,1.04,0,.62.46,1.5,1.04,2.04.58.54,1.04,1.16,1.04,1.45,0,.25.21.83.5,1.25.37.62.33.91-.21,1.5-.75.71-.87,1.37-.46,2.45.42,1.12.91.75,1.21-1,.37-2.24,1.37-2.16,2.74.12.96,1.62,1.12,2.37,1.29,6.28.12,3.78.25,4.53.91,4.91.71.37.71.46-.12,1.33-.75.79-.83,1.12-.42,2.24.62,1.79.33,2.7-.87,2.99-1.46.33-1.7,2.33-.33,2.87.54.21,1.12.21,1.37,0,.66-.62.87-.42,1.37,1.21.29.91,1.16,2.49,1.95,3.53.79,1.04,1.45,2.16,1.45,2.49s.29.83.62,1.12c.37.29.58.75.5,1s.29,1,.83,1.66c.62.75.87,1.45.75,1.95-.17.54-.04.87.5,1.08.42.17,1.33.71,2,1.21.71.5,1.91,1.21,2.7,1.54,1.66.71,4.16,2.99,4.16,3.78s1.41,1.91,2.41,1.91c.62,0,.91.25.91.83,0,.79,1.91,2,2.37,1.5.42-.42,3.53,1.58,3.87,2.45.21.54,1.45,1.41,3.08,2.24,2.87,1.41,4.66,2.95,5.07,4.41.67,2.24,1.62,3.82,2.87,4.66l1.41.87.46-1.29.46-1.33.91,1.16c.54.62,1.16,1.12,1.45,1.12.5,0,1.75,2.08,1.75,2.91,0,.25.83,1.5,1.87,2.79,1.79,2.29,4.16,3.78,6.11,3.82.79.04,6.28,3.62,6.48,4.24.08.21.54.37,1,.37.42,0,2.16.54,3.78,1.25,1.66.67,4.61,1.75,6.61,2.41,2,.67,3.91,1.45,4.28,1.75.54.46.87.46,1.5.08.96-.62,2.74-.67,3.08-.08.12.25,1.46.42,2.87.42,1.75,0,2.79.21,3.12.58.58.71,3.7.08,4.49-.91.42-.5.71-.54,1.79-.08.83.33,1.41.37,1.79.08.42-.33,1.66-.54,6.57-1.08.58-.04,1.7-.46,2.49-.87,1.08-.58,2.49-.79,5.99-.87,2.54-.04,4.91-.12,5.32-.12.42-.04.91-.5,1.12-1.08.46-1.16.83-1.29,1.58-.54.37.37.5.21.5-.83s.17-1.33.87-1.33c.54,0,.96.33,1.08.83.29,1.08,1.58.91,1.58-.21,0-.46.17-1.12.42-1.45.5-.83.29-2.87-.46-4.07-.96-1.5-.25-1.95,1.08-.71.62.62,1.21.96,1.29.75.29-.67,3.24-2.29,3.7-2,.21.12.42.62.42,1.04,0,.62.29.75,1.58.67.83-.04,1.87-.25,2.29-.46,1.08-.46,1.75.33,1.08,1.33-.71,1.16-.25,2.2.87,1.91.67-.17.96,0,1.12.67.25,1.04.67,1.12,1.54.25.37-.37,1.54-.67,2.99-.71,2.24-.12,2.45-.21,3.2-1.54.83-1.37.71-1.75-.71-2.24-.21-.08-.08-.54.21-1.04.5-.79.5-1,0-1.33-.46-.25-.25-.46.83-.71,1.62-.46,2.04-1.5,1-2.62-.37-.42-.5-.87-.29-1,.67-.42,1.79.21,1.66.96-.12,1,.46,2.95.91,2.95.21,0,.29.29.12.67-.12.33-.5.54-.79.42-.67-.25-.83-.04-1.16,1.7q-.29,1.33,1.5,1.45c1.5.12,1.83.29,1.91,1.08.12.83.29.91,1.45.71.75-.17,1.54-.54,1.79-.87.58-.71,2.33-.75,2.99-.08.37.37.67.33,1.25-.21.87-.79,3.41-.54,3.41.33,0,.29.46.42,1.25.29,1.54-.21,1.79-1.7.33-1.79-.71-.04-.75-.12-.25-.25.42-.08,1.16.12,1.66.46.5.37,1.37.67,1.91.67.79,0,.96.17.71.75-.79,1.91-.75,2.16.46,2.16,1.37,0,3.91-1.41,3.91-2.16,0-.29.42.08.87.83.58.87,1.21,1.33,1.87,1.33,1.16,0,1.29-.62.29-1.21q-.71-.42,0-.46c.37,0,.71.21.71.46,0,.67,4.53,0,5.45-.79.75-.62.71-.71-.37-1.12l-1.12-.46,1.16-.75c.62-.42,1.12-1.12,1.12-1.54,0-1.16,1.21-1.45,2.58-.67,1.66.96,2.83.91,2.83-.12,0-.42.37-1,.87-1.25.71-.42.75-.58.29-1.12-.29-.33-.5-1.04-.54-1.54,0-.58-.29-.91-.91-1-.96-.12-1.37-.91-.5-.91.21,0,1.29-.37,2.33-.87l1.95-.87,2.29,1.21c1.25.67,2.33,1.41,2.41,1.66.21.62-1.95,2.62-2.87,2.62-.37,0-.83.21-.96.42-.12.25-.62.42-1.04.42-1.33,0-2.04,1.08-1.79,2.7l.21,1.41-1.5-.25c-1.33-.21-1.54-.12-1.91.87-.33.96-.54,1.04-1.25.67-.46-.25-.83-.37-.87-.33,0,.08-.08.58-.21,1.16-.29,1.79-.54,2.08-1.54,2.08-.54,0-1.5.46-2.12,1-.83.67-1.91,1.04-3.66,1.25-1.41.12-2.74.42-2.99.62-.75.54-2.2.79-2.79.46-.33-.21-.91-.04-1.54.46-.58.42-1.29.79-1.66.79-.33,0-1.25.37-2,.87-1.12.71-1.33,1-1.04,1.75.29.79.83,1,4.03,1.41,3.37.46,3.95.42,6.61-.33,1.62-.46,3.87-1,4.99-1.21,1.16-.21,3.16-.54,4.45-.79,1.29-.21,2.87-.67,3.53-1,.62-.33,2.12-.71,3.24-.83,1.16-.12,2.83-.62,3.74-1.04.91-.46,2.45-.96,3.45-1.12.96-.17,1.75-.46,1.75-.67s.71-.71,1.58-1.08c.83-.42,2.41-1.54,3.49-2.49,1.08-1,2.24-1.79,2.54-1.79.33,0,.75-.46.87-1.04.17-.67.54-1.04,1.08-1.04.42,0,1.04-.46,1.33-1,.29-.54,1.25-1.95,2.08-3.2,2.04-2.99,3.41-7.15,2.87-8.69-.21-.67-.33-1.25-.29-1.33.08-.04.25-1.16.37-2.41.25-1.91.12-2.54-.58-3.74Zm-14.3,3.41c-.62.08-.87-.12-.96-1-.17-1.33.71-1.58,1.79-.5.75.75.46,1.29-.83,1.5Zm-.46,6.98c-.33,0-.5-.17-.37-.42.12-.21.42-.42.67-.42.21,0,.37.21.37.42,0,.25-.29.42-.67.42Zm-1.08-3.87c-.29-.12-.08-.21.5-.21s.79.08.54.21c-.29.08-.79.08-1.04,0Zm-.42-16.42c-.37-.37-.29-.5.5-.5s.87.12.5.5c-.37.37-.62.37-1,0Zm-2.41,21.74c-.71,0-1.08-.25-1.16-.83-.12-.87-2-2.04-2.37-1.41-.42.67-1.45-.12-1.45-1.12,0-.54-.17-1-.42-1-.21,0-.42.21-.42.46,0,.29-.37.37-.96.21-.54-.12-1.58-.04-2.29.17-1.25.33-1.33.29-1.33-.67,0-1.08.67-1.54,2.16-1.45.54,0,2.12.04,3.58.08,2.49.04,2.66.08,3.74,1.54.62.87,1.37,1.79,1.66,2.12.83.87.42,1.91-.75,1.91Zm.42,2.29c-.21,0-.42-.17-.42-.42,0-.21.21-.42.42-.42.25,0,.42.21.42.42,0,.25-.17.42-.42.42Zm-1.54-13.3c-.29,0-.83.46-1.21,1.04-.91,1.41-1.41.96-1.41-1.25,0-1.95.54-2.74,1.16-1.62.29.5.58.58,1.16.25,1.21-.62,1.91-.21,1.29.79-.25.42-.71.79-1,.79Zm-2.29-13.22c-.37-.37-.29-.5.5-.5s.87.12.5.5c-.37.37-.62.37-1,0Zm-2.83,10.73c-.46,0-.83-.17-.83-.37s.37-.29.83-.17c.46.12.83.29.83.37s-.37.17-.83.17Zm-5.7-1.21c-.67-.37-.58-.42.5-.46.87,0,1.08.12.75.46-.33.33-.67.33-1.25,0Zm.46,2.45c-.33,0-.5-.21-.37-.42.17-.25.46-.33.67-.21.58.37.46.62-.29.62Zm-1.25,16.21c-1.37.54-1.29.54-1.54-.42-.17-.62.04-.91.75-1.08,1.91-.46,2.58.83.79,1.5Zm-.96-7.69c-.21.12-.54,0-.67-.21-.42-.67.17-2.58.62-2.29.54.33.54,2.16.04,2.49Zm-2.41-12.01c-.42-.42.21-.79.75-.42.46.25.46.33,0,.5-.29.08-.62.04-.75-.08Zm.04,22.61c-.87,0-1.04-.17-.87-.83.12-.46.04-.83-.17-.83s-.37.21-.37.42c0,.25-.67.42-1.45.42-1.75,0-1.87-.58-.25-1.41.67-.37,1.29-.91,1.46-1.29.37-1.04,2.12-.62,2.12.5,0,.46.12,1.04.33,1.21.17.17.29.67.29,1.08,0,.54-.29.75-1.08.75Zm.33-11.64c-.54,0-.91-.5-.67-.91.25-.42,1-.04,1,.54,0,.21-.17.37-.33.37Zm-3.24,16.63c-.79,0-1.41-.17-1.41-.37,0-.5,1.87-.91,2.66-.62,1.04.42.33,1-1.25,1Zm-11.47-15.92c-.29-.12-.08-.21.5-.21s.79.08.54.21c-.29.08-.79.08-1.04,0Zm-2.83,1.37c-.21,0-.79-.37-1.25-.83l-.83-.83h1.25c.96,0,1.25.17,1.25.83,0,.46-.17.83-.42.83Zm-2.91,5.45c0,.37-2.41,1.62-3.2,1.62-.29,0-.54-.37-.54-.79,0-.83,1.25-1.41,4.16-1.87,1.29-.21,1.37-.21.54.25-.54.25-.96.62-.96.79Zm-3.74-2.95c-.21,0-.42-.17-.42-.42,0-.21.21-.42.42-.42.25,0,.42.21.42.42,0,.25-.17.42-.42.42Zm-15.38,3.53c-.21.12-.42-.12-.42-.58,0-.5.21-.87.42-.87.25,0,.42.25.42.58s-.17.75-.42.87Zm-.91,6.11c-1.7.08-2.91-.04-3.16-.29-.12-.12,0-.62.25-1.12.25-.54.46-.71.46-.42.04.58,1.7.71,1.7.08,0-.58,1.54-.5,1.79.12.5,1.16.25,1.54-1.04,1.62Zm-3.24-6.03c-1,.67-1.33.17-1-1.5.21-.87.5-1.29,1.04-1.29,1.08,0,1.08,2.12-.04,2.79Zm-1.62,5.11c-.58,0-.96-.75-.67-1.25.17-.25.46-.33.67-.21.5.33.5,1.45,0,1.45Zm-2.87-10.81c-1.25,2.41-1.91,3.33-2.45,3.33-.75,0-.67-.96.21-2.12.42-.54,1.08-1.7,1.54-2.54.46-.87.96-1.58,1.12-1.58.58,0,.37,1.41-.42,2.91Zm-.17,9.35c-.46-.79-.21-1.25.46-.87.25.17.29.58.17.91-.21.62-.29.58-.62-.04Zm-1.16-.62c-.37.54-.5.54-1-.12-.54-.67-.54-1.45,0-3.16.17-.46.33-.42.79.21.71.91.79,2.2.21,3.08Zm-3.33,1c-.33-.87-.12-1.54.42-1.21.17.12.25.62.08,1.12-.21.87-.25.87-.5.08Zm-1.29-75.41c-.91,0-.96-.17-.37-1.29.54-1,1.12-1.04,1.37-.04.21,1-.04,1.33-1,1.33Zm-.46,59.36c-1.08.21-.96-1.41.12-1.7.67-.17.83-.04.71.67-.08.5-.46.96-.83,1.04Zm-2.87-4.49c-.21,0-.37-.17-.37-.42,0-.21.29-.42.67-.42.33,0,.5.21.37.42-.12.25-.42.42-.67.42Zm-.46-57.49c-.33-.12-.21-.25.25-.25.46-.04.71.08.54.21-.12.12-.5.17-.79.04Zm.75,83.68c-.46,0-.62-.79-.25-1.04.21-.12.42.04.42.37,0,.37-.08.67-.17.67Zm-1.08-102.64c0,.21-.17.37-.42.37-.5,0-.54-1.95-.04-2.24.5-.33.91.25.67.91-.12.29-.21.75-.21.96Zm-2.37,1.62c-.29,0-.54-.29-.54-.62,0-.62,1.29-.87,1.79-.33.33.33-.5.96-1.25.96Zm-.12-4.78c-.33.79-.37.79-.37-.08-.04-.5-.33-1.08-.71-1.29-.83-.46-.04-1.12.87-.75.71.25.75.87.21,2.12Zm-3.28,100.81c-.46,0-.96-.17-1.08-.42-.17-.25.21-.42.79-.42s1.08.21,1.08.42c0,.25-.37.42-.79.42Zm-.96-90.29c-.96.12-1.16-.04-1.16-.71,0-.91,1.41-1.91,2.12-1.5.21.17.37.71.29,1.16-.08.67-.46.96-1.25,1.04Zm-.08,85.97c-.83.79-1.08.75-1.08-.25,0-.54.29-.83.83-.83,1,0,1.04.25.25,1.08Zm-2.12,3.49c-.83,0-1.87-1-1.87-1.75,0-.25,1.91-.08,2.41.25.87.54.54,1.5-.54,1.5Zm-.04-99.35c-.37,0-.58-.29-.5-.71.21-1.04,1.16-1.16,1.16-.17,0,.5-.25.87-.67.87Zm-2,96.03c-.08,0-.25-.29-.42-.62-.12-.33-.04-.62.17-.62.25,0,.42.29.42.62s-.08.62-.17.62Zm-52.79-158.8c-.33-.33-.25-.62.33-1.08,1.25-.91,1.58-.71.83.5-.54.75-.83.91-1.16.58Zm-4.41-3.33c-.21,0-.42-.29-.42-.62s.21-.62.42-.62c.25,0,.42.29.42.62s-.17.62-.42.62Zm-92.2,22.36c-.37.5-.62.54-.96.21-.25-.25-.75-.37-1.08-.25-.29.12-.91-.08-1.37-.5-.75-.67-.83-.67-1.08-.04-.29.75-2.41.96-2.16.17.08-.25.91-.71,1.83-1.04.87-.29,1.91-.71,2.33-.91.42-.29,1.16-.25,2.08.04.75.25,1.66.54,2,.62.5.12.46.29-.21.62-.46.25-1.08.75-1.37,1.08Zm-6.32-1.79c-.21.12-.42-.04-.42-.37,0-.37.21-.67.42-.67.25,0,.42.17.42.37,0,.25-.17.54-.42.67Zm-2.12,1.04c-.83,0-1.08-.62-.37-1.04.62-.37,1.79.12,1.45.62-.12.21-.62.42-1.08.42Zm-7.11-3.03c-.33-.12-.21-.25.25-.25.46-.04.71.08.54.21-.12.12-.5.17-.79.04Zm-9.35,36.04c-2.33-.58-2.91-.96-3.12-2-.29-1.45.5-2.45,1.79-2.24,1.29.17,1.29.91.04,1.08-.58.08-.87.33-.75.62.12.29.37.83.5,1.25.17.46.62.71,1.16.67,1.25-.08,1.5,0,1.5.46,0,.25-.46.33-1.12.17Zm-6.82,2.12c-.5.17-1.04.12-1.25-.08-.5-.5,1.08-1.95,1.66-1.58.75.46.5,1.37-.42,1.66Zm-1.87-2.08c-.87,1-1.12,1.12-1.41.62-.75-1.21-.46-2.45.58-2.74,1.04-.25,1.91.04,1.91.58,0,.17-.5.83-1.08,1.54Zm-1.83-3.53c-.46,0-.83-.17-.83-.42,0-.21.37-.42.83-.42s.83.21.83.42c0,.25-.37.42-.83.42Zm-3.24-32.42c-.79,0-1.75-.75-1.75-1.33,0-.5,1.45-.37,2,.17.71.71.62,1.16-.25,1.16Zm-3.24,27.19c-.62-.46-1.5-1-2-1.29-.96-.54-1.16-1.41-.42-1.66.29-.08.75.08,1.08.37.71.67,1.87,1.41,3.2,2.08q.96.5.08.87c-.62.29-1.12.21-1.95-.37Zm-.08-28.02c-.37,0-1-.21-1.33-.42-.46-.29-.21-.42.96-.42.96,0,1.5.17,1.33.42-.12.25-.58.42-.96.42Zm-15.46,26.19c-.21,0-.75-.42-1.25-.91-.96-1.04-.37-1.79.91-1.12.79.42,1.04,2.04.33,2.04Zm-8.4-13.43c-.33-.12-.21-.25.25-.25.46-.04.71.08.54.21-.12.12-.5.17-.79.04Zm-47.51,6.19c-.58-.21-.62-.37-.21-.87s.67-.54,1.12-.17c.75.62.04,1.41-.91,1.04Zm-1.87,2.24c-1.29,0-1.7-.67-.62-1.08.54-.21,1.87.46,1.87.91,0,.08-.54.17-1.25.17Zm-1.66,5.82c-.21,0-.42-.08-.42-.17,0-.12.21-.33.42-.46.25-.12.42-.04.42.17,0,.25-.17.46-.42.46Zm-6.65-3.33c-.54,0-.83-.29-.83-.83,0-.96.42-1.08,1.16-.33s.62,1.16-.33,1.16Zm-7.32-6.24c-.33,0-.5-.21-.37-.42.17-.25.46-.33.67-.21.58.37.46.62-.29.62Zm-37.45,12.06c-1-.04-1.08-.08-.42-.46.37-.21.91-.29,1.12-.17.71.42.46.62-.71.62Zm-2.41-2.91c-.5.42-.83.37-1.7-.21-1-.62-1.04-.75-.46-1.37.54-.54.87-.54,1.75-.17,1.21.54,1.29,1,.42,1.75Zm-2.33-5.24c-1.25.08-2.54.21-2.87.29-.37.12-.67-.21-.75-.83-.17-.96-.08-1,1.46-.67.87.17,2.16.33,2.83.42,2.83.21,2.49.58-.67.79Zm.29,10.64c-.83,0-1.12-.5-.62-1.08.25-.29.33-.75.17-1-.42-.67-1.37-.5-1.58.33-.17.54-.21.5-.25-.21-.04-.62.33-1,1.21-1.33q1.33-.46,1.79,1.21c.25.91-.17,2.08-.71,2.08Zm-3.12,1.58c-.25.42-.42.29-.62-.5-.21-.79-.54-1.08-1.29-1.08-1.25,0-1.33-.46-.17-1.16.71-.46.96-.42,1.62.42.91,1.08,1,1.54.46,2.33Zm-4.82-8.85c-1.7.87-3.12,1.83-3.12,2.12,0,.25-.58.71-1.29.96s-1.37.83-1.5,1.29c-.21.83-.25.87-.96.08-.42-.42-.87-1.16-1-1.66-.42-1.25-1.5-1.16-1.5.08,0,.67.29,1.08.96,1.29.71.21.75.33.29.5-.33.17-.87.58-1.16,1.04-.29.42-.75.75-1,.75-1.41,0-4.07,2.87-4.07,4.36,0,.08.37.21.83.33.54.12.75.46.58.83-.17.5-.62.25-1.87-1l-1.66-1.66.87-1.16c.46-.67.83-1.5.83-1.83,0-.96,1.25-1.75,2.45-1.58,1.04.12,1.04.08.42-.62-.71-.83-.62-1.62.33-2.7.62-.75.33-2.04-.46-2.04-.58,0-4.41,4.32-4.41,4.95,0,.58-.96.58-1.5.04-.29-.29-.46.25-.5,1.75-.04,1.45-.25,2.24-.67,2.49-.37.21-.67.67-.67,1.04,0,.33-.46,1.16-1,1.83-.83.96-1.04,1.04-1.25.5-.17-.33.04-1.21.37-1.95.37-.71.79-2.12.91-3.16.12-1.16.62-2.29,1.21-2.91.54-.58,2.08-2.16,3.41-3.58,2.91-3.08,3.66-3.53,5.03-3.03,1.29.5,2.16.21,1.87-.62-.17-.46.12-.79.83-1.08,1.25-.46,6.03-.42,6.32.04.33.54-2.04,3.7-2.83,3.7-.42,0-.75.29-.75.62s-.17.62-.42.62c-.21,0-.42.21-.42.42,0,.29.25.29.79,0,.54-.29.91-.29,1.08,0,.46.71,1.46.46,1.46-.37,0-.5.37-.96.96-1.12.5-.17,1.33-.71,1.83-1.25,1.16-1.25,3.45-1.33,3.45-.17,0,.17-1.41,1-3.12,1.87Zm1.04-4.57c-.21.12-.42.04-.42-.17,0-.25.21-.46.42-.46.25,0,.42.08.42.17,0,.12-.17.33-.42.46Zm-6.07,17.13c-.12-.12-.17-.5-.04-.79.12-.33.25-.21.25.25.04.46-.08.71-.21.54Zm-3.7-3.62c-.33,0-.62-.29-.62-.62s.29-.62.62-.62.62.29.62.62-.29.62-.62.62Zm-2.37,3.41c-.5-.5-.04-1.45.5-1.12.21.12.25.54.12.87-.17.42-.37.5-.62.25Zm-6.98-1.12c-.21-.12-.42-.42-.42-.67,0-.21.21-.37.42-.37.25,0,.42.29.42.67,0,.33-.17.5-.42.37Zm-4.99,3.12c-.21,0-.42-.17-.42-.42,0-.21.21-.42.42-.42.25,0,.42.21.42.42,0,.25-.17.42-.42.42Z"/></svg>