<?xml version="1.0" encoding="utf-8"?>
<!-- Generator: Adobe Illustrator 27.1.1, SVG Export Plug-In . SVG Version: 6.00 Build 0)  -->
<svg version="1.1" id="Ebene_1" xmlns="http://www.w3.org/2000/svg" xmlns:xlink="http://www.w3.org/1999/xlink" x="0px" y="0px"
	 viewBox="0 0 600 261" style="enable-background:new 0 0 600 261;" xml:space="preserve">
<style type="text/css">
	.st0{fill:#B1CBF0;}
</style>
<path class="st0" d="M137.3,187.1c-0.6,0-0.8,0.1-0.5,0.2c0.2,0.1,0.8,0.1,1,0C138,187.2,137.8,187.1,137.3,187.1z"/>
<path class="st0" d="M265.3,137c-0.7-0.4-2.1,0.6-2.1,1.4s0.9,1.6,1.2,0.9c0.1-0.3,0.4-0.8,0.8-1.1
	C265.8,137.5,265.8,137.3,265.3,137L265.3,137z"/>
<path class="st0" d="M310.3,143.8c-0.8,0-1.5,0.8-1.2,1.4c0.4,1.1,1.5,0.8,1.5-0.4C310.6,144.3,310.5,143.8,310.3,143.8L310.3,143.8
	z"/>
<path class="st0" d="M323.5,162.8c-0.2,0.1-0.4,0.9-0.4,1.7s0.2,1.4,0.4,1.4c0.2,0,0.4-0.8,0.4-1.7S323.8,162.6,323.5,162.8z"/>
<path class="st0" d="M327.3,166.9c-0.2-0.2-0.6-0.5-1-0.7c-0.5-0.2-0.8,0-0.8,0.5c0,0.8,1.2,1.5,1.7,1
	C327.5,167.4,327.5,167.1,327.3,166.9L327.3,166.9z"/>
<path class="st0" d="M426.4,59.4c-0.7,0-1.1,0.2-1.1,0.7c0,0.4,0.3,0.6,0.9,0.5C427.6,60.4,427.7,59.4,426.4,59.4L426.4,59.4z"/>
<path class="st0" d="M439.9,102.5c-0.5-0.3-0.8,0.4-0.5,1c0.2,0.4,0.4,0.4,0.6-0.1C440.1,103,440.1,102.6,439.9,102.5L439.9,102.5z"
	/>
<path class="st0" d="M446.4,60.3c-0.4-1.6-5-6.3-6.1-6.3c-0.4,0-1-0.4-1.4-0.8c-0.8-0.8-3.9-1.7-6.1-1.7h-1.3l1,0.9
	c0.5,0.5,1.2,1.5,1.5,2.3c0.3,0.8,0.8,1.4,1.1,1.4c0.7,0,1.5,1.3,1.6,2.3c0,0.5-0.4,1.1-0.9,1.3c-0.8,0.4-0.9,0.5-0.2,0.5
	c0.4,0,1-0.2,1.2-0.6c0.5-0.6,0.7-0.6,1.9-0.1l1.4,0.5l-1.4,1.4c-2,2-3.1,2.3-5.4,1.5c-2.7-0.9-6.5-1.3-7.1-0.8
	c-0.6,0.5-1,0.2-2.5-1.9c-0.6-0.9-0.6-1.1,0-2.7c0.9-2.2,1.4-2.8,4.2-4.5c1.5-0.9,2.2-1.6,2.1-2c-0.2-1-6.2-0.8-7.7,0.2
	c-0.7,0.5-2,0.8-3.4,0.8c-3.1,0-4,0.4-5,2c-0.8,1.3-0.8,1.5-0.2,4.2c0.3,1.6,0.9,3.3,1.2,3.8c0.3,0.5,0.6,1.4,0.6,1.9
	c0.1,2.7,3.3,7.8,6.2,9.8c0.8,0.5,2.1,1.4,2.8,1.9c0.8,0.6,2.1,1.1,3.1,1.3c1,0.2,2.2,0.5,2.8,0.8c0.6,0.2,1.8,0.4,2.8,0.3
	c1.4-0.1,1.8-0.3,1.8-1c0-0.4,0.2-0.8,0.4-0.8c0.2,0,0.4,0.2,0.4,0.5s0.4,0.2,0.9-0.2c0.5-0.3,1.1-0.5,1.4-0.4
	c0.3,0.1,1-0.1,1.5-0.4c0.5-0.3,1.4-0.7,2-0.8c1.1-0.2,2.5-2.2,2.5-3.4c0-0.4,0.2-0.7,0.4-0.7c0.2,0,0.4-0.5,0.4-1.1
	c0-0.6,0.3-1.7,0.8-2.4C446.6,66.1,447,62.3,446.4,60.3L446.4,60.3z M435.7,71.6c-0.5-0.1-1.1,0-1.4,0.2c-0.8,0.6-4.2,1-5.9,0.7
	c-1-0.2-1.5-0.5-1.5-1c0-0.5-0.5-1-1-1.3c-1.1-0.5-1.7-1.7-1.2-2.4c0.1-0.2-0.1-0.9-0.5-1.4c-0.7-1.1-2.4-1.4-2.9-0.6
	c-0.2,0.3-0.4,0.3-0.6-0.1c-0.5-0.8,1-1.7,2.4-1.4c0.6,0.2,2,1,3.1,1.9c1,0.9,2.1,1.6,2.3,1.6c0.2,0,1,0.3,1.8,0.7
	c0.7,0.4,2.2,0.7,3.3,0.7c1.4,0,2.2,0.3,2.9,0.9C437.5,70.9,437.1,72,435.7,71.6L435.7,71.6z M433.9,65.3c-0.2,0-0.5-0.2-0.5-0.5
	c-0.1-0.2,0.2-0.5,0.5-0.5s0.6,0.2,0.5,0.5S434.1,65.3,433.9,65.3z M419.7,64.3c-0.1-0.1-0.2-0.5,0-0.8c0.1-0.3,0.2-0.2,0.2,0.2
	C419.9,64.2,419.8,64.5,419.7,64.3z"/>
<path class="st0" d="M447,148.8c-0.2,0-0.4,0.3-0.4,0.6s0,0.8,0,0.9c0,0.2,0.2,0.4,0.4,0.5c0.2,0.1,0.5-0.3,0.5-0.9
	S447.2,148.8,447,148.8L447,148.8z"/>
<path class="st0" d="M452.1,219.4c-0.5-0.5-0.9-0.3-1.1,0.5c-0.2,0.8,0.6,1.9,1.1,1.4C452.4,220.9,452.4,219.7,452.1,219.4
	L452.1,219.4z"/>
<path class="st0" d="M452,149.9c-0.2-0.1-0.6,0-0.7,0.2c-0.4,0.6,0.1,1,0.7,0.5C452.3,150.3,452.3,150.1,452,149.9L452,149.9z"/>
<path class="st0" d="M454,102.7c-0.2,0-0.3,0.2-0.2,0.4c0.1,0.2,0.3,0.4,0.5,0.4c0.1,0,0.2-0.2,0.2-0.4
	C454.4,102.9,454.2,102.7,454,102.7z"/>
<path class="st0" d="M456.6,221c-0.2-0.1-0.6,0-0.9,0.2c-0.5,0.3-0.5,0.5,0,1.4c0.3,0.6,0.8,1,1,0.8
	C457,223.1,457.1,221.3,456.6,221L456.6,221z"/>
<path class="st0" d="M459,222.6c-0.2-0.1-0.4,0-0.4,0.4s0.2,0.5,0.4,0.4c0.2-0.1,0.4-0.3,0.4-0.4S459.3,222.7,459,222.6z"/>
<path class="st0" d="M476.9,198.9c-0.2-0.2-0.5-0.1-0.6,0.1c-0.2,0.2-0.1,0.5,0.1,0.6c0.2,0.2,0.5,0.1,0.6-0.1
	C477.2,199.4,477.1,199.1,476.9,198.9z"/>
<path class="st0" d="M478.8,93.9c-0.4,0-0.6-0.6-0.5-2.5c0-2.3-0.1-2.7-1.1-3.4c-0.6-0.5-1.1-1-1.1-1.3c0-0.7-1.9-2.4-2.2-2
	c-0.2,0.1-0.3,0.6-0.3,1c0,0.8-1.5,1.6-2.4,1.3c-0.6-0.2-1.4,1.2-1.4,2.5c0,0.5-0.3,1.3-0.8,1.7c-0.8,0.7-0.8,0.6-1.8-0.5
	c-0.5-0.6-1.7-1.5-2.5-1.9c-0.8-0.4-1.8-1.2-2.1-1.9c-0.8-1.5-2.3-1.9-3.8-0.8c-0.7,0.4-1.3,0.7-1.4,0.5c-0.3-0.3-0.3-2.4,0-4.7
	c0.2-2.2-0.2-2.5-2.3-1.5c-1.8,0.9-4.1,3.1-4.1,3.9c0,0.3-0.5,1.1-1,1.8c-1.2,1.5-1.5,5.1-0.4,5.5c0.4,0.2,0.6,0.7,0.5,1.6
	c0,0.8,0.1,1.9,0.4,2.5c0.2,0.7,0.3,1.4,0.1,1.8c-0.5,0.8,1.8,3,2.8,2.8c0.8-0.2,2.3,1,2.7,1.9c0.1,0.3-0.1,1.1-0.5,1.7
	c-1,1.4-1,3.7,0.2,3.7c0.6,0,0.7-0.1,0.4-0.5c-0.2-0.3-0.3-1-0.2-1.6c0.2-1,0.2-1,0.5,0.2c0.1,0.8,0.5,1.3,1,1.4
	c1.2,0.2,2.8,1.6,2.3,1.9c-0.2,0.1-0.4,0.8-0.4,1.4c0,1,0.2,1.2,1.5,1.5c0.8,0.1,2.2,0.1,3,0c0.9-0.1,2.3-0.2,3.1-0.2
	c1.2,0,1.7-0.2,2.2-1c0.4-0.6,0.9-1,1.2-1c0.9,0,2-1.6,1.8-2.5c-0.1-0.5,0-0.8,0.4-0.8c0.3,0,0.6-0.2,0.6-0.4c0-0.2,0.3-0.4,0.6-0.4
	s0.6-0.2,0.6-0.5s-0.2-0.4-0.6-0.2c-0.7,0.2-1.7-0.7-1.2-1.1c0.1-0.2,0.7-0.2,1.2,0c0.7,0.2,1,0.1,1-0.3c0-0.3,0.4-1,0.8-1.6
	s0.8-1.4,0.8-1.9s0.7-1.6,1.5-2.4C479.4,96,479.9,93.9,478.8,93.9L478.8,93.9z"/>
<path class="st0" d="M486.6,223.4c-0.2-0.7-1.6-0.7-2.2,0c-0.2,0.3-0.7,0.5-1,0.4c-0.3-0.1-0.7,0-0.8,0.2c-0.1,0.2,0,0.5,0.4,0.5
	c0.4,0,0.7,0.2,0.7,0.4s0.7,0.2,1.7,0C486.9,224.4,487,224.3,486.6,223.4L486.6,223.4z"/>
<path class="st0" d="M488,221.2c-1.3,0.2-1.5,1.2-0.2,1.2c0.7,0,1.1-0.2,1.1-0.7C488.9,221.3,488.6,221.1,488,221.2L488,221.2z"/>
<path class="st0" d="M489,224.9c-0.5,0-0.8,0.2-0.8,0.4c0,0.2,0.4,0.4,0.8,0.4s0.8-0.2,0.8-0.4C489.8,225.1,489.4,224.9,489,224.9z"
	/>
<path class="st0" d="M506.2,146.3c-0.4,0-0.6,0.3-0.5,0.7c0.2,1,1.2,1.2,1.2,0.2C506.8,146.7,506.6,146.3,506.2,146.3L506.2,146.3z"
	/>
<path class="st0" d="M512,135.8c-1.4-0.5-3.1-0.2-5.8,1.2c-3.8,1.9-6.1,3.6-6.4,4.6c-0.1,0.4-0.6,1.5-1.1,2.4
	c-1,1.6-1.3,3.2-0.6,3.2c0.2,0,0.4-0.2,0.4-0.5c0-0.3,0.6-0.4,1.6-0.2c2.8,0.3,6.2-1.1,8.7-3.7c1.2-1.2,2.2-2.6,2.2-3
	s0.4-1.4,0.8-2.2C512.5,136.2,512.5,136,512,135.8L512,135.8z"/>
<path class="st0" d="M512.2,142.9c-1.3-0.3-1.8,0-2.3,1.6c-0.5,1.4-0.5,1.5,0.8,2s2.1,0.5,1.7-0.2c-0.1-0.2,0-0.5,0.2-0.6
	c0.2-0.1,0.4-0.8,0.4-1.4C513,143.4,512.8,143,512.2,142.9L512.2,142.9z"/>
<path class="st0" d="M514.2,123c-0.6-1.3-1.9-2.9-6.4-7.9c-1.9-2.1-3.5-3.9-3.5-4.2s-0.4-0.4-0.8-0.4s-1-0.4-1.2-0.8
	c-0.5-1.5-3.4-3.4-5.1-3.4c-1.3,0-1.7,0.2-2,1.1c-0.2,0.6-0.4,1.8-0.4,2.7c0,1.2-0.2,1.8-0.8,2.1c-1,0.6-1.1,2.3-0.2,2.7
	c0.4,0.1,0.9-0.1,1.3-0.7l0.7-1l0.7,0.9c0.6,0.8,0.8,0.8,1.5,0.3c0.5-0.3,0.8-1.1,0.8-1.8c0-1.2,0.5-1.6,1.4-1
	c0.5,0.3,0.5,0.5,0,1.1c-0.4,0.5-0.4,0.8-0.1,1.1c0.3,0.3,0.5,1.2,0.5,2.1c0,1,0.2,1.7,0.6,1.8c0.3,0.2,0.6,0.5,0.6,0.8
	c0,1-1,2.7-1.5,2.7c-0.9,0-1.1-1-0.6-2.7c0.5-1.9-0.1-2.6-1.2-1.3c-0.6,0.8-0.6,1-0.1,1.5c0.4,0.5,0.5,1.2,0.3,2.2
	c-0.1,0.8-0.3,1.5-0.3,1.5s-0.8-0.3-1.6-0.6c-0.8-0.3-1.8-0.6-2.2-0.6c-0.3,0-0.6,0.3-0.6,0.6s0.2,0.6,0.4,0.6
	c0.2,0,0.4,0.2,0.4,0.4c0,0.8-1.6,0.4-1.9-0.4c-0.2-0.8,1.2-3.3,1.9-3.3c0.5,0,0.8-1.8,0.3-2.4c-0.5-0.7-1.6,0-1.6,1
	c0,0.5-0.1,0.5-0.6-0.1c-0.3-0.5-1.2-0.8-2.1-0.9c-1.4-0.1-1.5,0-1.2,0.9c0.2,0.7,0,1-0.5,1.2c-0.9,0.3-0.4,1.1,0.7,1.1
	c0.5,0,0.8,0.2,0.7,0.5c-0.1,0.2-0.4,0.5-0.7,0.5c-0.3,0-1-0.1-1.5-0.1c-1.3-0.1-1.8-1.2-0.9-1.9c0.4-0.3,0.7-0.9,0.7-1.3
	c0-0.4,0.2-1,0.4-1.2c0.3-0.3,0-0.9-0.8-1.8c-1.5-1.8-1.5-2.2,0-1.9c1.1,0.2,1.2,0.2,1.2-0.8c0-0.5-0.4-1.3-0.8-1.7
	c-0.8-0.8-0.8-0.7-1.2,0.6c-0.2,0.9-0.7,1.4-1.2,1.6c-0.9,0.2-3,1.9-4.3,3.6c-1.2,1.4-2,3.3-2,4.7c0,0.8-0.2,1.6-0.4,1.9
	c-0.2,0.3-0.4,1.4-0.5,2.4c-0.1,1.6,0.1,2.2,1,3.3c1,1.1,1.1,1.4,0.7,2.1c-1.1,1.8-0.4,2.5,2.9,3.2c1.2,0.3,2,0.3,2.3,0
	c0.7-0.5,2.6,0.2,2.6,0.9c0,0.5,1.8,1.3,3.3,1.4c0.6,0.1,1.9,0.5,3,0.9c1.8,0.7,2.2,0.7,4.2,0.2c1.2-0.3,2.7-0.9,3.2-1.3
	c0.5-0.5,1.2-0.8,1.5-0.8c0.2,0,0.9-0.5,1.3-1s1.5-1.1,2.4-1.2c2.5-0.5,5.2-2.5,5.9-4.6c0.2-0.7,0.8-1.9,1.1-2.7
	C514.6,124.4,514.6,123.9,514.2,123L514.2,123z M500.1,131.8c-1,0.6-3-0.5-2.8-1.5c0.2-1,1.8-1.4,2.8-0.7
	C501.2,130.3,501.2,131.2,500.1,131.8L500.1,131.8z M498.1,126.8c-0.2,0-0.4-0.2-0.4-0.5c0-0.2,0.2-0.3,0.4-0.2
	c0.2,0.1,0.4,0.3,0.4,0.5C498.5,126.7,498.3,126.8,498.1,126.8z M494.1,125.8c-0.5-0.2-0.6-0.4-0.3-0.7c0.2-0.2,0.7-0.3,1.1-0.1
	c0.5,0.2,0.6,0.4,0.3,0.7C495,125.9,494.5,126,494.1,125.8z"/>
<path class="st0" d="M515.3,146.3c-0.3,0-0.8,0-0.9,0c-0.2,0-0.4,0.2-0.5,0.4c-0.1,0.2,0.3,0.5,0.9,0.5s1.1-0.2,1.1-0.4
	C516,146.5,515.7,146.3,515.3,146.3L515.3,146.3z"/>
<path class="st0" d="M516,210c-0.5-0.8-2.7-0.5-2.8,0.5c-0.1,0.8,0.3,0.9,1,0.2c0.4-0.5,0.6-0.4,0.9,0.2c0.2,0.4,0.6,0.6,0.8,0.5
	C516.5,211.1,516.5,210.7,516,210L516,210z"/>
<path class="st0" d="M517.4,144.3c-0.7,0-0.9,0.1-0.5,0.2c0.4,0.1,1,0.1,1.2,0C518.4,144.4,518.1,144.3,517.4,144.3z"/>
<path class="st0" d="M535.5,144.8c-0.2-0.5-0.5-1-0.8-1c-0.2,0-0.4-0.3-0.4-0.8c0-0.4-1.1-1.9-2.5-3.4c-2.1-2.2-2.6-2.6-3.5-2.4
	c-0.7,0.2-1.4,0-2.1-0.6c-2-1.5-9-1.5-7.5,0c0.6,0.6,0,2-0.9,2c-0.3,0-1,0.5-1.5,1c-0.9,0.9-0.9,1-0.2,1.3c0.4,0.2,1,0,1.3-0.3
	c0.7-0.7,2.7-0.5,2.7,0.2c0,0.2-0.4,0.5-0.8,0.6c-1.2,0.3-1,1.8,0.5,3.1l1.3,1.2h-1c-0.8,0-1.2,0.3-1.5,1.2
	c-0.3,0.7-0.3,1.3-0.1,1.5c0.7,0.4,0.4,0.9-0.9,1.2c-0.8,0.2-1.2,0.5-1.2,1c0,1-0.4,1.3-1.1,0.8c-1.7-1.5-1.8-1.5-2.4-0.6
	c-0.5,0.8-0.7,0.8-1.3,0.3c-0.6-0.5-0.8-0.5-1.1,0.1c-0.5,0.9-1.2,0.5-1.2-0.5c0-0.6-0.4-0.8-2-1c-1.8-0.2-2.1-0.1-3.1,0.9
	c-0.6,0.6-1.4,1.2-1.8,1.4c-0.8,0.3-1,1.3-0.3,1.8c0.2,0.1,0.7,0,1.1-0.4c0.5-0.5,0.8-0.5,1.4-0.2c0.6,0.3,0.8,0.2,1-0.5
	c0.3-1,1.1-0.7,1.1,0.5c0,0.6-0.3,0.8-1,0.8c-1,0-1.5,1-0.6,1.4c0.2,0.1,0.4,0.5,0.4,0.9c0,0.5-0.3,0.5-1.1,0.3
	c-0.7-0.2-1.2-0.5-1.3-0.7c-0.2-0.6-1.8-0.4-2,0.3c-0.4,0.9,0.3,1.7,0.8,0.9c0.2-0.4,0.5-0.7,0.8-0.7c0.7,0,0.5,1.3-0.2,2.1
	c-0.8,0.9-0.5,1.6,0.7,1.6c0.4,0,1.3,0.6,1.9,1.2c0.6,0.7,1.4,1.2,1.8,1.2s1.4,0.3,2.2,0.7c1.2,0.5,1.7,0.6,2.5,0.2
	c0.5-0.2,1.1-0.3,1.3-0.1c1.1,1,3.8,1.3,6.4,0.9c1.5-0.2,3.5-0.5,4.6-0.5c2.5,0,4.9-1.5,8.4-5.2c2.9-3.1,3.4-4.4,3.5-9.1
	C535.8,147.6,535.7,145.3,535.5,144.8L535.5,144.8z"/>
<path class="st0" d="M94,90.4c-0.2,0.1-0.4,0.4-0.4,0.7c0,0.2,0.2,0.4,0.4,0.4c0.2,0,0.4-0.3,0.4-0.7C94.4,90.5,94.3,90.3,94,90.4z"
	/>
<path class="st0" d="M538.8,196.2c-0.5-0.8-1-1.5-1.2-1.6s-0.5-0.8-0.6-1.6c-0.1-0.8-0.6-1.6-1-1.9c-0.5-0.2-0.8-0.8-0.8-1.2
	s-0.5-1.2-1-1.9c-0.6-0.6-1-1.3-1-1.6c0-0.6-5.3-4.7-6.9-5.3c-0.6-0.2-1.6-0.4-2.3-0.4c-0.6,0-1.2-0.2-1.4-0.6
	c-0.1-0.3-0.8-0.7-1.4-0.8c-2.3-0.5-5.5-1.4-7.2-2.3c-2.4-1.1-2.7-1.1-3.5,0.2l-0.6,1.1l-0.3-1c-0.4-1.3-2.6-2.2-4.4-1.7
	c-0.8,0.2-3.4,0.6-5.8,0.8c-4.7,0.5-5.8,0.9-5.8,1.9c0,0.7-2.7,3.4-3.4,3.4c-0.6,0-1.5,1.3-1.6,2.2c0,0.4-0.7,1.4-1.5,2.2
	c-1.7,1.6-1.6,1.6-1,2.6c0.7,1.1,0.2,1.9-1.3,2.2c-1,0.2-1.3,0.5-1.3,1.3c0,0.5-0.3,1.1-0.6,1.2c-0.3,0.1-0.6,0.6-0.6,1.1
	s-0.3,1-0.7,1.1c-1.5,0.5-2,0.9-2.1,2.1c-0.2,2.7-0.6,3.9-1.3,3.9c-0.4,0-1.1,0.3-1.5,0.6c-1,0.8-2.7,0.8-2.7,0c0-0.4,0.4-0.6,1-0.6
	c0.8,0,1-0.2,1-1c0-1-0.1-1-2.2-1c-1.2,0-2.7,0.3-3.2,0.6c-0.9,0.5-1.1,0.5-1.8-0.1c-1.1-1-0.9-1.8,0.4-2c1.9-0.4,2-0.5,0.9-0.9
	c-0.6-0.2-1.2-0.8-1.4-1.1c-0.2-0.5-0.5-0.7-1.4-0.5c-0.6,0.2-1.7,0.3-2.5,0.4c-2,0.2-5.9,2.9-6.6,4.6l-0.7,1.4l-0.6-1.1
	c-0.5-1-0.5-1.2,0.3-2.3c0.7-0.9,0.8-1.3,0.4-1.8c-0.4-0.5-0.4-1,0-2.4c0.3-1,0.4-2,0.2-2.2c-0.3-0.5-1.9-0.1-1.9,0.5
	c0,1.4-3.4,2.7-3.7,1.4c-0.1-0.5,0.1-0.8,0.5-0.8c0.3,0,0.8-0.2,0.9-0.5c0.2-0.3-0.2-0.4-0.9-0.3c-1.3,0.1-2.7-0.4-2.7-0.9
	c0-0.2,0.2-0.4,0.5-0.4s0.9-0.6,1.3-1.3c0.5-0.9,1-1.2,1.6-1.1c1.2,0.2,1,0.9-0.2,1.2c-0.8,0.2-0.9,0.3-0.2,0.6c0.4,0.2,1,0.2,1.4,0
	c0.4-0.2,0.9-0.1,1.2,0.2c0.4,0.3,0.6,0.3,0.9,0c0.2-0.3,0.1-0.6-0.2-0.7c-0.7-0.2-0.6-0.9,0.2-1.8c1.1-1.2,0.4-2.2-1.2-1.8
	c-2.3,0.5-5.3,0.7-5.3,0.4c0-1,1-1.9,2.1-1.9c1.4,0,1.9-0.6,1.8-2.2c-0.1-0.8,0.1-1.3,0.5-1.4c0.9-0.3,0.8-0.9-0.2-1.1
	c-1.1-0.3-1-1,0.2-2.2c0.9-0.8,1-1,0.4-1.3c-0.6-0.3-1.1-4.4-0.5-4.9c0.1-0.2,0-0.8-0.4-1.5c-0.5-1.1-0.6-1.3,0-1.7
	c0.6-0.5,1.5-2.9,1.5-3.9c0-0.3-0.5-0.8-1-1c-1.2-0.5-1.4-1.9-0.2-2.5c1.7-0.9-0.5-3.4-2.8-3.4c-0.6,0-1.4-0.3-1.8-0.6
	c-0.4-0.3-1.2-0.7-1.9-0.9c-0.9-0.2-1.2-0.5-1.2-1.5c0-0.7,0.2-1.4,0.6-1.7c1-0.7,0.3-1.8-1-1.5c-0.9,0.2-1.1,0.1-1.1-0.7
	c0-1-1.1-1.6-1.8-0.9c-0.2,0.2-0.7,0.5-1,0.5c-0.3,0-1,0.4-1.5,0.8c-1.1,1-1.3,1-2.6-0.1c-0.8-0.8-1.1-1.4-1.2-3l-0.1-2.1l1.6,0.2
	c0.9,0.1,2.2,0.2,2.9,0.1c3.7-0.2,5.1-0.4,6.5-0.7c1.2-0.2,1.5-0.2,1.8,0.3c0.4,1,1.7,0.9,1.3-0.2c-0.2-0.5-0.1-0.8,0.2-0.8
	c0.8,0,0.5-2-0.4-2.5c-1.2-0.6-1-1.2,0.4-1.8c0.9-0.3,1.2-0.6,0.9-0.9c-0.6-0.8-0.4-3.3,0.3-3.9c0.6-0.4,0.4-0.5-0.8-0.5
	c-0.9,0-1.8,0.3-2,0.6c-0.4,0.5-0.7,0.5-1.1,0.2c-0.3-0.2-0.6-0.7-0.6-1c0-0.3-0.4-0.4-1-0.3c-0.6,0.1-1,0.5-1,0.8
	c0,0.5-0.2,0.4-1-0.2c-1.1-0.8-1.4-2.6-0.5-2.6c0.3,0,0.7,0.2,0.8,0.5c0.1,0.2,0.3,0.4,0.5,0.2s0-0.6-0.4-1
	c-0.4-0.4-0.7-0.9-0.7-1.1s-0.4-0.4-0.8-0.4c-1.1,0-1.5-1-1.6-3.9c0-1.4-0.2-2.7-0.5-2.9c-0.7-0.7-0.5-1.1,0.5-1.5l0.9-0.4l-0.9-0.3
	c-1.3-0.4-1.2-1.2,0.1-1.5c1-0.2,1-0.1,1,1.6c0,1.5,0.2,1.8,1,2c0.5,0.2,1.3,0.8,1.8,1.3c0.8,1,0.9,1,1.8,0.2l1-0.8l-0.9-2
	c-0.8-1.8-0.8-2.1-0.2-2.4c0.5-0.2,0.6-0.8,0.5-2c-0.1-1-0.4-1.9-0.7-2.2c-0.2-0.2-0.4-0.8-0.4-1.3c0-0.5-0.5-1.4-1.2-2.1
	c-0.9-0.9-1.1-1.3-0.8-1.8c0.7-0.8,0.1-1.8-1-1.8s-1.9-1-1.9-2.4c0-0.5-0.2-0.9-0.8-0.9c-0.5,0-0.9-0.5-1.2-1.3l-0.5-1.4l-0.8,1.3
	c-0.9,1.4-0.8,3,0.2,3s0.7,0.7-0.3,1c-1.6,0.4-1.4,0.7-2.7-3.5c-0.8-2.8-0.8-3.3,0.4-3.3c1.4,0,1.8-0.7,0.9-1.6
	c-0.6-0.7-0.7-0.8,0-1c0.8-0.3,0.5-1.8-0.4-2.5c-0.3-0.2-0.6-0.7-0.8-1c-0.1-0.3-0.2,0-0.1,0.8c0.2,1.8-0.5,3.8-1.2,3.6
	c-0.2-0.1-0.5-0.7-0.6-1.3c-0.1-0.7-0.8-2.4-1.6-3.8c-0.8-1.4-1.3-2.8-1.2-3.1c0.2-0.2,0-0.8-0.2-1.1c-0.4-0.5-0.4-0.8,0.1-1.7
	c0.7-1.3,0.1-1.8-2-1.8c-0.8,0-1.4-0.2-1.4-0.4s-0.4-0.5-0.9-0.5c-1.1-0.2-2.2-3.1-1.6-3.9c0.6-0.7,0.1-1.4-0.8-1.4
	c-0.4,0-1-0.2-1.2-0.6c-0.2-0.3-0.9-0.5-1.5-0.4c-0.6,0.1-1.2-0.1-1.5-0.5c-0.3-0.4-1.3-1.5-2.1-2.4c-0.9-0.9-2-2.2-2.5-2.9
	c-0.5-0.7-1.3-1.4-1.9-1.6c-0.6-0.2-1.2-0.8-1.4-1.4c-0.2-0.6-0.9-1.3-1.5-1.7c-0.6-0.3-1.9-1.4-2.8-2.3c-0.9-1-1.8-1.7-2.1-1.7
	s-1-0.5-1.5-1.2c-0.6-0.7-1.3-1.2-1.7-1.2c-0.3,0-1-0.5-1.5-1s-1.2-1-1.5-1s-1.2-0.5-1.9-1.2c-0.8-0.7-1.7-1.2-2.1-1.2
	s-0.8-0.2-0.8-0.4c0-0.7-2.1-1.8-2.7-1.3c-0.8,0.6-3.7-1.5-3.5-2.6c0.2-1.2,0.9-1.2,2.2,0c0.7,0.6,1.6,1,2.3,1
	c0.9,0,1.5,0.4,2.2,1.2c1.1,1.5,1.3,1.5,2.4,0.4c1-1.1,0.5-2.5-0.8-2.5c-0.5,0-0.8-0.2-0.8-0.5c0-0.9-2-1.7-2.7-1.1
	c-0.5,0.4-0.6,0.2-0.8-0.8c-0.3-1.4-1-1.8-1-0.5c0,1.1-0.7,1.5-1.5,0.9c-1.4-1.1-5.4-3.3-6-3.3c-0.4,0-0.8-0.2-0.9-0.5
	c-0.1-0.3-1.1-0.6-2.2-0.7c-1.2-0.1-2.7-0.2-3.5-0.3c-0.9-0.1-1.9-0.5-2.6-1.2c-1.3-1.2-2.2-1.4-2.8-0.4c-0.3,0.5-0.5,0.6-1,0.3
	c-1-0.8-5.5-1.5-9.1-1.5c-2,0-3.9,0.1-4.4,0.1c-1.5,0-7.7-0.9-8.1-1.1c-0.2-0.1-0.8,0-1.2,0.2c-0.6,0.4-1,0.3-2-0.2
	c-1.4-0.8-4.8-0.7-9.1,0.1c-1.4,0.3-6.9,0.5-12.3,0.6c-12.1,0.1-16.2,0.7-17.7,2.5c-0.5,0.7-1,1.6-1,2c0,0.7-0.2,0.8-1.1,0.5
	c-0.7-0.1-1.6-0.7-2.1-1.1c-0.9-0.8-1.1-0.8-3.3-0.4c-1.3,0.3-2.5,0.4-2.7,0.2s-0.7,0-1.1,0.2c-0.5,0.2-2.1,0.6-3.6,0.9
	s-3.6,0.8-4.6,1.2c-1,0.5-2.3,0.8-2.9,0.8s-1.7,0.3-2.4,0.7c-0.8,0.4-2.4,0.7-4.6,0.7c-2.8,0-3.7,0.2-5.5,1
	c-1.5,0.8-3.1,1.2-5.5,1.4c-3.6,0.3-6.3,0.9-8.4,1.9c-0.7,0.3-1.5,0.5-1.8,0.3c-1-0.6-7.5-0.3-8.9,0.4c-1.4,0.7-3.5,1.2-8.4,2
	c-1.6,0.2-3.5,0.8-4.2,1.2c-0.7,0.5-2.1,1-3.1,1.1c-2.1,0.4-2.7,1.3-0.9,1.3c1.3,0,2.4,0.9,1.9,1.7c-0.4,0.6-1.3,0.5-1.6-0.2
	c-0.3-0.9-9.1-0.9-10,0c-0.4,0.3-1,0.7-1.5,0.8c-0.5,0.1-1.2,0.5-1.6,0.8c-0.4,0.3-1.5,0.8-2.6,1c-1.8,0.5-5.6,2.2-7.5,3.6
	c-0.5,0.3-1.5,0.6-2.3,0.6c-1.1,0-1.4,0.2-1.8,1.1c-0.4,1-0.6,1.1-2,0.8c-3-0.5-3.2-0.5-3.2,0.3c0,0.4-0.2,0.7-0.7,0.7
	c-0.4,0-1.1,0.4-1.7,0.8c-0.6,0.5-1.5,0.8-2.6,0.8c-1.4,0-1.6,0.1-1.6,1.1c0,0.9-0.1,1-1,0.8c-0.5-0.1-1.1-0.1-1.2,0
	c-0.2,0.1-1.6,0.3-3.2,0.4c-2.2,0.1-3.3,0.4-4.5,1.2c-1.3,0.8-2.1,1-4.1,0.9c-1.4,0-2.9,0.2-3.5,0.4c-0.5,0.2-1.8,0.7-2.8,1
	c-1,0.2-2.5,0.7-3.4,0.9c-1.1,0.3-1.8,0.2-3-0.2c-0.9-0.4-2.6-0.7-3.8-0.7c-2,0-2.3,0.1-2.7,1.1c-0.4,0.9-0.4,1.2,0.2,1.6
	c0.9,0.6,0.5,0.9-1.1,0.9c-1.4,0-1.9-1-0.8-1.4c1.2-0.4,0.5-2.3-0.8-1.9c-0.5,0.2-0.8,0.1-0.8-0.2c0-0.6-1.8-1.2-2.9-1
	c-0.6,0.2-0.8,0.5-0.7,1c0.2,1,0,1-2,0c-2.6-1.2-5.4-1.9-6.3-1.4c-0.5,0.3-1.8,0.3-3.9,0c-3.2-0.5-15.8-0.6-20.2-0.2
	c-1.4,0.1-3.7,0.5-5.2,0.7s-3.2,0.4-3.8,0.2s-1.2,0-1.4,0.2c-0.1,0.2-1.2,0.4-2.4,0.4c-3,0-12.5,2.3-13.7,3.3
	c-0.3,0.2-0.9,0.4-1.4,0.3s-1.5,0.2-2.4,0.7c-0.9,0.5-2.3,1.2-3.2,1.6c-0.8,0.4-1.7,1-2,1.4C85,90.7,84.4,91,84,91
	c-0.4,0-1.5,0.5-2.3,1s-1.8,1-2.2,1s-0.9,0.5-1.2,1.1c-0.5,1-0.5,1.1-1.3,0.4c-0.8-0.7-0.8-0.7-1.9,0.5c-0.6,0.6-1.4,1.3-1.8,1.6
	c-1.8,1-3.2,2.2-4.9,3.9c-1,1-2,1.8-2.3,1.8c-0.6,0-2.5,2.2-3.8,4.4c-0.4,0.7-1,1.4-1.3,1.7c-0.2,0.2-1.2,1.6-2,3.1
	c-3.2,5.8-3.8,6.9-4.3,7.5c-1.2,1.4-2.7,5.5-2.7,7.2c0,1-0.2,2.8-0.6,4.1c-0.4,1.8-0.5,3.2-0.2,5.8c0.2,1.9,0.5,4.7,0.6,6.1
	c0.1,1.5,0.5,3,0.8,3.4c0.9,1,4.3,7.9,4.3,8.7c0,0.4,0.4,1.2,0.8,1.8c1.3,1.7,3.7,5.3,3.7,5.6c0,0.9,6.2,6,11.5,9.4
	c2.1,1.4,5,3.3,6.4,4.3c1.4,1,2.8,1.8,3.1,1.8s0.9,0.2,1.3,0.5c1.8,1.2,6.4,2.4,9.3,2.4c0.8,0,1.7,0.2,1.9,0.5
	c0.3,0.2,1.7,0.4,3,0.4c2.4-0.1,3.4,0.4,3.9,1.7c0.1,0.3,0.8,0.5,1.8,0.4c3-0.2,8.4,0.3,14.9,1.4c2.3,0.4,5.7,0.8,7.5,0.8
	c1.8,0,5.1,0.1,7.3,0.2c4.2,0.1,6.4,0.6,7.7,1.8c1,0.9,4.7,1,5.8,0.1c0.5-0.3,1.7-0.6,2.9-0.6s2.9-0.3,3.7-0.7
	c1.1-0.5,2.2-0.6,3.7-0.4c3.1,0.3,13.7-0.4,17.1-1.2c1.6-0.4,5.2-0.8,7.9-1c4-0.2,5.2-0.5,5.9-1c0.7-0.6,1.2-0.7,2.7-0.5
	c1.6,0.2,1.9,0.2,2.3-0.5c0.6-1.1,2.6-1.4,4.9-0.9c2.1,0.5,2.7,0.2,2.4-1.2c-0.2-0.6-0.6-1-1.3-1c-1.2-0.1-1.5-0.7-0.9-1.6
	c0.3-0.5,0.5-0.5,0.9-0.1c0.2,0.2,0.9,0.5,1.4,0.5s1.4,0.5,2.1,1c1.9,1.6,2.9,1.7,3.7,0.3c0.8-1.5,1.2-1.8,2.2-1.3
	c0.9,0.5,2.6-0.1,2.6-0.9c0-0.5,1-2.6,2-4.4c1.1-1.9,1.4-2.9,1-3.4c-0.7-0.7-1.7,0-2.7,1.8c-0.5,0.9-1,1.5-1.2,1.4
	c-0.5-0.4-0.4-2.1,0.3-2.7c0.3-0.3,0.6-1.2,0.6-2c0-1,0.3-1.9,0.9-2.5c0.5-0.5,0.8-1.2,0.6-1.5c-0.2-0.4,0.1-0.6,0.8-0.6
	c0.8,0,1,0.2,0.8,0.8c-0.1,0.5,0,0.9,0.2,1.1c0.8,0.5,2-0.2,2.3-1.4c0.3-1.2,1.6-3,2.2-3c0.2,0,1-0.7,1.9-1.4
	c0.8-0.8,1.8-1.4,2.1-1.4s0.8-0.4,1.1-0.8c0.4-0.8,0.3-0.9-0.8-1.3l-1.3-0.4l1.4-1.4c1-1.1,1.5-1.3,2.1-1c0.9,0.5,1.9,0.2,2.2-0.6
	c0.1-0.3,0.9-0.9,1.7-1.2c1.5-0.6,1.5-0.7,1.2-2.2c-0.5-3.2-0.4-4.2,0.8-5.4c1.5-1.6,1.5-3.3-0.1-4.9c-1.7-1.7-0.9-2.2,1.1-0.7
	c1.4,1.1,1.4,1.2,1.3,3.2c-0.1,2-0.1,2.1,0.9,2.1c0.6,0,1.3,0.2,1.6,0.4c0.6,0.3,3.4-0.9,3.4-1.5c0-0.6,0.9-0.4,1.4,0.3
	c0.4,0.6,0.7,0.5,1.8-0.7c0.7-0.7,1.3-1.1,1.3-0.9s0.5,0.6,1,0.9c1.1,0.5,1.2,0.4,1.5-1.4c0.2-1.3,1.3-1,1.7,0.5
	c0.3,1.1,0.7,1.4,1.9,1.8c1.4,0.4,1.8,0.4,3.2-0.7c1.2-0.8,1.7-1.4,1.8-2.4c0.2-1.3,0.2-1.3,2.4-1.3c2.2,0,3,0.5,1,0.7
	c-1,0.1-1.2,0.3-1.3,1.5c-0.2,1.6,0.5,2.7,1,1.6c0.1-0.4,0.7-0.7,1.2-0.7c1.2,0,1.8-1,1.1-2.1c-0.6-1-0.2-1.9,0.8-2.2
	c0.5-0.2,2.5-0.1,4.5,0c3.1,0.2,3.8,0.2,4.3-0.4c0.8-0.8,1.8-0.5,2.4,0.6c0.5,1,3.9,1.4,5.5,0.6c0.9-0.5,1.4-0.5,2-0.2
	c1.3,0.7,2.1,0.5,2.4-0.7c0.2-0.9,0-1.3-1.3-2.4c-1.2-1.1-1.5-1.6-1.2-2.4c0.4-1.2,0.6-1.4,1-0.9c0.7,1,5.6,4.3,6.5,4.3
	c0.5,0,1.2,0.3,1.5,0.6c0.3,0.3,1,0.6,1.7,0.6c1,0,1.2-0.2,1.2-1c0-1.5,0.5-1.6,3-0.2c1.7,0.9,2.8,1.2,4.5,1.2c2.9,0,4,0.6,2.3,1.2
	c-0.6,0.2-1.3,0.4-1.5,0.2c-0.2-0.2-0.7-0.1-1,0.1c-0.6,0.3-0.5,0.4,0.4,0.6c0.5,0.2,1.1,0.7,1.2,1.1c0.3,1.1,1.4,1.1,1.8,0
	c0.3-1,0.7-1,1.4-0.3c0.3,0.3,0.6,0.3,1.1,0c0.4-0.3,0.7-0.3,0.8-0.1c0.1,0.2,0,0.5-0.2,0.5c-0.2,0.1-0.5,0.9-0.7,1.9
	c-0.2,1.4-0.1,1.8,0.5,2c0.8,0.3,0.5,1-0.6,1c-0.5,0-1,0.5-1.5,1.5c-1.1,2.6,0,3.6,1.8,1.6c0.5-0.6,1.1-1,1.3-1c0.2,0,0.6-0.5,0.8-1
	c0.2-0.6,0.7-1,1-1c0.4,0,0.8-0.6,1-1.8c0.4-2.1,1.2-2.5,1.8-0.9c0.2,0.7,0.8,1.4,1.2,1.7c0.8,0.5,0.9,0.4,1.2-0.5
	c0.5-1.2,1.3-1,1,0.2c-0.4,1.3,1,3,2.3,2.8c1.4-0.2,1.7-1.4,0.8-3.3c-0.4-0.8-0.8-1.9-0.9-2.5c-0.3-1.3-1.6-1.9-4-1.9
	c-0.9,0-1.6-0.2-1.6-0.4c0-0.5,1.6-1.3,1.8-0.9c0.1,0.2,1.3,0.5,2.6,0.6c2.5,0.2,3.2,0.8,2.9,2.2c-0.2,1,1,2.6,2.1,2.6
	c0.4,0,0.6,0.4,0.6,1c0,0.6,0.5,1.5,1,2c0.6,0.5,1,1.2,1,1.4c0,0.2,0.2,0.8,0.5,1.2c0.4,0.6,0.3,0.9-0.2,1.5
	c-0.8,0.7-0.9,1.4-0.5,2.4c0.4,1.1,0.9,0.8,1.2-1c0.4-2.2,1.4-2.2,2.7,0.1c1,1.6,1.1,2.4,1.3,6.3c0.1,3.8,0.2,4.5,0.9,4.9
	c0.7,0.4,0.7,0.5-0.1,1.3c-0.8,0.8-0.8,1.1-0.4,2.2c0.6,1.8,0.3,2.7-0.9,3c-1.5,0.3-1.7,2.3-0.3,2.9c0.5,0.2,1.1,0.2,1.4,0
	c0.7-0.6,0.9-0.4,1.4,1.2c0.3,0.9,1.2,2.5,2,3.5s1.5,2.2,1.5,2.5s0.3,0.8,0.6,1.1c0.4,0.3,0.6,0.8,0.5,1s0.3,1,0.8,1.7
	c0.6,0.8,0.9,1.4,0.8,1.9c-0.2,0.5,0,0.9,0.5,1.1c0.4,0.2,1.3,0.7,2,1.2c0.7,0.5,1.9,1.2,2.7,1.5c1.7,0.7,4.2,3,4.2,3.8
	s1.4,1.9,2.4,1.9c0.6,0,0.9,0.2,0.9,0.8c0,0.8,1.9,2,2.4,1.5c0.4-0.4,3.5,1.6,3.9,2.4c0.2,0.5,1.5,1.4,3.1,2.2
	c2.9,1.4,4.7,2.9,5.1,4.4c0.7,2.2,1.6,3.8,2.9,4.7l1.4,0.9l0.5-1.3l0.5-1.3l0.9,1.2c0.5,0.6,1.2,1.1,1.5,1.1c0.5,0,1.8,2.1,1.8,2.9
	c0,0.2,0.8,1.5,1.9,2.8c1.8,2.3,4.2,3.8,6.1,3.8c0.8,0,6.3,3.6,6.5,4.2c0.1,0.2,0.5,0.4,1,0.4c0.4,0,2.2,0.5,3.8,1.2
	c1.7,0.7,4.6,1.8,6.6,2.4c2,0.7,3.9,1.4,4.3,1.8c0.5,0.5,0.9,0.5,1.5,0.1c1-0.6,2.7-0.7,3.1-0.1c0.1,0.2,1.5,0.4,2.9,0.4
	c1.8,0,2.8,0.2,3.1,0.6c0.6,0.7,3.7,0.1,4.5-0.9c0.4-0.5,0.7-0.5,1.8-0.1c0.8,0.3,1.4,0.4,1.8,0.1c0.4-0.3,1.7-0.5,6.6-1.1
	c0.6,0,1.7-0.5,2.5-0.9c1.1-0.6,2.5-0.8,6-0.9c2.5,0,4.9-0.1,5.3-0.1c0.4,0,0.9-0.5,1.1-1.1c0.5-1.2,0.8-1.3,1.6-0.5
	c0.4,0.4,0.5,0.2,0.5-0.8s0.2-1.3,0.9-1.3c0.5,0,1,0.3,1.1,0.8c0.3,1.1,1.6,0.9,1.6-0.2c0-0.5,0.2-1.1,0.4-1.4
	c0.5-0.8,0.3-2.9-0.5-4.1c-1-1.5-0.2-1.9,1.1-0.7c0.6,0.6,1.2,1,1.3,0.8c0.3-0.7,3.2-2.3,3.7-2c0.2,0.1,0.4,0.6,0.4,1
	c0,0.6,0.3,0.8,1.6,0.7c0.8,0,1.9-0.2,2.3-0.5c1.1-0.5,1.8,0.3,1.1,1.3c-0.7,1.2-0.2,2.2,0.9,1.9c0.7-0.2,1,0,1.1,0.7
	c0.2,1,0.7,1.1,1.5,0.2c0.4-0.4,1.5-0.7,3-0.7c2.2-0.1,2.5-0.2,3.2-1.5c0.8-1.4,0.7-1.8-0.7-2.2c-0.2-0.1-0.1-0.5,0.2-1
	c0.5-0.8,0.5-1,0-1.3c-0.5-0.2-0.2-0.5,0.8-0.7c1.6-0.5,2-1.5,1-2.6c-0.4-0.4-0.5-0.9-0.3-1c0.7-0.4,1.8,0.2,1.7,1
	c-0.1,1,0.5,2.9,0.9,2.9c0.2,0,0.3,0.3,0.1,0.7c-0.1,0.3-0.5,0.5-0.8,0.4c-0.7-0.2-0.8,0-1.2,1.7c-0.2,0.9,0.3,1.4,1.5,1.4
	c1.5,0.1,1.8,0.3,1.9,1.1c0.1,0.8,0.3,0.9,1.5,0.7c0.8-0.2,1.5-0.5,1.8-0.9c0.6-0.7,2.3-0.8,3-0.1c0.4,0.4,0.7,0.3,1.2-0.2
	c0.9-0.8,3.4-0.5,3.4,0.3c0,0.3,0.5,0.4,1.2,0.3c1.5-0.2,1.8-1.7,0.3-1.8c-0.7,0-0.8-0.1-0.2-0.2c0.4-0.1,1.2,0.1,1.7,0.5
	c0.5,0.4,1.4,0.7,1.9,0.7c0.8,0,1,0.2,0.7,0.8c-0.8,1.9-0.8,2.2,0.5,2.2c1.4,0,3.9-1.4,3.9-2.2c0-0.3,0.4,0.1,0.9,0.8
	c0.6,0.9,1.2,1.3,1.9,1.3c1.2,0,1.3-0.6,0.3-1.2c-0.5-0.3-0.5-0.4,0-0.5c0.4,0,0.7,0.2,0.7,0.5c0,0.7,4.5,0,5.5-0.8
	c0.8-0.6,0.7-0.7-0.4-1.1l-1.1-0.5l1.2-0.8c0.6-0.4,1.1-1.1,1.1-1.5c0-1.2,1.2-1.4,2.6-0.7c1.7,1,2.8,0.9,2.8-0.1
	c0-0.4,0.4-1,0.9-1.2c0.7-0.4,0.7-0.6,0.3-1.1c-0.3-0.3-0.5-1-0.5-1.5c0-0.6-0.3-0.9-0.9-1c-1-0.1-1.4-0.9-0.5-0.9
	c0.2,0,1.3-0.4,2.3-0.9l2-0.9l2.3,1.2c1.2,0.7,2.3,1.4,2.4,1.7c0.2,0.6-2,2.6-2.9,2.6c-0.4,0-0.8,0.2-1,0.4c-0.1,0.2-0.6,0.4-1,0.4
	c-1.3,0-2,1.1-1.8,2.7l0.2,1.4l-1.5-0.2c-1.3-0.2-1.5-0.1-1.9,0.9c-0.3,1-0.5,1-1.2,0.7c-0.5-0.2-0.8-0.4-0.9-0.3
	c0,0.1-0.1,0.6-0.2,1.2c-0.3,1.8-0.5,2.1-1.5,2.1c-0.5,0-1.5,0.5-2.1,1c-0.8,0.7-1.9,1-3.7,1.2c-1.4,0.1-2.7,0.4-3,0.6
	c-0.8,0.5-2.2,0.8-2.8,0.5c-0.3-0.2-0.9,0-1.5,0.5c-0.6,0.4-1.3,0.8-1.7,0.8c-0.3,0-1.2,0.4-2,0.9c-1.1,0.7-1.3,1-1,1.8
	c0.3,0.8,0.8,1,4,1.4c3.4,0.5,4,0.4,6.6-0.3c1.6-0.5,3.9-1,5-1.2c1.2-0.2,3.2-0.5,4.5-0.8c1.3-0.2,2.9-0.7,3.5-1
	c0.6-0.3,2.1-0.7,3.2-0.8c1.2-0.1,2.8-0.6,3.7-1c0.9-0.5,2.5-1,3.5-1.1c1-0.2,1.8-0.5,1.8-0.7s0.7-0.7,1.6-1.1
	c0.8-0.4,2.4-1.5,3.5-2.5c1.1-1,2.2-1.8,2.5-1.8c0.3,0,0.8-0.5,0.9-1c0.2-0.7,0.5-1,1.1-1c0.4,0,1-0.5,1.3-1
	c0.3-0.5,1.2-1.9,2.1-3.2c2-3,3.4-7.1,2.9-8.7c-0.2-0.7-0.3-1.2-0.3-1.3c0.1,0,0.2-1.2,0.4-2.4C539.6,198,539.5,197.4,538.8,196.2
	L538.8,196.2z M524.5,199.6c-0.6,0.1-0.9-0.1-1-1c-0.2-1.3,0.7-1.6,1.8-0.5C526.1,198.9,525.8,199.4,524.5,199.6L524.5,199.6z
	 M524,206.6c-0.3,0-0.5-0.2-0.4-0.4c0.1-0.2,0.4-0.4,0.7-0.4c0.2,0,0.4,0.2,0.4,0.4C524.7,206.4,524.4,206.6,524,206.6z
	 M522.9,202.7c-0.3-0.1-0.1-0.2,0.5-0.2s0.8,0.1,0.5,0.2C523.7,202.8,523.2,202.8,522.9,202.7z M522.5,186.3
	c-0.4-0.4-0.3-0.5,0.5-0.5s0.9,0.1,0.5,0.5C523.2,186.7,522.9,186.7,522.5,186.3z M520.1,208.1c-0.7,0-1.1-0.2-1.2-0.8
	c-0.1-0.9-2-2-2.4-1.4c-0.4,0.7-1.5-0.1-1.5-1.1c0-0.5-0.2-1-0.4-1c-0.2,0-0.4,0.2-0.4,0.5c0,0.3-0.4,0.4-1,0.2
	c-0.5-0.1-1.6,0-2.3,0.2c-1.2,0.3-1.3,0.3-1.3-0.7c0-1.1,0.7-1.5,2.2-1.4c0.5,0,2.1,0,3.6,0.1c2.5,0,2.7,0.1,3.7,1.5
	c0.6,0.9,1.4,1.8,1.7,2.1C521.7,207,521.3,208.1,520.1,208.1L520.1,208.1z M520.5,210.3c-0.2,0-0.4-0.2-0.4-0.4
	c0-0.2,0.2-0.4,0.4-0.4c0.2,0,0.4,0.2,0.4,0.4C521,210.2,520.8,210.3,520.5,210.3z M519,197c-0.3,0-0.8,0.5-1.2,1
	c-0.9,1.4-1.4,1-1.4-1.2c0-1.9,0.5-2.7,1.2-1.6c0.3,0.5,0.6,0.6,1.2,0.2c1.2-0.6,1.9-0.2,1.3,0.8C519.7,196.7,519.3,197,519,197
	L519,197z M516.7,183.8c-0.4-0.4-0.3-0.5,0.5-0.5s0.9,0.1,0.5,0.5C517.3,184.2,517.1,184.2,516.7,183.8z M513.9,194.6
	c-0.5,0-0.8-0.2-0.8-0.4s0.4-0.3,0.8-0.2s0.8,0.3,0.8,0.4S514.3,194.6,513.9,194.6z M508.2,193.3c-0.7-0.4-0.6-0.4,0.5-0.5
	c0.9,0,1.1,0.1,0.8,0.5C509.1,193.7,508.8,193.7,508.2,193.3z M508.6,195.8c-0.3,0-0.5-0.2-0.4-0.4c0.2-0.2,0.5-0.3,0.7-0.2
	C509.5,195.5,509.4,195.8,508.6,195.8L508.6,195.8z M507.4,212c-1.4,0.5-1.3,0.5-1.5-0.4c-0.2-0.6,0-0.9,0.8-1.1
	C508.5,210,509.2,211.3,507.4,212z M506.4,204.3c-0.2,0.1-0.5,0-0.7-0.2c-0.4-0.7,0.2-2.6,0.6-2.3
	C506.9,202.1,506.9,204,506.4,204.3L506.4,204.3z M504,192.3c-0.4-0.4,0.2-0.8,0.8-0.4c0.5,0.2,0.5,0.3,0,0.5
	C504.5,192.5,504.1,192.4,504,192.3z M504.1,214.9c-0.9,0-1-0.2-0.9-0.8c0.1-0.5,0-0.8-0.2-0.8s-0.4,0.2-0.4,0.4
	c0,0.2-0.7,0.4-1.5,0.4c-1.8,0-1.9-0.6-0.2-1.4c0.7-0.4,1.3-0.9,1.5-1.3c0.4-1,2.1-0.6,2.1,0.5c0,0.5,0.1,1,0.3,1.2
	c0.2,0.2,0.3,0.7,0.3,1.1C505.1,214.7,504.9,214.9,504.1,214.9L504.1,214.9z M504.4,203.3c-0.5,0-0.9-0.5-0.7-0.9c0.2-0.4,1,0,1,0.5
	C504.7,203.1,504.5,203.3,504.4,203.3L504.4,203.3z M501.1,219.9c-0.8,0-1.4-0.2-1.4-0.4c0-0.5,1.9-0.9,2.7-0.6
	C503.4,219.3,502.7,219.9,501.1,219.9L501.1,219.9z M489.7,204c-0.3-0.1-0.1-0.2,0.5-0.2s0.8,0.1,0.5,0.2
	C490.4,204.1,489.9,204.1,489.7,204z M486.9,205.4c-0.2,0-0.8-0.4-1.2-0.8l-0.8-0.8h1.2c1,0,1.2,0.2,1.2,0.8
	C487.3,205,487.1,205.4,486.9,205.4z M483.9,210.8c0,0.4-2.4,1.6-3.2,1.6c-0.3,0-0.5-0.4-0.5-0.8c0-0.8,1.2-1.4,4.2-1.9
	c1.3-0.2,1.4-0.2,0.5,0.2C484.4,210.3,483.9,210.6,483.9,210.8z M480.2,207.9c-0.2,0-0.4-0.2-0.4-0.4c0-0.2,0.2-0.4,0.4-0.4
	c0.2,0,0.4,0.2,0.4,0.4C480.6,207.7,480.5,207.9,480.2,207.9z M464.8,211.4c-0.2,0.1-0.4-0.1-0.4-0.6c0-0.5,0.2-0.9,0.4-0.9
	c0.2,0,0.4,0.2,0.4,0.6S465.1,211.3,464.8,211.4z M463.9,217.5c-1.7,0.1-2.9,0-3.2-0.3c-0.1-0.1,0-0.6,0.2-1.1
	c0.2-0.5,0.5-0.7,0.5-0.4c0,0.6,1.7,0.7,1.7,0.1c0-0.6,1.5-0.5,1.8,0.1C465.5,217,465.2,217.4,463.9,217.5L463.9,217.5z
	 M460.7,211.5c-1,0.7-1.3,0.2-1-1.5c0.2-0.9,0.5-1.3,1-1.3C461.8,208.7,461.8,210.8,460.7,211.5z M459.1,216.6c-0.6,0-1-0.8-0.7-1.2
	c0.2-0.2,0.5-0.3,0.7-0.2C459.6,215.4,459.6,216.6,459.1,216.6L459.1,216.6z M456.2,205.8c-1.2,2.4-1.9,3.3-2.5,3.3
	c-0.8,0-0.7-1,0.2-2.1c0.4-0.5,1.1-1.7,1.5-2.5c0.5-0.9,1-1.6,1.1-1.6C457.2,202.9,457,204.3,456.2,205.8L456.2,205.8z M456,215.1
	c-0.5-0.8-0.2-1.2,0.5-0.9c0.2,0.2,0.3,0.6,0.2,0.9C456.4,215.8,456.4,215.7,456,215.1L456,215.1z M454.9,214.5
	c-0.4,0.5-0.5,0.5-1-0.1c-0.5-0.7-0.5-1.4,0-3.2c0.2-0.5,0.3-0.4,0.8,0.2C455.4,212.3,455.4,213.6,454.9,214.5L454.9,214.5z
	 M451.5,215.5c-0.3-0.9-0.1-1.5,0.4-1.2c0.2,0.1,0.2,0.6,0.1,1.1C451.8,216.3,451.8,216.3,451.5,215.5L451.5,215.5z M450.2,140.1
	c-0.9,0-1-0.2-0.4-1.3c0.5-1,1.1-1,1.4,0C451.4,139.8,451.2,140.1,450.2,140.1L450.2,140.1z M449.8,199.4c-1.1,0.2-1-1.4,0.1-1.7
	c0.7-0.2,0.8,0,0.7,0.7C450.5,198.9,450.1,199.4,449.8,199.4L449.8,199.4z M446.9,195c-0.2,0-0.4-0.2-0.4-0.4c0-0.2,0.3-0.4,0.7-0.4
	c0.3,0,0.5,0.2,0.4,0.4C447.5,194.8,447.2,195,446.9,195z M446.4,137.5c-0.3-0.1-0.2-0.2,0.2-0.2c0.5,0,0.7,0.1,0.5,0.2
	C447.1,137.5,446.7,137.6,446.4,137.5z M447.2,221.1c-0.5,0-0.6-0.8-0.2-1c0.2-0.1,0.4,0,0.4,0.4
	C447.4,220.8,447.3,221.1,447.2,221.1z M446.1,118.5c0,0.2-0.2,0.4-0.4,0.4c-0.5,0-0.5-1.9,0-2.2c0.5-0.3,0.9,0.2,0.7,0.9
	C446.2,117.8,446.1,118.3,446.1,118.5z M443.7,120.1c-0.3,0-0.5-0.3-0.5-0.6c0-0.6,1.3-0.9,1.8-0.3
	C445.3,119.5,444.5,120.1,443.7,120.1L443.7,120.1z M443.6,115.3c-0.3,0.8-0.4,0.8-0.4-0.1c0-0.5-0.3-1.1-0.7-1.3
	c-0.8-0.5,0-1.1,0.9-0.8C444.1,113.5,444.2,114.1,443.6,115.3z M440.3,216.2c-0.5,0-1-0.2-1.1-0.4c-0.2-0.2,0.2-0.4,0.8-0.4
	s1.1,0.2,1.1,0.4C441.1,216,440.8,216.2,440.3,216.2z M439.4,125.9c-1,0.1-1.2,0-1.2-0.7c0-0.9,1.4-1.9,2.1-1.5
	c0.2,0.2,0.4,0.7,0.3,1.2C440.6,125.5,440.2,125.8,439.4,125.9L439.4,125.9z M439.3,211.8c-0.8,0.8-1.1,0.8-1.1-0.2
	c0-0.5,0.3-0.8,0.8-0.8C440.1,210.8,440.1,211,439.3,211.8z M437.2,215.3c-0.8,0-1.9-1-1.9-1.8c0-0.2,1.9-0.1,2.4,0.2
	C438.6,214.4,438.3,215.3,437.2,215.3z M437.1,116c-0.4,0-0.6-0.3-0.5-0.7c0.2-1,1.2-1.2,1.2-0.2C437.8,115.6,437.6,116,437.1,116
	L437.1,116z M435.1,212c-0.1,0-0.2-0.3-0.4-0.6c-0.1-0.3,0-0.6,0.2-0.6c0.2,0,0.4,0.3,0.4,0.6S435.2,212,435.1,212z M382.4,53.2
	c-0.3-0.3-0.2-0.6,0.3-1.1c1.2-0.9,1.6-0.7,0.8,0.5C383,53.4,382.7,53.5,382.4,53.2L382.4,53.2z M377.9,49.9c-0.2,0-0.4-0.3-0.4-0.6
	s0.2-0.6,0.4-0.6c0.2,0,0.4,0.3,0.4,0.6S378.2,49.9,377.9,49.9z M285.7,72.2c-0.4,0.5-0.6,0.5-1,0.2c-0.2-0.2-0.8-0.4-1.1-0.2
	c-0.3,0.1-0.9-0.1-1.4-0.5c-0.8-0.7-0.8-0.7-1.1,0c-0.3,0.8-2.4,1-2.2,0.2c0.1-0.2,0.9-0.7,1.8-1c0.9-0.3,1.9-0.7,2.3-0.9
	c0.4-0.3,1.2-0.2,2.1,0c0.8,0.2,1.7,0.5,2,0.6c0.5,0.1,0.5,0.3-0.2,0.6C286.7,71.4,286,71.9,285.7,72.2L285.7,72.2z M279.4,70.4
	c-0.2,0.1-0.4,0-0.4-0.4c0-0.4,0.2-0.7,0.4-0.7c0.2,0,0.4,0.2,0.4,0.4C279.8,70,279.7,70.3,279.4,70.4z M277.3,71.5
	c-0.8,0-1.1-0.6-0.4-1c0.6-0.4,1.8,0.1,1.5,0.6C278.3,71.3,277.8,71.5,277.3,71.5L277.3,71.5z M270.2,68.5c-0.3-0.1-0.2-0.2,0.2-0.2
	c0.5,0,0.7,0.1,0.5,0.2C270.9,68.5,270.5,68.6,270.2,68.5z M260.8,104.5c-2.3-0.6-2.9-1-3.1-2c-0.3-1.4,0.5-2.4,1.8-2.2
	c1.3,0.2,1.3,0.9,0,1.1c-0.6,0.1-0.9,0.3-0.8,0.6s0.4,0.8,0.5,1.2c0.2,0.5,0.6,0.7,1.2,0.7c1.2-0.1,1.5,0,1.5,0.5
	C262,104.6,261.5,104.7,260.8,104.5L260.8,104.5z M254,106.6c-0.5,0.2-1,0.1-1.2-0.1c-0.5-0.5,1.1-1.9,1.7-1.6
	C255.2,105.4,254.9,106.3,254,106.6L254,106.6z M252.2,104.5c-0.9,1-1.1,1.1-1.4,0.6c-0.8-1.2-0.5-2.4,0.6-2.7c1-0.2,1.9,0,1.9,0.6
	C253.2,103.2,252.7,103.8,252.2,104.5z M250.3,101c-0.5,0-0.8-0.2-0.8-0.4c0-0.2,0.4-0.4,0.8-0.4s0.8,0.2,0.8,0.4
	C251.2,100.8,250.8,101,250.3,101z M247.1,68.6c-0.8,0-1.8-0.8-1.8-1.3c0-0.5,1.4-0.4,2,0.2C248,68.1,248,68.6,247.1,68.6z
	 M243.8,95.8c-0.6-0.5-1.5-1-2-1.3c-1-0.5-1.2-1.4-0.4-1.7c0.3-0.1,0.8,0.1,1.1,0.4c0.7,0.7,1.9,1.4,3.2,2.1
	c0.6,0.3,0.7,0.6,0.1,0.9C245.2,96.4,244.7,96.4,243.8,95.8L243.8,95.8z M243.8,67.8c-0.4,0-1-0.2-1.3-0.4c-0.5-0.3-0.2-0.4,1-0.4
	c1,0,1.5,0.2,1.3,0.4C244.6,67.6,244.1,67.8,243.8,67.8z M228.3,93.9c-0.2,0-0.8-0.4-1.2-0.9c-1-1-0.4-1.8,0.9-1.1
	C228.8,92.3,229,94,228.3,93.9L228.3,93.9z M219.9,80.5c-0.3-0.1-0.2-0.2,0.2-0.2c0.5,0,0.7,0.1,0.5,0.2
	C220.6,80.6,220.2,80.6,219.9,80.5z M172.4,86.7c-0.6-0.2-0.6-0.4-0.2-0.9s0.7-0.5,1.1-0.2C174.1,86.3,173.3,87.1,172.4,86.7
	L172.4,86.7z M170.5,88.9c-1.3,0-1.7-0.7-0.6-1.1c0.5-0.2,1.9,0.5,1.9,0.9C171.8,88.9,171.2,88.9,170.5,88.9z M168.9,94.8
	c-0.2,0-0.4-0.1-0.4-0.2c0-0.1,0.2-0.3,0.4-0.5c0.2-0.1,0.4,0,0.4,0.2C169.3,94.6,169.1,94.8,168.9,94.8z M162.2,91.4
	c-0.5,0-0.8-0.3-0.8-0.8c0-1,0.4-1.1,1.2-0.3S163.2,91.4,162.2,91.4z M154.9,85.2c-0.3,0-0.5-0.2-0.4-0.4c0.2-0.2,0.5-0.3,0.7-0.2
	C155.8,84.9,155.7,85.2,154.9,85.2L154.9,85.2z M117.4,97.3c-1,0-1.1-0.1-0.4-0.5c0.4-0.2,0.9-0.3,1.1-0.2
	C118.9,97,118.6,97.2,117.4,97.3L117.4,97.3z M115,94.3c-0.5,0.4-0.8,0.4-1.7-0.2c-1-0.6-1-0.8-0.5-1.4c0.5-0.5,0.9-0.5,1.8-0.2
	C115.8,93.1,115.9,93.6,115,94.3L115,94.3z M112.7,89.1c-1.2,0.1-2.5,0.2-2.9,0.3c-0.4,0.1-0.7-0.2-0.8-0.8c-0.2-1-0.1-1,1.5-0.7
	c0.9,0.2,2.2,0.3,2.8,0.4C116.2,88.5,115.9,88.9,112.7,89.1z M113,99.7c-0.8,0-1.1-0.5-0.6-1.1c0.2-0.3,0.3-0.8,0.2-1
	c-0.4-0.7-1.4-0.5-1.6,0.3c-0.2,0.5-0.2,0.5-0.2-0.2c0-0.6,0.3-1,1.2-1.3c0.9-0.3,1.5,0.1,1.8,1.2C114,98.6,113.5,99.7,113,99.7
	L113,99.7z M109.9,101.3c-0.2,0.4-0.4,0.3-0.6-0.5c-0.2-0.8-0.5-1.1-1.3-1.1c-1.2,0-1.3-0.5-0.2-1.2c0.7-0.5,1-0.4,1.6,0.4
	C110.3,100.1,110.4,100.5,109.9,101.3L109.9,101.3z M105.1,92.5c-1.7,0.9-3.1,1.8-3.1,2.1c0,0.2-0.6,0.7-1.3,1s-1.4,0.8-1.5,1.3
	c-0.2,0.8-0.2,0.9-1,0.1c-0.4-0.4-0.9-1.2-1-1.7c-0.4-1.2-1.5-1.2-1.5,0.1c0,0.7,0.3,1.1,1,1.3c0.7,0.2,0.8,0.3,0.3,0.5
	c-0.3,0.2-0.9,0.6-1.2,1c-0.3,0.4-0.8,0.8-1,0.8c-1.4,0-4.1,2.9-4.1,4.4c0,0.1,0.4,0.2,0.8,0.3c0.5,0.1,0.8,0.5,0.6,0.8
	c-0.2,0.5-0.6,0.2-1.9-1l-1.7-1.7l0.9-1.2c0.5-0.7,0.8-1.5,0.8-1.8c0-1,1.2-1.8,2.4-1.6c1,0.1,1,0.1,0.4-0.6
	c-0.7-0.8-0.6-1.6,0.3-2.7c0.6-0.8,0.3-2-0.5-2c-0.6,0-4.4,4.3-4.4,4.9c0,0.6-1,0.6-1.5,0c-0.3-0.3-0.5,0.2-0.5,1.8
	c0,1.4-0.2,2.2-0.7,2.5c-0.4,0.2-0.7,0.7-0.7,1c0,0.3-0.5,1.2-1,1.8c-0.8,1-1,1-1.2,0.5c-0.2-0.3,0-1.2,0.4-1.9
	c0.4-0.7,0.8-2.1,0.9-3.2c0.1-1.2,0.6-2.3,1.2-2.9c0.5-0.6,2.1-2.2,3.4-3.6c2.9-3.1,3.7-3.5,5-3c1.3,0.5,2.2,0.2,1.9-0.6
	c-0.2-0.5,0.1-0.8,0.8-1.1c1.2-0.5,6-0.4,6.3,0c0.3,0.5-2,3.7-2.8,3.7c-0.4,0-0.8,0.3-0.8,0.6s-0.2,0.6-0.4,0.6
	c-0.2,0-0.4,0.2-0.4,0.4c0,0.3,0.2,0.3,0.8,0s0.9-0.3,1.1,0c0.5,0.7,1.5,0.5,1.5-0.4c0-0.5,0.4-1,1-1.1c0.5-0.2,1.3-0.7,1.8-1.2
	c1.2-1.2,3.4-1.3,3.4-0.2C108.1,90.8,106.7,91.6,105.1,92.5L105.1,92.5z M106.1,87.9c-0.2,0.1-0.4,0-0.4-0.2c0-0.2,0.2-0.5,0.4-0.5
	c0.2,0,0.4,0.1,0.4,0.2C106.5,87.6,106.3,87.8,106.1,87.9z M100,105c-0.1-0.1-0.2-0.5,0-0.8c0.1-0.3,0.2-0.2,0.2,0.2
	C100.3,105,100.2,105.2,100,105z M96.3,101.4c-0.3,0-0.6-0.3-0.6-0.6s0.3-0.6,0.6-0.6s0.6,0.3,0.6,0.6S96.7,101.4,96.3,101.4z
	 M94,104.8c-0.5-0.5,0-1.4,0.5-1.1c0.2,0.1,0.2,0.5,0.1,0.9C94.4,105,94.2,105.1,94,104.8z M87,103.7c-0.2-0.1-0.4-0.4-0.4-0.7
	c0-0.2,0.2-0.4,0.4-0.4c0.2,0,0.4,0.3,0.4,0.7C87.4,103.7,87.2,103.8,87,103.7z M82,106.8c-0.2,0-0.4-0.2-0.4-0.4
	c0-0.2,0.2-0.4,0.4-0.4c0.2,0,0.4,0.2,0.4,0.4C82.4,106.7,82.2,106.8,82,106.8z"/>
</svg>
