<?xml version="1.0" encoding="UTF-8"?><svg id="Ebene_2" xmlns="http://www.w3.org/2000/svg" viewBox="0 0 600 261"><defs><style>.cls-1{fill:#bababa;}</style></defs><path class="cls-1" d="m152.91,83.79c-1.29,0-2,.17-1.83.42.12.25,1.08.42,2.12.42s1.83-.17,1.83-.42c0-.21-.96-.42-2.12-.42Z"/><path class="cls-1" d="m267.89,127.94c-.67,0-.91.08-.5.21.37.08.96.08,1.25,0,.25-.12-.04-.21-.75-.21Z"/><path class="cls-1" d="m281.52,132.93c-.83-.75-1.16-.83-1.41-.42-.67,1.04-.37,1.91.67,2.08,1.62.33,2-.54.75-1.66Z"/><path class="cls-1" d="m326.71,125.36c-.21,0-.42.29-.42.62s.21.62.42.62c.25,0,.42-.29.42-.62s-.17-.62-.42-.62Z"/><path class="cls-1" d="m340.72,107.12c-.71-.54-1.12-.21-1.12,1,0,.5.12,1.04.29,1.16.33.37,1.37-.5,1.37-1.16,0-.29-.25-.75-.54-1Z"/><path class="cls-1" d="m448.34,219.31c-.37,0-.67.21-.67.42,0,.25.17.42.37.42.25,0,.54-.17.67-.42.12-.21-.04-.42-.37-.42Z"/><path class="cls-1" d="m461.61,122.87c-.33,0-.62.21-.62.42,0,.25.29.42.62.42s.62-.17.62-.42c0-.21-.29-.42-.62-.42Z"/><path class="cls-1" d="m463.18,207.26c-.08-1.04-.79-3.2-1.58-4.86-.79-1.62-1.45-3.24-1.45-3.53,0-1.95-2.87-3.2-3.95-1.7-.33.46-.75.58-1.29.37-.75-.29-.71-.33.25-1.08.91-.67.96-.83.33-1.04-.37-.17-.91-.17-1.12-.04-.25.17-.62-.12-.91-.67l-.5-.91-.71.91-.75.91-.58-.91c-.54-.79-1-.91-2.87-.91-1.25.04-2.87.37-3.58.75-.75.37-1.7.67-2.2.67s-1.37.54-2,1.21c-.62.67-1.54,1.33-2.04,1.45-.5.17-1.37.91-1.87,1.62-.54.75-1.33,1.7-1.83,2.16-1.16,1.12-2.12,3.16-2.45,5.28-.17,1-.62,2.37-1.04,3.12-.42.71-.87,2.54-1.04,4.03-.25,2.37-.21,2.91.46,3.62,1.08,1.21,3.49,2.12,4.86,1.87.71-.17,1.75.04,2.7.54,1.7.83,7.03,1.46,7.94.91.83-.54.29-1.62-1.08-2.2-1.7-.75-4.2-2.74-4.45-3.58-.75-2.7-.71-3.33.17-3.62.5-.17,1.12-.08,1.37.17.75.75,1.95.54,1.95-.29,0-1.08-.42-1.37-1.29-.91-.87.5-1.33,0-.96-1,.21-.54.37-.58.83-.21.62.54,5.45.17,6.19-.46.21-.17,1.29-.46,2.33-.62,1.79-.25,2.04-.17,3.24,1,.71.71,1.5,1.29,1.7,1.29.96,0,.29,1.12-.91,1.58-1.16.42-1.37.37-2.29-.58-.54-.58-1.16-.91-1.45-.75-.29.21-.08.58.62,1.08,1.37,1,1.41,2,.17,3.28-.54.54-1.12,1.29-1.29,1.62-.17.33-.54,1.08-.87,1.62-.29.58-.5,1.21-.37,1.37.5.75,3.16.29,5.07-.91,1.12-.67,2.33-1.25,2.66-1.25s.83-.46,1.08-1.04c.25-.58.66-1.04.91-1.04,1.41,0,4.36-4.36,4.07-6.03-.04-.21-.12-1.25-.21-2.29Zm-10.18-5.36c-.46.25-1.95.5-3.28.58-1.58.04-2.7.33-3.2.75-.42.42-1,.71-1.33.71-.29,0-.91.37-1.41.83-.5.46-1.33,1.29-1.95,1.83-.71.71-1.25.91-1.62.67-.37-.25-.75-.12-1.12.33-.46.62-.58.62-.96.08-.62-.91-.29-1.46,1-1.5.62-.04,1.45-.37,1.83-.75.58-.58.62-.79.12-1.58-.5-.79-.46-.96.42-1.62.54-.37,1.5-1.16,2.12-1.75,1-.96,1.37-1,4.78-.91,2.04.04,4.07.21,4.61.37,1.16.37,1.16,1.33,0,1.95Zm-1.45-4.78c-.46-.46.25-.79,1-.46q.71.33,0,.5c-.42.12-.87.08-1-.04Zm1.12,8.48c-.21,0-.42-.25-.42-.58s.21-.75.42-.87c.25-.12.42.12.42.58,0,.5-.17.87-.42.87Zm-1.95,1.25c-.46-.04-1.79-1.08-1.79-1.41,0-.12.46-.25,1.04-.25.75,0,1.04.21,1.04.83,0,.46-.12.83-.29.83Z"/><path class="cls-1" d="m468.05,121c-.21.12-.42.5-.42.83s.21.71.42.83c.25.17.42-.21.42-.83s-.17-1-.42-.83Z"/><path class="cls-1" d="m468.55,50.37c-.17-.08-.58-.04-.87.12-.42.29-.46.54-.08,1.25.29.5.67.79.91.67.46-.29.5-1.75.04-2.04Z"/><path class="cls-1" d="m468.76,48.34c-.29-.12-.79-.08-1.08.12-.37.21-.33.37.21.58.37.17.87.12,1.08-.08.25-.25.17-.5-.21-.62Z"/><path class="cls-1" d="m471.83,121.87c-.29-.17-.62-.21-.75-.08-.37.37.17.79.75.58.46-.17.46-.25,0-.5Z"/><path class="cls-1" d="m474.2,50.33c-.21-.21-.62-.79-.91-1.21-.5-.75-.58-.71-1,.46-.42,1.25-.37,1.29.79,1.45,1.33.21,1.75-.04,1.12-.71Z"/><path class="cls-1" d="m490.45,165.69c-.21,0-.29.21-.17.42.12.25.33.42.46.42.08,0,.17-.17.17-.42,0-.21-.21-.42-.46-.42Z"/><path class="cls-1" d="m494.74,174.54c-.67-.67-1.37-1.79-1.54-2.54-.12-.71-.46-1.45-.67-1.58-.25-.12-.58-.67-.79-1.21-.25-.62-.83-1.08-1.66-1.25-1.21-.25-1.29-.42-1.04-1.41.12-.58.25-1.41.25-1.87,0-.87-1.58-2.74-2.37-2.74-.29,0-.83-.42-1.21-.91-.42-.67-1.12-1-2.2-1.04-.83-.08-2.58-.21-3.91-.37-2.04-.21-2.45-.12-3.24.67-.87.87-.87.91-.17,1.7.67.75.67.87.08,1.45-.33.33-1.54.75-2.66.91-1.95.29-2.04.33-1.91,1.54.08.71.37,1.54.67,1.87,1.08,1.29,1.12,2.08.08,2.49-.58.21-1.21.71-1.41,1.08-.37.62-.54.67-1.08.21s-.79-.46-1.29-.04c-.33.29-.62.79-.62,1.08,0,.33-.29.58-.62.58-.46,0-.5.21-.21,1.08.29.67.29,1.33,0,1.83-.21.42-.42,1.41-.42,2.16,0,.79-.17,1.58-.37,1.83-.21.21-.46,1.16-.58,2.16-.17,1.41,0,2.04.79,3.2.54.83,1,1.66,1,1.91,0,.21.83,1.25,1.87,2.24,1.5,1.5,2.12,1.87,3.33,1.87,1.62,0,1.62.08,1.04-2.91-.21-1.16-.29-2.62-.17-3.16l.25-.96,1.33,1c1.87,1.41,2.49,1.33,3.87-.71.71-1.08,1.62-1.87,2.37-2.04.71-.21,1.66-.83,2.16-1.41.5-.58,1.29-1.04,1.79-1.04.71,0,.87.25.87,1.5,0,1.62.67,3.2,1.25,2.87.54-.33,2.49.54,2.49,1.12,0,.29.17.83.37,1.12.33.5.54.46,1.25-.42.46-.54.83-1.21.87-1.5,0-.25.46-.83,1-1.29,1.21-.91,1.7-3.16,1.12-4.78-.37-1-.37-1.12.29-1.04,1.29.21,1.12-1.87-.25-3.28Zm-22.12-8.02c-.21,0-.42-.17-.42-.42,0-.21.21-.42.42-.42.25,0,.42.21.42.42,0,.25-.17.42-.42.42Z"/><path class="cls-1" d="m502.51,47.55c-.46-.79-1.41-1-1.79-.37-.46.75.25,1.7,1.25,1.7,1.08,0,1.21-.25.54-1.33Z"/><path class="cls-1" d="m505.25,158.79c-.75-.29-1.87.75-1.87,1.83,0,1.25.5,1.41,1.54.42,1.08-1.04,1.25-1.91.33-2.24Z"/><path class="cls-1" d="m505.75,45.84c-.33-.12-.83-.04-1.16.17-.42.25-.29.37.58.37,1.21,0,1.45-.21.58-.54Z"/><path class="cls-1" d="m518.64,114.72c-.87-.33-1.45.08-.87.67.21.21.62.25,1,0,.5-.33.5-.42-.12-.67Z"/><path class="cls-1" d="m520.55,51.79c-1,0-1.79.21-1.79.42,0,.54,2.08.54,2.91,0,.46-.29.17-.42-1.12-.42Z"/><path class="cls-1" d="m530.9,146.57c-.08-.33-.42-.91-.71-1.25-.29-.33-.67-1.16-.79-1.87-.33-1.33-1.37-2.7-2-2.7-.25,0-.87-.37-1.46-.83-.58-.46-1.58-.83-2.2-.83-.71,0-1.54-.42-2.12-1.04-.54-.54-1.29-1.04-1.58-1.04-.33,0-1.12-.46-1.7-1.04-1.33-1.29-5.4-1.87-7.57-1.04-.75.29-2.08.58-2.91.62-1.08.08-2.08.54-3.03,1.41-1.54,1.33-2.45,1.62-2.91.83-.33-.5-2.29-.17-4.24.75-1.46.67-1.79,1.75-.75,2.62.83.71.79,1.54-.12,1.83-1.5.5-1.91,2-1.37,4.91.29,1.41.62,3.16.71,3.82.42,2.29,2.79,5.32,5.36,6.94,1.54,1,1.87,1,1.87.04,0-.42.37-1.08.87-1.5.71-.58.83-1,.62-2.16-.33-1.54.42-1.95,1.41-.79.67.79,2.24.79,2.91,0,.29-.33.67-.5.87-.37.5.29.46,2.54-.04,2.87-.83.5-.37,1.87,1.04,3.33l1.5,1.46-1.04.46c-.91.42-.96.58-.42,1.08.33.33.58.87.58,1.16,0,.33.33.75.75.96,1.33.75,3.28.04,5.24-1.83,1.08-1,2.08-1.83,2.29-1.83.25,0,.83-.62,1.33-1.33.54-.75,2.16-2.66,3.66-4.2,1.5-1.54,2.83-3.03,2.91-3.33.08-.29.67-1.08,1.33-1.79,1.29-1.33,2.04-3.28,1.7-4.32Zm-12.93,7.07c-.21,0-.54.42-.71.96-.29.79-.37.71-.87-.91-.58-1.95-.17-3.12.91-2.7.83.33,1.41,2.66.67,2.66Zm-1.25-11.47c-1.75,1.58-3.87-.12-2.29-1.87.87-1,2.08-1.04,2.62-.04.58,1,.58,1.08-.33,1.91Zm-.12,17.54c-.17.12-.33.67-.33,1.25,0,1.91-.79,1-1.04-1.25-.33-2.62-1.12-3.24-2.29-1.83l-.75.96-.54-1.16c-.42-.91-.42-1.46-.08-2.41.54-1.41.25-2.87-.54-2.87-.33,0-.58-.17-.58-.42,0-.79,1.45-2.08,2.37-2.08.5,0,1.04-.17,1.16-.42.37-.62,1.04-.5,1.04.21,0,.33-.21.62-.5.62-.25,0-.17.33.25.79.54.58.62,1,.33,1.58-.54,1,.12,2.62,1.12,2.91.62.17.79.58.75,2.04,0,1.04-.17,1.95-.37,2.08Zm-3.33-13.68c-.29-.12-.08-.21.5-.21s.79.08.54.21c-.29.08-.79.08-1.04,0Zm-2.08,1.45c-.29.12-1,.08-1.58-.08l-1-.25,1-.71c.54-.37,1.25-.71,1.54-.71.71,0,.71,1.5.04,1.75Zm-1.16,2.62c-.29,0-.62-.25-.71-.5-.12-.33.17-.54.71-.54s.83.21.75.54c-.12.25-.46.5-.75.5Zm-3.95,1.79c-1.45.67-2.7.62-2.7-.08,0-.79.71-1.21,1.04-.67.37.62,1.04.5,1.04-.21,0-.33.37-.62.83-.62,1.16,0,1.04,1.04-.21,1.58Z"/><path class="cls-1" d="m529.2,125.2c-1.12-.12-2.33-.17-2.7,0-.79.29-.91,1.41-.12,1.41.29,0,.17.29-.29.62-1,.75-1.87.79-2.87.04-.67-.5-.67-.62-.08-1.21.87-.91.79-1.95-.21-1.95-.54,0-1,.42-1.25,1.04-.42,1.12-1.21,1.33-2,.54-.29-.29-1.62-.54-2.99-.58-2.87-.04-3.08.29-1.45,2.66.58.83,1.04,1.83,1.04,2.2,0,.71,1.66,2.45,2.37,2.45.25,0,.67.25.91.58.67.79,4.61,2.62,6.4,2.95.83.17,1.83.08,2.37-.21.79-.42.83-.58.29-1.16-.33-.37-.79-1.37-1.08-2.16-.25-.79-.87-1.83-1.37-2.37-.79-.83-.79-.96-.17-1.21.37-.12.91-.17,1.25-.04.33.12,1.29.04,2.12-.17l1.5-.42-.96-.79-.96-.75,1.16-.46c.62-.25,1.12-.5,1.12-.58,0-.12-.91-.29-2.04-.46Z"/><path class="cls-1" d="m552.1,118.09c-1.08-2.74-2-4.07-4.61-6.57-1.62-1.5-3.45-3.03-4.07-3.33-.67-.33-2.91-.71-4.99-.79-2.12-.12-4.12-.42-4.36-.67-.37-.29-.83-.25-1.58.12-.58.33-1.41.58-1.91.62-.46,0-1,.17-1.25.42-.25.25-.87.25-1.66.04-.87-.25-1.5-.21-2.04.21-.42.33-1.16.58-1.62.58-.5,0-1.5.58-2.29,1.25-.75.71-1.58,1.25-1.83,1.25-.21,0-.62.29-.91.67-.37.58-.33.87.42,1.66.5.54,1.33,1,1.79,1,.83,0,.87.17.62,1.87-.21,1.58-.12,1.87.42,1.66.33-.17.75-.04.91.21.42.67-.04,1-.91.58-.79-.33-1.21-.46-2.08-.54-.33,0-.54-.62-.54-1.33v-1.29l-.79.96c-.71.87-.75,1.08-.21,1.66.33.33.58.87.58,1.12s.37.54.79.71c.46.12.96.58,1.08,1,.29.91,1.54,1.33,2.33.83.33-.17.96-.25,1.45-.12.75.21.91,0,1.16-1.12.25-1.25.29-1.29.79-.62.46.62.71.67,1.46.29.71-.37.96-.33,1.25.21s.54.54,1.46.12c.62-.29,1.12-.67,1.12-.87,0-.17.21-.33.42-.33.25,0,.42.58.42,1.25,0,.96.17,1.25.83,1.25.58,0,.83.29.83.87,0,1.41.79,2.45,1.87,2.45,1.45,0,1.7.79.33,1.08-1.41.29-2.49,2.74-1.54,3.53.42.33.46.58.04,1-.37.42-.62.42-1.08.04-.58-.46-.96-.46-3.66,0-1.91.29-1.7,1,.29,1,1.54,0,4.99,1.41,4.99,2.04,0,.17-.21.5-.46.75-.33.33-.12.62.79,1.12,1.79.91,3.03.83,5.32-.37,1.08-.58,2.49-1.04,3.16-1.04,1.37,0,3.66-1.41,3.66-2.29,0-.29.46-.83,1-1.21.58-.33,1.16-1.08,1.29-1.58.17-.54.62-1.29.96-1.7.5-.58.71-1.79.79-4.78.04-2.2-.04-4.41-.21-4.86Z"/><path class="cls-1" d="m115.58,177.54c-.46-.25-.96.37-.58.79.37.37.96.29.96-.12,0-.25-.17-.5-.37-.67Z"/><path class="cls-1" d="m529.78,58.85c-.33,0-.62.21-.62.42,0,.25.29.42.62.42s.62-.17.62-.42c0-.21-.29-.42-.62-.42Z"/><path class="cls-1" d="m531.73,60.1c-.96,0-2.66,1.21-2.37,1.7.46.67,2.24.42,2.7-.42.58-1.12.54-1.29-.33-1.29Z"/><path class="cls-1" d="m555.18,63.76c-.42-1.21-1.45-3.2-2.29-4.41-.83-1.25-1.79-2.7-2.12-3.24-.33-.54-1-1.04-1.45-1.08-.5-.08-.87-.5-.96-1.04-.08-.5-.54-1.04-1.04-1.21-.5-.17-1.75-1-2.74-1.87-1-.91-2-1.62-2.24-1.62s-.75-.29-1.16-.67c-.79-.71-5.36-2.49-7.86-3.08-.79-.17-2-.54-2.7-.75-3.12-1.08-4.53-1.41-6.53-1.58-1.21-.12-2.37-.37-2.58-.54-.25-.21-1.37-.5-2.54-.67-1.12-.17-2.99-.58-4.12-.91-4.03-1.29-12.68.12-10.97,1.79,1.21,1.16,6.11,3.33,6.73,2.99.42-.25,1.33-.08,2.62.5,1.12.46,2.79.91,3.78,1,.96.08,2.08.42,2.49.79.37.33,1.41.91,2.24,1.25,1.16.5,1.54.91,1.66,1.83.08.91.33,1.16,1,1.08.5-.04,1.25.29,1.62.71.83.96,2.12,1.08,2.41.33.33-.75,1.12.42,1.12,1.66s-2.04,2.12-2.79,1.08c-.46-.62-.62-.62-2.24,0-.96.37-1.75.67-1.79.58-.04-.08-.33-.62-.62-1.25-.33-.67-1.16-1.33-2-1.62-.75-.25-1.37-.58-1.37-.79,0-.17-.62-.46-1.33-.62-1.33-.29-1.33-.33-.37-.58,1.54-.42,1.58-1.29.08-1.29-.67,0-1.37.21-1.5.42-.12.25-.79.42-1.41.42s-1.33.21-1.62.5c-.37.37-.5.29-.5-.42s-.33-.91-1.54-1.12c-.87-.12-2-.33-2.49-.46-.87-.17-.91-.08-.54.91q.54,1.41-.37,1.41c-.46,0-1.12.29-1.5.71-.58.58-.75.58-1.08.08-.21-.33-.37-.71-.37-.87,0-.5-2.41-.42-2.7.08-.46.75-6.73.12-8.77-.87-1.04-.5-2-.75-2.16-.62-.12.17,0,.46.29.67.33.17.46.62.29,1.04-.21.54-.54.67-1.54.46-.75-.12-1.75-.25-2.29-.25-.67,0-1.16-.33-1.46-1-.46-1-.87-1.08-4.82-1.12-.75,0-1.37-.21-1.37-.42,0-.62-1.12-.42-1.41.25-.12.33-.62.62-1.08.62-1.08,0-1.5,1.04-.79,1.91.42.54.42.71-.08,1.04-.33.21-.87.25-1.21.12-.75-.29-.71-.29-2.37-.21-.91.04-1.37.25-1.37.62,0,1.04-.87,1.21-2,.37-.62-.42-1.83-1.12-2.66-1.5-1.7-.79-1.87-1.16-1.04-2.04.54-.58.75-2.83.25-2.83-.17,0-.37-.37-.5-.83-.29-1.08-1.41-1.04-2.33.08-1,1.21-2.08.79-1.79-.71.17-.96.08-1.08-.62-.87-.54.17-1.12-.08-1.79-.79-1.04-1.08-2.45-1.33-3.2-.58-.33.33-.71.33-1.29,0-.46-.25-1.87-.46-3.08-.46-2,0-6.61-1.12-8.94-2.2-.5-.21-1.41-.25-2.04-.12-.62.17-1.62.12-2.2-.08-1-.37-3.41-.91-6.53-1.54-.87-.17-1.5-.04-1.91.33-.33.33-1.79.79-3.24.96-2.2.33-2.74.54-3.16,1.37l-.5,1-1.04-1.12c-1.12-1.21-2.41-1.41-3.2-.46-.29.33-.83.62-1.25.62-1,0-5.94,1.62-6.4,2.08-.25.25-.75.42-1.16.42s-1.7.46-2.91,1.04c-1.16.58-2.33,1.04-2.54,1.04-.25,0-1.41.83-2.62,1.87-1.16,1.04-2.41,1.87-2.74,1.87-1.16,0-5.57,1.75-6.86,2.74-.71.54-1.91,2.2-2.7,3.74-1.58,3.16-3.16,4.32-4.7,3.49-.83-.42-1.12-.37-2.29.46-1.25.91-2.91,3.78-2.91,5.03-.04,1.5-4.49,4.91-6.44,4.91-.29,0-.75.29-1.08.67-.42.5-.42.83-.04,1.45,1.16,1.87.25,3.08-1.5,2-1-.62-4.12.25-4.78,1.33-.25.46-1.12,1.12-1.87,1.41-.75.33-1.46.91-1.62,1.29-.5,1.29-2.04,2.58-4.41,3.7-1.33.62-2.62,1.5-2.91,1.87-.29.42-.87.79-1.33.87-.58.12-.87.58-.96,1.54-.08.75-.42,1.5-.75,1.62-.33.12-.58.46-.58.75,0,.87-1.95,4.99-2.62,5.57-.37.29-.79,1.08-.91,1.75-.17.67-.46,1.29-.67,1.41-.21.17-.37.62-.37,1.04,0,1.08-.62,1.37-1.58.79-1.29-.79-2.29-.17-2.08,1.29.12.75-.04,1.46-.37,1.7-.87.75-.67,2.04.29,2.04.62,0,.83-.29.83-1.04,0-1.04.54-1.29,1.83-.79.58.21.58.37.04,1.41-.83,1.58-.79,2.49.12,3.16.67.54.67.62-.04,1.16-.62.46-.79,1.41-.96,5.07-.21,4.28-.91,6.94-2,7.73-.67.46-1.79-.42-2.08-1.54-.17-.62-.5-1.04-.79-.91-.79.25-.83,1.54-.08,2.37.58.67.62,1.04.25,2.08-.25.75-.87,1.75-1.37,2.29-.54.54-.96,1.41-.96,1.95,0,.62-.37,1.12-1.12,1.5-.67.29-1.37.96-1.62,1.41-.42.75-.33,1.04.46,1.66,1.04.83,1.12.79-2.7,1.58-4.49.91-4.78.96-4.78.46,0-.25.71-.46,1.66-.46,1.21,0,1.66-.17,1.66-.62,0-.33.25-.62.58-.62.91,0,1.37-.83,2.16-3.87.66-2.45.71-2.87.17-3.2-.96-.62-1.58-.5-2.54.46-.58.58-.79,1.16-.62,1.79.33,1.37-.21,1.7-1.04.58-.71-.91-.75-.91-1.54-.21-.46.42-.96,1.25-1.12,1.83-.21.83-.33.96-.83.54-.79-.67-.79-1.87,0-2.66.71-.71.83-1.91.17-1.91-.25,0-.54.37-.66.87-.17.5-.46.75-.83.62-.33-.12-.66-.25-.75-.25s-.37-.67-.62-1.45c-.25-.79-.71-1.45-1.04-1.45-.29,0-.75-.29-1.04-.62-.62-.75-2.49-.83-2.49-.08,0,.25.46,1.33,1.04,2.33.58.96,1.04,2.37,1.04,3.03s.33,1.79.71,2.45c.75,1.25.46,2.12-.37,1.29-.29-.29-.91-.5-1.41-.5-.58,0-1.04-.33-1.21-.83-.37-1.12-.96-1.04-1.54.21-.25.58-.79,1.04-1.25,1.04-.42,0-.75.21-.75.46s.42.37.96.33c.5-.08,1.16,0,1.45.17.91.62.5,1.12-.91,1.12-.79,0-1.54.17-1.66.37-.12.21-.91.5-1.7.62-.83.17-2.16.67-2.95,1.16-1.25.75-1.54.79-1.87.29-.21-.33-.37-.79-.37-1.08,0-.87-1.54-1.45-2.49-.96-.46.25-.83.62-.83.83,0,.25-.5.42-1.12.42-.79,0-1.75.58-2.91,1.62-.96.91-2.33,1.95-2.99,2.37-1.21.71-1.33.71-2,.04-.67-.62-.54-.83,1.75-2.91l2.45-2.24-1.12-.75c-1.12-.75-1.21-.75-2.74.12l-1.58.91-.5-1.08c-.37-.83-.71-1.04-1.41-.83-.5.12-1.41.25-2,.25-.75,0-1.21.33-1.54,1.04-.54,1.16-1.79,1.37-2.58.42-.42-.5-1.5-.58-5.36-.54-3.12.08-5.11-.08-5.65-.42q-.79-.46.25-.5c1,0,3.16-1.21,2.2-1.25-.25,0-.58-.58-.75-1.25-.21-1.08-.37-1.25-1.25-1-.54.12-1.12.04-1.29-.21-.54-.91-1.04.04-1.04,2.08,0,1.12-.17,2.04-.37,2.04-.46,0-1.7-2.33-1.7-3.12,0-1.08-1.16-.91-2.2.25-1.41,1.62-2.37,1.58-2.37-.04,0-.75-.25-1.37-.62-1.5-.79-.33-1.87.54-1.87,1.45,0,.37-.21.96-.42,1.29-.37.54-.46.54-.83,0-.21-.33-.42-1.04-.42-1.54,0-1.16-1.5-1.33-2.29-.25-.46.62-.62.58-1.66-.46-.83-.87-1.25-1-1.66-.67-.42.37-.96.21-2.2-.62-1.41-.91-1.83-1.04-2.58-.62-.62.33-1.04.33-1.41.04-.83-.71-1.08-.12-1.08,2.49,0,2.24-.08,2.45-1.25,3.16-.67.37-1.25.87-1.25,1.04s-.17.33-.42.33c-.21,0-.42-.37-.42-.83s.29-.83.62-.83c.83,0,1.46-1.33,1.46-2.99,0-1.04-.33-1.75-1.21-2.58q-1.16-1.12-.67-3.62c.5-2.41.5-2.49-.54-3.28-.54-.46-1.25-.83-1.5-.83s-.71-.37-1-.87c-.42-.67-.79-.79-1.7-.58-.96.21-1.37.04-2.29-1.04-1.21-1.45-1.37-2.08-.5-2.08,1.21,0,1.21-.96,0-1.95-.67-.54-1.7-1.45-2.29-2.04-.58-.58-1.29-1-1.62-.91-.33.08-1.04-.83-1.7-2.16-.75-1.5-1.45-2.29-1.91-2.29-.54,0-.71.25-.62.96.12.75-.08.91-.96.91-.67,0-1.16-.29-1.29-.71-.12-.42-.42-1.12-.71-1.58-.25-.46-.58-1.58-.75-2.49-.17-.91-.54-2.24-.83-2.99-1.08-2.66.46-1.91,1.91.91.5.91,1.75,1.33,2.33.75.5-.5-3.66-8.73-4.53-9.06-.33-.12-.91.04-1.29.33-.96.83-1.58.46-2.12-1.21-.58-1.7-1.46-1.83-2.95-.42-1.37,1.29-3.41,2.33-4.53,2.33-.62,0-.83-.25-.83-1.04,0-.83.21-1.04,1-1.04.66,0,1.08-.29,1.21-.91.29-1.04-.42-1.7-1.37-1.33-2.49.96-5.2.62-5.53-.67-.21-.87-1.79-1.08-3.41-.46-.54.21-1.25.04-2.16-.62-1.21-.79-1.95-.96-5.07-.96-2.04,0-4.91-.25-6.36-.62-1.41-.33-3.28-.71-4.07-.83-.79-.12-2.74-.42-4.32-.62-1.91-.29-3.08-.29-3.62,0-.54.25-1.04.25-1.62-.04-.42-.21-2.62-.37-4.86-.33-2.54.04-4.41-.12-4.99-.42-.5-.29-1.79-.5-2.91-.5s-2.37-.29-2.79-.62c-1.29-.96-4.66-.79-5.74.29-1.04,1.04-1.83,1.16-7.11,1.16-2.99,0-4.32.17-4.99.62-.58.42-1.37.54-2.24.37-1.7-.33-11.81.62-12.47,1.16-.29.25-.79.33-1.08.21-.71-.25-4.99.29-6.82.87-1,.33-1.58.29-2.45-.17-1.12-.58-1.21-.54-2.37.67-.62.67-1.58,1.29-2.08,1.29-.5.04-1.75.12-2.79.17-3.74.25-8.98,1.08-10.18,1.66-.71.29-2.2.96-3.33,1.46-1.87.79-6.32,3.53-6.86,4.2-.12.17-1,.71-1.95,1.21-1,.5-1.79,1.04-1.79,1.21s-.67.62-1.46,1c-1.54.75-6.82,4.86-8.6,6.78-1.87,2.04-5.7,8.06-6.24,9.89-.29.91-.91,2.41-1.46,3.24-.54.87-.96,1.7-.96,1.87,0,.21-.5,1.08-1.12,2-1.12,1.62-1.46,3.33-2.04,10.43-.33,3.66,1.16,11.97,2.74,15.38.66,1.45,1.41,2.66,1.62,2.66.25,0,.58.5.71,1.16.17.62.79,1.79,1.41,2.58s1.25,1.91,1.37,2.49c.17.58.66,1.5,1.12,2.08.46.58,1.87,2.41,3.16,4.07,1.29,1.62,2.54,2.99,2.74,2.99.25,0,.91.5,1.54,1.16,1.91,1.95,4.53,4.07,5.61,4.57.58.25,1.45,1.04,1.95,1.7,1,1.37,1.95,1.62,2.83.79.42-.46.62-.42,1,.12.75.96,3.91,2.87,4.78,2.87.42,0,1.29.58,1.95,1.25.67.71,1.54,1.25,1.91,1.25.42,0,.91.25,1.08.54.29.46,2.95,1.25,12.39,3.62,1.83.46,3.62.96,3.95,1.12.33.12,1.37.29,2.29.33,4.61.29,11.02.91,11.27,1.12.12.17.79.08,1.5-.12.87-.25,1.5-.21,1.87.12,1.04.83,13.84.91,18.17.08,2.95-.58,3.82-.62,4.49-.21.91.58,4.12.04,6.28-1.04,1.54-.75,2.79-.75,2.79.04,0,.42.42.62,1.21.62.67,0,1.41-.29,1.7-.62.29-.33.87-.62,1.29-.62.91,0,1.25-.5.83-1.21-.25-.42-.54-.42-1.16-.08-.79.42-1.37.25-1.37-.37,0-.37,1.95-1.25,2.83-1.25.46,0,.75.37.79,1.12.12,2.2,2.74,2.83,6.53,1.54,1.54-.54,2.2-.58,2.99-.21.58.25,1.5.46,2.04.46s1.12.21,1.25.42c.12.25.79.42,1.41.42s1.33.21,1.62.5c.29.29,1.62.46,3.28.42,2.16,0,2.99.17,3.78.79.58.42,1.66.79,2.45.79s1.91.25,2.54.54c1.12.58,3.78.62,4.61.08.29-.17.67.25.91,1,.42,1.16.62,1.29,2.29,1.29,1.37,0,1.91.21,2.24.83.25.46.66.83.96.83s.75.37,1.04.87c.5.75.79.83,2.58.58,1.79-.25,2.08-.17,2.49.58.29.62.83.87,1.83.87s1.7.33,2.37,1.04c.58.58,1.45,1.04,2.12,1.04.62,0,1.25.21,1.37.42.37.58,3.74,2.08,4.7,2.08.42,0,1.12.29,1.58.62.42.33,1.16.62,1.62.62s1.29.33,1.87.71c.79.54,1.91.71,5.36.71,2.41,0,4.74-.17,5.2-.37.58-.25.71-.17.58.46-.08.5-.54.83-1.29.91-1.91.25-1.08,1.33,1.04,1.33.46,0,1.29.37,1.87.83.58.46,1.37.83,1.7.83,1.04,0,7.9,1.62,11.1,2.62,3.2,1,8.6,1.21,9.44.37.33-.33.71-.25,1.5.33.58.46,1.54.83,2.16.83s1.83.29,2.62.62c.83.33,2.58.62,3.91.62,1.83,0,2.99.29,4.82,1.25,1.37.71,3.12,1.25,3.95,1.25.87,0,2.12,0,2.79-.04,1.7,0,6.57.91,7.07,1.37.21.17.71.33,1.08.33s.91.25,1.16.58c.25.29,1.58.67,2.95.83,1.37.17,3.16.58,3.95.87,1.66.71,7.9.83,8.31.21.17-.25.67-.33,1.08-.21.46.17,1.08.08,1.41-.21.42-.37.62-.25.83.5.46,1.37,1.66,2.37,3.2,2.7.75.12,1.62.46,1.91.67.37.29,4.7.5,11.85.54,6.61.04,12.43.29,14.01.58,2.95.54,11.93.29,16.63-.42,3.03-.5,2.66-.46,8.44-.37,2.83.04,4.66-.12,5.32-.46.54-.29,2.12-.58,3.49-.58,1.5-.04,3.03-.33,3.82-.79.75-.37,1.91-.71,2.62-.71.67,0,1.25-.17,1.25-.42,0-.21-.37-.42-.83-.42s-.83-.21-.83-.46c0-.29.46-.37,1.37-.17.71.12,2.29.37,3.45.5,2.08.21,2.2.12,4.12-1.66,1.12-1.08,2.2-1.79,2.54-1.66.33.12.71-.08.83-.46.12-.37.62-.67,1.08-.67.62,0,.75.21.54.79-.33,1.12.5,1.5,1.04.46.29-.5.75-.79,1.04-.67.33.12.87-.04,1.21-.37.33-.33.87-.62,1.16-.62.62,0,2-1.46,2-2.12,0-.25.29-.75.71-1.12.62-.67.54-.71-1.16-1.04-2-.42-3.16-1.12-1.79-1.12.5,0,1.21-.37,1.58-.79.42-.46,1.37-1.12,2.16-1.5.79-.37,1.41-.79,1.41-.96,0-.21.66-.58,1.45-.87.79-.29,1.62-.83,1.87-1.25.21-.42.96-1,1.66-1.29.67-.29,1.25-.79,1.25-1.08,0-.33.25-.58.54-.58.25,0,1.12-.67,1.91-1.45.79-.79,1.75-1.46,2.16-1.46.5,0,.79-.37.87-1.12.08-.87.5-1.33,1.7-1.91.83-.37,1.54-.87,1.54-1.12,0-.21.62-1,1.37-1.75.71-.75,1.87-2,2.49-2.79.75-.87,1.54-1.37,2.16-1.37.58,0,1.25-.29,1.5-.58.25-.33.83-.58,1.21-.58.91,0,1.25-.79.79-1.75-.25-.42-.21-.79.04-.96.21-.12.42-.71.42-1.29,0-1.08.79-1.58,3.91-2.41,1.79-.5,2.54-1.5,1.12-1.5-.5,0-.87-.17-.87-.42,0-.21.25-.42.58-.42.62,0,1.25-1.87.83-2.54-.12-.21-.04-.62.17-.91.25-.29,1-1.54,1.66-2.79.83-1.54,1.58-2.33,2.16-2.41.87-.12.91-.04.62,1.58q-.29,1.7.58,1c.96-.83,1.16-3.03.37-3.82-.37-.37-.37-.5,0-.5.29,0,.5-.37.5-.83,0-.54-.29-.83-.79-.83-1.04,0-1.41-1.04-.91-2.66.21-.71.54-1.83.75-2.54.29-1,.62-1.29,1.66-1.37,1.45-.17,1.62.54.42,1.79-.67.67-.67.79-.08,1.7.33.54.62,1.45.62,2.04,0,.62.17,1,.42.83.21-.12.29-.46.17-.75-.33-.87,1.04-3.7,1.7-3.49.37.17.62-.25.79-1.21.29-1.33.37-1.41,1.91-1.41,1.79,0,2.08-.54,1.21-2.16-.37-.71-.25-1.04.62-1.95.58-.62,1.08-1.5,1.08-1.95,0-.42.29-1.16.67-1.62.46-.58.54-1.45.37-3.33-.12-1.37-.08-2.24.04-1.95.12.25.42.5.62.5.5,0,.5-1.54-.04-1.87-.29-.17-.25-.54.04-1.08.29-.62.29-1-.08-1.45-.79-.96-1.5-.71-3.49,1.21-1.58,1.54-1.87,2.08-1.87,3.41,0,1.45-.04,1.54-.71.96-.42-.33-1.08-.75-1.45-.87-.42-.17-.75-.5-.75-.79s-.54-.79-1.25-1.08c-1.37-.62-1.7-1.95-.5-2.24,1.21-.33,1.75.08,1.5,1.08-.29,1.21,1.25,2.74,2.04,1.95.37-.42.33-.62-.25-1.04-.62-.5-.62-.62-.08-1.08.46-.37.5-.71.17-1.33-.37-.67-.29-1.08.42-2.04.5-.67.71-1.25.46-1.41-.96-.58-.37-1.83,1.04-2.29,1.46-.5,2-1.25.87-1.25s-1.21-.91-.21-1.7c1.25-.96,2-1,2.7-.04.54.75.54.79,1.25-1.54.17-.46.33-.42.96.17,1.12,1,2.41.5,2.62-1.04.21-1.5-.33-2.2-1.33-1.66-.5.25-.96.21-1.5-.21-.71-.54-.71-.67-.17-1.04.33-.25,1.04-.33,1.54-.21,1.25.29,1.58-.46.5-1.08l-.91-.46.91-.75c.58-.42.91-1.04.79-1.5-.12-.62-.54-.83-2.41-.91-1.25-.08-2.58-.37-2.91-.67-.87-.75-4.61-1.12-6.44-.62-2,.58-2.7-.04-2.7-2.29,0-1.21.29-2.04.83-2.66,1.04-1.12,1.29-1.12,2.49-.08.54.46,1.12.83,1.33.83.17,0,.33.37.33.83,0,.96.04,1,1.45.33.79-.37,1.04-.79,1.04-1.87,0-1.5.42-1.7,1.46-.71.58.62.58.75,0,1.37-.33.42-.62,1.08-.62,1.5,0,.58.25.67,1.29.46.71-.12,1.58-.25,1.91-.25s.46-.21.33-.42c-.17-.25-.46-.33-.67-.17-.46.25-1.62-.54-1.62-1.12,0-.21.29-.37.62-.37.83,0,.79-.71-.08-1.21-.67-.37-.67-.5-.12-.87.33-.21,1.41-.42,2.41-.42s1.75-.17,1.75-.37-1-.37-2.24-.37c-3.91.04-4.16-.79-.75-2.45,1.29-.62,2.41-1.29,2.49-1.46.08-.17.42-.17.75-.04.62.25,2.66-1.37,2.66-2.08,0-.25-.33-.79-.71-1.21-.62-.71-.62-.83.5-2,1.12-1.16,1.12-1.25.62-3.12-.29-1.04-.67-1.95-.79-2.04-.33-.25-.21-6.11.17-7.27.17-.54.04-1.16-.21-1.5-.42-.5-.42-.62,0-.62.37,0,.46-.37.29-1.25-.17-.67-.08-1.33.17-1.5.29-.17.25-.46-.08-.83-.25-.29-.37-1.25-.29-2.04.17-1.37.08-1.46-1.12-1.46-.67-.04-1.7-.29-2.29-.58l-1.04-.58,1.45-.37c.83-.25,2-.25,2.7-.04,1.58.42,2.33.42,3.12-.08.5-.33.42-.58-.54-1.58-1.21-1.29-1.41-2-.58-2.29.25-.12.08-.25-.42-.25-.75-.04-.96.21-.96.96,0,.58-.17,1.16-.42,1.29-.71.46-2.08-.62-2.08-1.66,0-.67-.33-1.08-1.12-1.37-.91-.33-1-.46-.33-.5.46,0,1.29-.29,1.83-.58.79-.46.87-.58.29-.79-1.04-.42-.79-1.12.42-1.12.75,0,1.58.54,2.7,1.75,1.37,1.54,1.62,1.66,1.87.96.17-.42.08-1.58-.21-2.62-.37-1.46-.37-1.95.04-2.45.42-.54.33-.79-.46-1.41-.83-.71-.91-1-.62-2.12.46-1.54,1.41-2.08,1.41-.79,0,1.08,2.37,3.57,3.78,3.99.54.17,1.25.5,1.54.75.62.5,3.58.75,5.2.46.62-.12,1.33-.58,1.54-1.04.33-.62.29-.71-.17-.54-.79.29-1.54-1.08-1.21-2.24.25-1,.58-1.12,1.7-.54,2.58,1.29,3.66,1.58,4.41,1.12.58-.33.83-.33.96.08.12.25.58.5,1.08.46h.91l-.91-.46c-.54-.25-.96-.79-.96-1.21s-.42-1.12-.91-1.62l-.91-.83h.91c.5,0,.91.17.91.37,0,.42,1.58,1,2.54.91.54-.08.71.37.75,2.33.04,2.62.21,2.91,1.7,3.12.75.08,1.08.42,1.16,1.16.08.58.42,1.21.75,1.37.33.17.58.67.58,1.08,0,.91,1.29,2.12,2.29,2.12.62,0,.71.25.46,1.62-.21,1.29-.08,1.79.71,2.58.5.58,1.29,1.83,1.7,2.79.46,1.04,1.08,1.75,1.5,1.75.71,0,2.74,2,3.87,3.82.87,1.41,2.87,2,7.03,2,1.75,0,3.66.21,4.24.46,1.37.62,3.41-.17,4.2-1.66l.54-1.08.46,1.16c.5,1.25,2.24,1.58,2.7.5.12-.33.54-.62.87-.62.83,0,4.7-1.16,5.7-1.7.42-.21,1-.37,1.33-.37s.91-.29,1.25-.67c.37-.33.83-.5,1.08-.37.75.46,3.45-.75,5.49-2.37,1.08-.87,2.04-1.58,2.16-1.58.54,0,1.95-1.79,3.49-4.32.37-.67,1.12-1.7,1.66-2.37.54-.67.87-1.37.71-1.58-.12-.21.37-1.25,1.08-2.29,1.29-1.79,1.33-2.04,1.37-6.24.08-3.45-.08-4.86-.75-6.57Zm-13.8,10.23c-1.12.42-1.41.29-1.41-.75,0-1.21.5-1.62,1.41-1.25.87.33.87,1.66,0,2Zm-.71-8.44c-.5-.04-.37-.62.17-.79.25-.12.42.04.33.33-.12.25-.33.46-.5.46Zm-3.7-4.2c-.54.46-1.25.71-1.62.58-.37-.08-1.37.21-2.2.71-1.45.87-1.91,1.75-1.08,2.24.83.5.42,1.08-.42.62-.46-.25-.83-.71-.83-1.04,0-.29-.42-.71-.91-.87-.5-.12-1.16-.54-1.5-.83-.29-.33-1-.58-1.58-.58-.62,0-1-.25-1-.62s.37-.62,1.04-.62c1.21,0,2-1.46,1.41-2.54-.29-.54-.12-.75.75-.91,1.5-.29,4.16.79,5.7,2.29,1.29,1.21,1.91,1.45,1.91.75,0-.21.29-.42.62-.42.87,0,.79.37-.29,1.25Zm.46,5.9c-.46.83-.54.83-1,.21s-.54-.58-.96.29c-.46,1.04-2.41,1.5-6.32,1.5-1.46,0-2.08.17-2.24.71-.21.5-.42.54-.71.25-.29-.29-.33-.71-.12-1.04.21-.29.29-1.04.21-1.66-.12-1.33.21-1.45,1.62-.46,1.33.96,4.16,1.16,4.16.33,0-.91,1.29-1.45,2.16-.91.54.37.87.33,1.25-.04.37-.37.29-.5-.42-.5-1.12,0-1.21-.83-.08-1.12.46-.12.83-.37.83-.54s.37-.42.87-.54c.75-.21.83-.08.62.75-.12.54-.08,1.12.17,1.25.54.33.54.5-.04,1.54Zm-1.04,9.19c-.42.37-1.41-.17-1.41-.79,0-.33.25-.58.54-.58.91,0,1.45.79.87,1.37Zm-2.54-1.04c-.96-.17-1.29-2.41-.37-2.41.62,0,1,.58,1.04,1.79.04.5-.21.71-.67.62Zm-.17,12.97c-.21,0-.37-.17-.37-.42,0-.21.29-.42.67-.42.33,0,.5.21.37.42-.12.25-.42.42-.67.42Zm-.21-11.22c-.33,0-.5-.17-.37-.42.12-.21.42-.42.67-.42.21,0,.37.21.37.42,0,.25-.29.42-.67.42Zm-2.58,12.26c-.46-.46.71-1.12,1.45-.83.67.25.67.33-.25.67-.54.21-1.08.29-1.21.17Zm-3.2-10.64c-2.58,0-3.82-.58-2.16-1,.62-.17,1.41-.21,1.75-.04.33.12,1.12.04,1.75-.21.79-.29,1.16-.25,1.41.12.5.75-.33,1.12-2.74,1.12Zm-4.41-17.83c-.67,0-1.21-.17-1.21-.42,0-.5,1.87-1,2.49-.62.75.46.04,1.04-1.29,1.04Zm-.33,8.73c-.83,0-1.21-1.04-.71-1.79.79-1.04,1.08-.87,1.08.54,0,.71-.17,1.25-.37,1.25Zm-2,9.85c-.42-.12-.08-.21.71-.21s1.12.08.75.21c-.42.08-1.08.08-1.46,0Zm.33-21.08c-1.45,0-1.45,1.25-.04,1.75.5.21.5.29-.12.54-.91.37-3.12-.75-4.16-2.12-.71-.96-.71-1,.12-1,.46,0,1.21.21,1.66.5.96.62,1.54.17.87-.67-.75-.87.21-1.29,1.45-.62,1.21.62,1.33,1.62.21,1.62Zm-21.24,3.74c-.62,0-1.25-.29-1.41-.62-.12-.33-.62-.62-1.08-.62-.96,0-1.08-.54-.25-1.21.46-.37,1-.25,2.45.67,2.08,1.21,2.16,1.79.29,1.79Zm-3.33,2.08c-.21,0-.42-.08-.42-.17,0-.12.21-.33.42-.46.25-.12.42-.04.42.17,0,.25-.17.46-.42.46Zm-1.25-4.57c-.21,0-.42-.17-.42-.42,0-.21.21-.42.42-.42.25,0,.42.21.42.42,0,.25-.17.42-.42.42Zm-5.82-2.29c-.46.12-.83.54-.83.87,0,.79-.67.75-1-.04-.12-.33-.62-.62-1.08-.62-.54,0-1-.42-1.29-1.12-.62-1.7-.33-2.41,1.08-2.41,1.04,0,1.25.12,1.12.96-.08.67.08.91.71.91,1.95,0,2.83.96,1.29,1.46Zm-1.58,3.53c-1.16,0-1.41-.46-.58-1.08,1-.79,1.33-.71,1.33.25,0,.54-.29.83-.75.83Zm-6.65-5.11c-.25.42-.58.37-1.5-.08-1.37-.71-1.91-.5-1.91.71,0,1.29-.54.54-.62-.91q-.12-1.25,2.12-1.25c2.24,0,2.66.33,1.91,1.54Zm-.08,5.94c-.21,0-.42-.21-.42-.46,0-.21.21-.29.42-.17.25.12.42.33.42.46,0,.08-.17.17-.42.17Zm-3.66,2.49c-.37,0-.5-.25-.33-.71.17-.42-.04-.96-.58-1.45-.83-.79-1.08-2-.54-2.58.17-.12.67.21,1.16.83,1,1.29,1.21,3.91.29,3.91Zm-2.12-7.73c-.46.29-.96-.91-.62-1.46.12-.21.42-.29.62-.17.5.33.5,1.33,0,1.62Zm-1.29,3.16c-.21,0-.42-.17-.42-.42,0-.21.21-.42.42-.42.25,0,.42.21.42.42,0,.25-.17.42-.42.42Zm-1.33,8.65c-.25-.08-.87-.91-1.33-1.83-.46-.87-1.12-1.83-1.46-2.08-.33-.29-.5-.75-.33-1.21.25-.62.42-.62.96-.17,1.83,1.54,3.58,5.74,2.16,5.28Zm-1.75-8.56c-.83.58-1.08.33-1.08-1.04,0-1.79.37-2.12,1.29-1.29.75.67.62,1.75-.21,2.33Zm-3.24-2.49c-.25-.25-.29-.67-.12-.91.25-.37.37-.37.67.04.42.71,0,1.41-.54.87Zm-1.41,16.63c-1.08-.21-1.37-.58-1.04-1.45.25-.67.33-.67,1.21-.04,1.12.75,1,1.7-.17,1.5Zm-1.5-19.33c-.33-.12-.21-.25.25-.25.46-.04.71.08.54.21-.12.12-.5.17-.79.04Zm-1.58-2.79c-.54-.79-.54-1.25,0-1.25.25,0,.42.42.42.96,0,.75-.08.79-.42.29Zm-1.29,103.09c-.21,0-.37-.29-.37-.62,0-.62.5-.83.96-.37.33.33-.04,1-.58,1Zm-1.21-2.08c-.21,0-.42-.17-.42-.42,0-.21.21-.42.42-.42.25,0,.42.21.42.42,0,.25-.17.42-.42.42Zm-.83-33.88c-.21.12-.42.04-.42-.17,0-.25.21-.46.42-.46.25,0,.42.08.42.17,0,.12-.17.33-.42.46Zm-2.91-62.36c-.29,0-.62-.25-.71-.5-.12-.33.17-.54.71-.54s.83.21.75.54c-.12.25-.46.5-.75.5Zm-.83,95.61c-.21.12-.42-.04-.42-.42s.21-.54.42-.42c.25.12.42.33.42.42s-.17.29-.42.42Zm-.83-91.25c-.79,0-1.08-.46-.58-.96.33-.33,1.41.12,1.41.58,0,.21-.37.37-.83.37Zm-2.12-2.49c-1.33,0-1.54-.46-.54-1.41.75-.75.71-.75,1.54-.42,1.12.42.33,1.83-1,1.83Zm.37,99.27c-.29-.12-.54-.54-.54-.96s.25-.83.54-.91c.29-.12.5.21.5.91s-.21,1.04-.5.96Zm-2,14.01c-.21.12-.42-.04-.42-.37,0-.37.21-.67.42-.67.25,0,.42.17.42.37,0,.25-.17.54-.42.67Zm-.37-111.2c-.21,0-.29-.37-.17-.83s.29-.83.37-.83.17.37.17.83-.17.83-.37.83Zm-8.11,121.8c-.46,0-.62-.79-.25-1.04.21-.12.42.04.42.37,0,.37-.08.67-.17.67Zm-29.14,27.02c-.33,0-.62-.17-.62-.42,0-.21.29-.42.62-.42s.62.21.62.42c0,.25-.29.42-.62.42Zm-1.66-5.82c-.33,0-.62-.17-.62-.37,0-.54.66-.91,1-.58.46.46.25.96-.37.96Zm-1.87,11.97c-1.25.12-3.74,1.37-3.74,1.83,0,.21-.17.33-.42.33-.87,0-.33-1.79.87-2.91,1.12-1,1.46-1.12,2.16-.71.62.37.87.37,1,0,.33-.96,1.45-.62,1.29.42-.08.62-.46.96-1.16,1.04Zm-.83-7.4c-.21,0-.42-.08-.42-.17,0-.12.21-.33.42-.46.25-.12.42-.04.42.17,0,.25-.17.46-.42.46Zm-106.17-6.69c-.75.62-3.91.71-4.49.12-.29-.29-.91-.5-1.45-.5-.58,0-.96-.25-.96-.67,0-.46.25-.58.83-.37.5.17,1.08.08,1.37-.12.58-.46,5.28.21,5.28.75,0,.17-.25.54-.58.79Zm-25.61-33.63c-.21,0-.42-.17-.42-.37,0-.25.21-.54.42-.67.25-.12.42.04.42.37,0,.37-.17.67-.42.67Zm-2.91,1.87c0,.25.5.62,1.08.87.96.33,1,.42.29.83-.46.29-1.12.33-1.7.12-.71-.29-.91-.67-.91-1.83q0-1.45,1.79-1.41t.62.5c-.66.25-1.16.67-1.16.91Zm-5.28-2.33c-1.08,1.62-2.29,2.16-2.83,1.29-.58-.91,1.87-3.7,3.24-3.74.96,0,.91.46-.42,2.45Zm-3.53,3.66c-.29-.12-.08-.21.5-.21s.79.08.54.21c-.29.08-.79.08-1.04,0Zm-4.28,33.42c-1.83-.08-2.29.04-2.29.54,0,.54-.5.67-2.29.67-1.25,0-2.29-.17-2.29-.42,0-.21.42-.42.96-.42.5.04,2.41-.25,4.24-.62,1.83-.33,3.58-.54,3.91-.42,1.12.42,0,.75-2.24.67Zm1.66-20c-.33,0-.62-.17-.62-.42,0-.21.29-.42.62-.42s.62.21.62.42c0,.25-.29.42-.62.42Zm-3.12-6.94c-2.33,1.75-3.33,1.95-3.33.71,0-.54.29-.83.79-.83.46,0,1.33-.46,1.95-1.04,1.08-1,2.66-1.41,2.66-.71,0,.17-.91,1-2.08,1.87Zm-16.21,2.49c-.75.62-.83.62-1.25-.08-.42-.83.12-1.29,1.5-1.29.83,0,.71.54-.25,1.37Zm-.91,14.72c-.29-.12-.08-.21.5-.21s.79.08.54.21c-.29.08-.79.08-1.04,0Zm-53.96-9.02c-.46,0-.83-.17-.83-.42,0-.21.37-.42.83-.42s.83.21.83.42c0,.25-.37.42-.83.42Zm-1.87-2.04c-.62-.04-.5-1,.12-1.21.37-.12.54.08.42.5-.04.42-.29.71-.54.71Zm-9.06-1.66c-.5-.04-.37-.62.17-.79.25-.12.42.04.33.33-.12.25-.33.46-.5.46Zm-46.43-3.16c-.25.12-.54-.04-.67-.42-.33-.79,0-1.25.62-.83.58.33.58.91.04,1.25Zm-2.12-2.95c-.17.17-.71-.08-1.16-.54l-.87-.87,1.04-.42c1.21-.46,1.04-1.25-.21-1.25-.91,0-1.45-.67-.83-1.04.54-.33,2.16.17,1.87.62-.12.17.17.42.62.54.75.21.79.33.33,1.41-.25.62-.62,1.33-.79,1.54Zm.5,3.58c-.71,0-1.29-.75-1.29-1.7,0-.21.29-.37.62-.37s.62.29.62.62.21.62.42.62c.25,0,.42.21.42.42,0,.25-.37.42-.79.42Zm.46,4.74c-.17.08-.54-.17-.83-.58-.5-.83,0-1.5.75-1.04.5.29.54,1.33.08,1.62Zm-4.2-.58c-.37,0-.91.21-1.21.5-.37.37-.62.37-1,0-.37-.37-.33-.5.21-.5.37,0,.71-.25.71-.58,0-.91.71-1.16,1.66-.67.96.5.75,1.25-.37,1.25Zm-.96-12.3c-.58-.37.08-.96.75-.71.5.17.54.33.12.58-.29.17-.71.21-.87.12Zm-.96,2.33c-.33,0-.62-.17-.62-.37,0-.54.67-.91,1-.58.46.46.25.96-.37.96Zm-1.62,8.31c-.54,0-1.46-.5-2.04-1.08-.58-.58-1.58-1.21-2.24-1.37l-1.16-.33,1.16-.33c1.87-.5,5.2,1.29,5.28,2.83,0,.17-.46.29-1,.29Zm-3.16-11.64c-.21,0-.42-.17-.42-.42,0-.21.21-.42.42-.42.25,0,.42.21.42.42,0,.25-.17.42-.42.42Zm-3.49,13.63c-2.16.33-2.54.29-3.2-.37-.46-.46-.79-1.08-.79-1.41,0-.71-1.04-.83-1.46-.21-.37.62-1.7.5-2.29-.17-.25-.33-.87-.67-1.37-.75-.67-.08-.91-.42-.91-1.16,0-.71-.29-1.08-.83-1.16-1.12-.21-2.7-1.75-2.7-2.58,0-.37-.46-.91-1.04-1.16-.83-.37-1.04-.79-1.04-2.12,0-.87-.29-2.29-.62-3.08-.33-.83-.62-1.95-.58-2.45,0-.54.12-.71.25-.46.08.29.75,1.12,1.41,1.83,1.62,1.75,2.58,3.58,2.04,3.91-.25.12-.42.71-.42,1.29,0,.75.21,1,.83,1,.79,0,2.04,1.04,3.49,2.91.25.33,1.21,1.29,2.08,2.08l1.58,1.45-.29-1.66c-.12-.87-.58-1.83-.91-2.08-.5-.37-.58-.87-.37-2,.17-1,.12-1.54-.17-1.54-.87,0-3.74-2.2-3.74-2.87,0-.37-.21-.91-.46-1.16-.29-.29-.08-.58.87-.87,1.29-.46,1.33-.42,2.58,1.58,1.29,2.04,1.54,2.24,2.91,2.12.96-.12,1.79,1.5,1.21,2.2-.25.33-.37.87-.21,1.25.33.83,1.83.87,1.83.04,0-.33.21-1,.5-1.41.46-.79.54-.75,1.25.42.5.83,1.08,1.21,1.79,1.21.58,0,1.04.21,1.04.42,0,.25-.33.42-.75.42-.46,0-1,.46-1.25,1.04-.46,1-.33,1.21,1.21,2.74.96.91,1.58,1.83,1.37,2.04-.21.17-1.45.5-2.83.75Zm-2.33-17.38c-.21,0-.42-.29-.42-.62s.21-.62.42-.62c.25,0,.42.29.42.62s-.17.62-.42.62Zm-1.25,4.99c-.21,0-.42-.29-.42-.67,0-.33.21-.5.42-.37.25.12.42.42.42.67,0,.21-.17.37-.42.37Zm-1.87-3.74c-.33,0-.62-.17-.62-.42,0-.21.29-.42.62-.42s.62.21.62.42c0,.25-.29.42-.62.42Zm-2.74.25c-.71.42-1.5-.54-.91-1.12.5-.5,1.37-.17,1.37.46,0,.21-.21.5-.46.67Zm-4.95,1c-.21,0-.42-.25-.42-.58s.21-.75.42-.87c.25-.12.42.12.42.58,0,.5-.17.87-.42.87Zm-4.57-3.53c-.21.12-.42.04-.42-.17,0-.25.21-.46.42-.46.25,0,.42.08.42.17,0,.12-.17.33-.42.46Z"/></svg>