<?xml version="1.0" encoding="utf-8"?>
<!-- Generator: Adobe Illustrator 27.5.0, SVG Export Plug-In . SVG Version: 6.00 Build 0)  -->
<svg version="1.1" id="Ebene_1" xmlns="http://www.w3.org/2000/svg" xmlns:xlink="http://www.w3.org/1999/xlink" x="0px" y="0px"
	 viewBox="0 0 191 495" style="enable-background:new 0 0 191 495;" xml:space="preserve">
<style type="text/css">
	.st0{fill:#B1CBF0;}
</style>
<g>
	<path class="st0" d="M46.9,408.4c-0.1,0.2-0.1,0.8,0,1c0.1,0.3,0.2,0.1,0.2-0.5C47.1,408.4,47,408.2,46.9,408.4z"/>
	<path class="st0" d="M97.2,280.9c-0.3-0.5-0.5-0.5-1.2,0.1c-0.3,0.4-0.8,0.7-1.1,0.8c-0.7,0.3,0.1,1.2,0.9,1.2
		S97.6,281.6,97.2,280.9L97.2,280.9z"/>
	<path class="st0" d="M90.4,235.9c0-0.2-0.5-0.3-1-0.3c-1.2,0-1.5,1.1-0.4,1.5C89.6,237.4,90.4,236.7,90.4,235.9L90.4,235.9z"/>
	<path class="st0" d="M70,222.3c-0.9,0-1.7,0.2-1.7,0.4c0,0.2,0.6,0.4,1.4,0.4s1.6-0.2,1.7-0.4C71.6,222.4,70.9,222.3,70,222.3z"/>
	<path class="st0" d="M67.3,218.9c-0.2-0.2-0.5-0.2-0.8,0.1c-0.5,0.5,0.2,1.7,1,1.7c0.5,0,0.7-0.3,0.5-0.8
		C67.8,219.5,67.5,219.1,67.3,218.9L67.3,218.9z"/>
	<path class="st0" d="M174.8,119.8c0-1.3-1-1.2-1.2,0.2c-0.1,0.6,0.1,0.9,0.5,0.9C174.6,120.9,174.8,120.5,174.8,119.8L174.8,119.8z
		"/>
	<path class="st0" d="M131.7,106.3c-0.1-0.2-0.5-0.2-0.9-0.1c-0.5,0.2-0.5,0.4-0.1,0.6C131.3,107.1,132,106.8,131.7,106.3
		L131.7,106.3z"/>
	<path class="st0" d="M173.9,99.8c-2-0.6-5.8-0.2-7,0.7c-0.7,0.5-1.8,0.8-2.4,0.8c-0.6,0-1.1,0.2-1.1,0.4c0,0.2-0.3,0.4-0.7,0.4
		c-1.2,0-3.2,1.4-3.4,2.5c-0.1,0.6-0.5,1.5-0.8,2s-0.5,1.2-0.4,1.5c0.1,0.3-0.1,0.9-0.4,1.4c-0.4,0.5-0.5,0.9-0.2,0.9
		s0.5,0.2,0.5,0.4c0,0.2-0.4,0.4-0.8,0.4c-0.7,0-0.9,0.4-1,1.8c-0.1,1,0.1,2.2,0.3,2.8c0.3,0.6,0.6,1.8,0.8,2.8s0.7,2.3,1.3,3.1
		c0.5,0.7,1.4,2,1.9,2.8c2,2.9,7.1,6.1,9.8,6.2c0.5,0,1.4,0.3,1.9,0.6c0.5,0.3,2.2,0.9,3.8,1.2c2.7,0.6,2.9,0.6,4.2-0.2
		c1.6-1,2-1.9,2-5c0-1.4,0.3-2.7,0.8-3.4c1-1.5,1.2-7.5,0.2-7.7c-0.4-0.1-1.1,0.6-2,2.1c-1.7,2.8-2.3,3.3-4.5,4.2
		c-1.6,0.6-1.8,0.6-2.7,0c-2.1-1.5-2.4-1.9-1.9-2.5s0.1-4.4-0.8-7.1c-0.8-2.3-0.5-3.4,1.5-5.4l1.4-1.4l0.5,1.4
		c0.5,1.2,0.5,1.4-0.1,1.9c-0.4,0.2-0.6,0.8-0.6,1.2c0,0.7,0.1,0.6,0.5-0.2c0.2-0.5,0.8-0.9,1.3-0.9c1,0.1,2.3,0.9,2.3,1.6
		c0,0.3,0.6,0.8,1.4,1.1c0.8,0.3,1.8,1,2.3,1.5l0.9,1v-1.3c0-2.2-0.9-5.3-1.7-6.1c-0.4-0.4-0.8-1-0.8-1.4
		C180.2,104.8,175.5,100.2,173.9,99.8L173.9,99.8z M162.6,110.5c-0.4-1.4,0.7-1.8,1.5-0.8c0.6,0.7,0.9,1.5,0.9,2.9
		c0,1.1,0.3,2.6,0.7,3.3c0.4,0.8,0.7,1.6,0.7,1.8c0,0.2,0.7,1.3,1.6,2.3c0.9,1.1,1.7,2.5,1.9,3.1c0.3,1.4-0.6,2.9-1.4,2.4
		c-0.4-0.2-0.4-0.4-0.1-0.6c0.8-0.5,0.5-2.2-0.6-2.9c-0.5-0.4-1.2-0.6-1.4-0.5c-0.7,0.5-1.9-0.1-2.4-1.2c-0.3-0.5-0.8-1-1.3-1
		s-0.8-0.5-1-1.5c-0.3-1.7,0.1-5.1,0.7-5.9C162.6,111.6,162.7,111,162.6,110.5L162.6,110.5z M169.4,111.8c0.3-0.1,0.5,0.2,0.5,0.5
		s-0.3,0.6-0.5,0.5c-0.3,0-0.5-0.3-0.5-0.5S169.1,111.9,169.4,111.8z M170.5,126.3c0.4,0,0.5,0.1,0.2,0.2c-0.3,0.2-0.7,0.1-0.8,0
		C169.7,126.4,170,126.3,170.5,126.3z"/>
	<path class="st0" d="M85.4,99.2c0-0.2-0.5-0.5-1.1-0.5s-1,0.3-0.9,0.5c0.1,0.2,0.3,0.4,0.5,0.4c0.1,0,0.6,0,0.9,0
		S85.4,99.4,85.4,99.2L85.4,99.2z"/>
	<path class="st0" d="M14.8,94.1c-0.3-0.3-1.5-0.3-1.9,0c-0.5,0.5,0.6,1.3,1.4,1.1S15.3,94.6,14.8,94.1L14.8,94.1z"/>
	<path class="st0" d="M84.3,94.2c-0.2-0.3-0.4-0.3-0.7,0c-0.5,0.6-0.1,1.1,0.5,0.7C84.3,94.8,84.4,94.4,84.3,94.2L84.3,94.2z"/>
	<path class="st0" d="M131.1,91.7c-0.2,0-0.4,0.1-0.4,0.2c0,0.2,0.2,0.4,0.4,0.5c0.2,0.1,0.4,0,0.4-0.2S131.3,91.8,131.1,91.7z"/>
	<path class="st0" d="M13.2,89.6c-0.3-0.5-2.1-0.4-2.4-0.1c-0.2,0.2,0.2,0.7,0.8,1c0.9,0.5,1.1,0.5,1.4,0
		C13.2,90.2,13.3,89.8,13.2,89.6L13.2,89.6z"/>
	<path class="st0" d="M11.2,86.8c-0.1,0-0.3,0.2-0.4,0.4c-0.1,0.2,0,0.4,0.4,0.4s0.5-0.2,0.4-0.4C11.5,86.9,11.3,86.8,11.2,86.8z"/>
	<path class="st0" d="M34.7,69.2c-0.2,0.1-0.3,0.4-0.1,0.6c0.1,0.2,0.4,0.3,0.6,0.1c0.2-0.1,0.3-0.4,0.1-0.6
		C35.1,69.1,34.8,69,34.7,69.2z"/>
	<path class="st0" d="M140.3,67.4c0-1.1-2.1-0.6-3.7,0.9c-0.8,0.8-1.9,1.5-2.4,1.5s-1.3,0.4-1.9,0.8c-0.6,0.4-1.3,0.8-1.6,0.8
		c-0.4,0-0.5,0.3-0.3,1c0.2,0.5,0.2,1.1,0,1.2c-0.4,0.5-1.3-0.5-1.1-1.2c0.2-0.4,0.1-0.6-0.2-0.6s-0.5,0.3-0.5,0.6s-0.2,0.6-0.4,0.6
		c-0.2,0-0.4,0.3-0.4,0.6c0,0.4-0.3,0.5-0.8,0.4c-0.9-0.2-2.5,0.9-2.5,1.8c0,0.3-0.4,0.8-1,1.2c-0.8,0.5-1,1-1,2.2
		c0,0.8-0.1,2.2-0.2,3.1c-0.1,0.8-0.1,2.2,0,3c0.3,1.3,0.5,1.5,1.5,1.5c0.6,0,1.3-0.2,1.4-0.4c0.3-0.5,1.7,1.1,1.9,2.3
		c0.1,0.5,0.6,0.9,1.4,1c1.2,0.3,1.2,0.3,0.2,0.5c-0.6,0.1-1.3,0-1.6-0.2c-0.4-0.3-0.5-0.2-0.5,0.4c0,1.2,2.3,1.2,3.7,0.2
		c0.6-0.4,1.4-0.6,1.7-0.5c0.9,0.4,2.1,1.9,1.9,2.7c-0.2,1,2,3.3,2.8,2.8c0.4-0.2,1.1-0.1,1.8,0.1c0.6,0.3,1.7,0.4,2.5,0.4
		c0.9-0.1,1.4,0.1,1.6,0.5c0.4,1.1,4,0.8,5.5-0.4c0.7-0.5,1.5-1,1.8-1c0.8,0,3-2.3,3.9-4.1c1-2.1,0.7-2.5-1.5-2.3
		c-2.3,0.3-4.4,0.3-4.7,0c-0.2-0.1,0.1-0.7,0.5-1.4c1.1-1.5,0.7-3-0.8-3.8c-0.7-0.3-1.5-1.3-1.9-2.1c-0.4-0.8-1.3-2-1.9-2.5
		c-1.1-1-1.2-1-0.5-1.8c0.4-0.5,1.2-0.8,1.7-0.8c1.3,0,2.7-0.8,2.5-1.4c-0.3-0.9,0.5-2.4,1.3-2.4c0.4,0,0.9-0.1,1-0.3
		c0.4-0.3-1.3-2.2-2-2.2c-0.3,0-0.8-0.5-1.3-1.1c-0.7-1-1.1-1.1-3.4-1.1C140.9,68,140.3,67.8,140.3,67.4L140.3,67.4z"/>
	<path class="st0" d="M10.8,59.6c-0.9-0.4-1-0.3-1.5,1.2c-0.2,1-0.2,1.7,0,1.7s0.4,0.3,0.4,0.7s0.3,0.5,0.5,0.4
		c0.2-0.1,0.3-0.5,0.2-0.8s0.1-0.8,0.4-1C11.5,61.2,11.5,59.8,10.8,59.6L10.8,59.6z"/>
	<path class="st0" d="M13,58.2c0.1-0.6-0.1-0.9-0.5-0.9c-0.5,0-0.7,0.4-0.7,1.1C11.8,59.7,12.8,59.5,13,58.2L13,58.2z"/>
	<path class="st0" d="M8.9,56.4c-0.2,0-0.4,0.4-0.4,0.8S8.7,58,8.9,58s0.4-0.3,0.4-0.8C9.3,56.8,9.1,56.4,8.9,56.4z"/>
	<path class="st0" d="M87.9,40c0-0.4-0.4-0.6-0.9-0.7c-1,0-0.8,1,0.2,1.2C87.6,40.6,87.9,40.4,87.9,40L87.9,40z"/>
	<path class="st0" d="M98.4,34.2c-0.2-0.5-0.4-0.5-1.8,0.2c-0.8,0.4-1.8,0.8-2.2,0.8s-1.8,1-3,2.2c-2.6,2.5-4,5.9-3.7,8.7
		c0.2,1,0.1,1.6-0.2,1.6S87,47.9,87,48.1c0,0.7,1.6,0.4,3.2-0.6c0.9-0.5,2-1,2.4-1.1c1-0.3,2.7-2.6,4.6-6.4
		C98.6,37.3,98.9,35.6,98.4,34.2L98.4,34.2z"/>
	<path class="st0" d="M91.3,34c-0.1-0.6-0.5-0.8-1.4-0.8c-0.6,0-1.3,0.2-1.4,0.4s-0.4,0.3-0.6,0.2c-0.7-0.4-0.7,0.4-0.2,1.7
		s0.6,1.3,2,0.8C91.3,35.8,91.6,35.3,91.3,34L91.3,34z"/>
	<path class="st0" d="M111.2,32c-0.9-0.4-1.4-0.4-2.4,0.3c-0.8,0.3-2,0.9-2.7,1.1c-2.1,0.7-4.1,3.4-4.6,5.9c-0.1,0.9-0.7,2-1.2,2.4
		s-1,1.1-1,1.3c0,0.3-0.3,1-0.8,1.5c-0.4,0.5-1,2-1.3,3.2c-0.5,2-0.5,2.4,0.2,4.2c0.4,1.1,0.8,2.4,0.9,3c0.1,1.5,0.9,3.3,1.4,3.3
		c0.7,0,1.4,1.9,0.9,2.6c-0.3,0.3-0.3,1.1,0,2.3c0.7,3.3,1.4,4,3.2,2.9c0.7-0.4,1-0.3,2.1,0.7c1.1,0.9,1.7,1.1,3.3,1
		c1-0.1,2.1-0.3,2.4-0.5c0.3-0.2,1.1-0.4,1.9-0.4c1.4,0,3.3-0.8,4.7-2c1.7-1.3,3.4-3.4,3.6-4.3c0.2-0.5,0.7-1,1.6-1.2
		c1.3-0.4,1.4-0.4,0.6-1.2c-0.4-0.4-1.2-0.8-1.7-0.8c-1,0-1,0.1-0.8,1.2c0.3,1.5-0.1,1.5-1.9,0c-0.9-0.8-1.5-1.1-1.8-0.8
		c-0.2,0.2-0.8,0.4-1.2,0.4s-1,0.3-1.3,0.7c-0.7,0.9-1.8,0.4-1.9-0.9c0-0.5-0.1-1.2-0.1-1.5c0-0.3,0.3-0.6,0.5-0.7
		c0.3-0.1,0.5,0.2,0.5,0.7c0,1.1,0.8,1.6,1.1,0.7c0.2-0.5,0.5-0.7,1.2-0.5c0.9,0.3,1,0.2,0.9-1.2c-0.1-0.9-0.4-1.8-0.9-2.1
		c-0.6-0.5-0.6-0.6-0.1-0.6c1,0,1.7-1.1,1-1.6c-0.6-0.5-2.4-0.2-2.4,0.3c0,0.7-2.5,2.1-3.3,1.9c-0.8-0.3-1.2-1.9-0.4-1.9
		c0.2,0,0.4,0.2,0.4,0.4c0,0.2,0.3,0.4,0.6,0.4s0.6-0.3,0.6-0.6c0-0.4-0.3-1.4-0.6-2.2c-0.3-0.8-0.6-1.6-0.6-1.6s0.7-0.2,1.5-0.3
		c1-0.2,1.7-0.1,2.2,0.3c0.5,0.5,0.7,0.5,1.5-0.1c1.3-1.1,0.6-1.7-1.3-1.2c-1.7,0.5-2.7,0.3-2.7-0.6c0-0.5,1.7-1.5,2.7-1.5
		c0.3,0,0.6,0.3,0.8,0.6c0.1,0.4,0.8,0.6,1.8,0.6c0.9,0,1.8,0.2,2.1,0.5c0.3,0.3,0.6,0.3,1.1-0.1c0.6-0.5,0.8-0.5,1.1,0
		c0.6,0.9,0.2,1.4-1,1.4c-0.7,0-1.5,0.3-1.8,0.8c-0.5,0.7-0.5,0.9,0.3,1.5l0.9,0.7l-1,0.7c-0.6,0.4-0.8,0.9-0.7,1.3
		c0.4,0.9,2.1,0.8,2.7-0.2c0.3-0.6,0.9-0.8,2.1-0.8c0.9,0,2.1-0.2,2.7-0.4c0.9-0.3,1.1-0.7,1.1-2c0-1.7-1.9-4.6-3.4-5.1
		c-0.4-0.2-0.8-0.8-0.8-1.2s-0.1-0.8-0.4-0.8s-2.1-1.6-4.2-3.5C114.1,33.9,112.5,32.6,111.2,32L111.2,32z M102.4,46.1
		c0.6-1.1,1.5-1.1,2.2,0c0.7,1,0.3,2.6-0.7,2.8S101.8,47.1,102.4,46.1L102.4,46.1z M107.6,47.7c0.2,0,0.4,0.2,0.5,0.4
		c0.1,0.2,0,0.4-0.2,0.4c-0.3,0-0.5-0.2-0.5-0.4C107.4,47.9,107.5,47.7,107.6,47.7z M108.5,51c0.3-0.3,0.5-0.2,0.7,0.3
		c0.2,0.4,0.1,0.9-0.1,1.1c-0.3,0.3-0.5,0.2-0.7-0.3C108.2,51.7,108.3,51.2,108.5,51z"/>
	<path class="st0" d="M87.9,30.9c0-0.4-0.2-0.7-0.5-0.6c-0.2,0-0.4,0.5-0.4,1.1s0.3,1,0.5,0.9s0.4-0.3,0.4-0.5
		C87.9,31.7,87.9,31.2,87.9,30.9L87.9,30.9z"/>
	<path class="st0" d="M24.2,30.2c-0.7-0.5-1.1-0.5-1.4,0.1c-0.1,0.2,0.1,0.6,0.5,0.8c0.6,0.3,0.7,0.5,0.2,0.9
		c-0.7,0.7-0.6,1.1,0.2,1C24.7,32.9,25,30.7,24.2,30.2L24.2,30.2z"/>
	<path class="st0" d="M89.7,28.1c-0.1,0.2-0.1,0.8,0,1.2c0.1,0.4,0.2,0.2,0.2-0.5C89.9,28.1,89.8,27.8,89.7,28.1z"/>
	<path class="st0" d="M89.4,10.7c-0.5-0.2-2.8-0.3-4.6-0.3c-4.7,0.1-6,0.6-9.1,3.5c-3.7,3.5-5.2,5.9-5.2,8.4c0,1.1-0.3,3.1-0.5,4.6
		c-0.4,2.6-0.1,5.3,0.9,6.4c0.2,0.2,0.1,0.8-0.1,1.3c-0.4,0.8-0.3,1.3,0.2,2.5c0.4,0.8,0.7,1.8,0.7,2.2s0.5,1.2,1.2,1.8
		c0.6,0.6,1.2,1.5,1.2,1.9c0,1.2,0.7,1.5,1.6,0.7c0.8-0.7,2.1-0.9,2.1-0.2c0,0.3-0.3,0.6-0.7,0.8c-0.8,0.5,0,1.2,0.9,0.8
		c0.7-0.2,0.9-1.8,0.3-2c-0.2-0.1-0.5-0.6-0.7-1.3c-0.2-0.8-0.2-1.1,0.3-1.1c0.4,0,0.8,0.2,0.9,0.4c0.4,0.9,1.4,0.4,1.4-0.6
		c0-0.7,0.2-1,0.8-1c1.2,0,1.5,0.8,0.5,1.1c-0.7,0.2-0.8,0.4-0.5,1s0.3,0.9-0.2,1.4c-0.4,0.4-0.5,0.9-0.4,1.1
		c0.5,0.7,1.5,0.5,1.8-0.3c0.2-0.4,0.8-1.2,1.4-1.8c1-1,1.1-1.3,0.9-3.1c-0.2-1.6-0.4-2-1-2c-1,0-1.4-0.7-0.5-1.2
		c0.6-0.3,0.6-0.5,0.1-1.1c-0.5-0.6-0.5-0.8,0.3-1.3c0.9-0.6,0.9-0.7-0.6-2.4c-0.5-0.7-0.2-1.1,0.8-1.1c0.5,0,0.8-0.4,1-1.2
		c0.3-1.3,0.8-1.6,1.2-0.9c0.2,0.2,0.8,0.2,1.5-0.1c0.9-0.3,1.2-0.7,1.2-1.5v-1l1.2,1.3c1.3,1.5,2.8,1.7,3.1,0.5
		c0.1-0.4,0.4-0.8,0.6-0.8c0.7,0,0.9,2,0.2,2.7c-0.3,0.3-0.5,0.9-0.3,1.3c0.3,0.7,0.4,0.7,1.3-0.2c0.5-0.5,1-1.2,1-1.5
		c0-0.9,1.4-1.5,2-0.9c1.5,1.5,1.5-5.5,0-7.5c-0.6-0.7-0.8-1.4-0.6-2.1c0.2-0.9-0.2-1.4-2.4-3.5c-1.5-1.4-3-2.5-3.4-2.5
		c-0.5,0-0.8-0.2-0.8-0.4C90.4,11.2,89.9,10.9,89.4,10.7L89.4,10.7z"/>
	<path class="st0" d="M143.4,451.8c-0.4,0-0.7,0.2-0.7,0.4c0,0.2,0.2,0.4,0.4,0.4c0.3,0,0.6-0.2,0.7-0.4
		C143.9,451.9,143.7,451.8,143.4,451.8z"/>
	<path class="st0" d="M38,7.4c-1.2-0.7-1.8-0.8-4.4-1.3c-1.2,0.2-2.4,0.3-2.4,0.4c-0.1,0-0.6-0.1-1.3-0.3c-1.6-0.5-5.7,0.9-8.7,2.9
		c-1.3,0.9-2.7,1.8-3.2,2.1s-1,0.9-1,1.3c0,0.6-0.3,0.9-1,1.1c-0.5,0.1-1,0.6-1,0.9s-0.8,1.4-1.8,2.5s-2.1,2.7-2.5,3.5
		c-0.4,0.9-0.9,1.6-1.1,1.6s-0.5,0.8-0.7,1.8c-0.1,1-0.6,2.6-1.1,3.5c-0.4,0.9-0.9,2.5-1,3.7c-0.1,1.1-0.5,2.6-0.8,3.2
		c-0.3,0.6-0.8,2.2-1,3.5c-0.3,1.3-0.6,3.3-0.8,4.5c-0.2,1.1-0.7,3.4-1.2,5c-0.7,2.6-0.8,3.2-0.3,6.6c0.4,3.2,0.6,3.7,1.4,4
		s1.1,0.1,1.8-1c0.5-0.8,0.9-1.7,0.9-2c0-0.4,0.4-1.1,0.8-1.7c0.5-0.6,0.7-1.2,0.5-1.5c-0.3-0.6,0-2,0.5-2.8c0.2-0.3,0.5-1.6,0.6-3
		c0.2-1.8,0.5-2.9,1.2-3.7c0.5-0.6,1-1.6,1-2.1c0-1,0.3-1.2,2.1-1.5c0.6-0.1,1.1-0.2,1.2-0.2c0.1-0.1-0.1-0.4-0.3-0.9
		c-0.3-0.7-0.3-0.9,0.7-1.2c1-0.4,1.1-0.6,0.9-1.9l-0.2-1.5l1.4,0.2c1.6,0.2,2.7-0.5,2.7-1.8c0-0.4,0.2-0.9,0.4-1
		c0.2-0.2,0.4-0.6,0.4-1c0-0.9,2-3.1,2.6-2.9c0.3,0.1,1,1.2,1.7,2.4l1.2,2.3l-0.9,2c-0.5,1-0.9,2.1-0.9,2.3c0,0.9-0.8,0.5-0.9-0.5
		c-0.1-0.6-0.4-0.9-1-0.9c-0.5,0-1.2-0.2-1.5-0.5c-0.5-0.4-0.7-0.4-1.1,0.3c-0.2,0.5-0.8,0.9-1.2,0.9c-1,0-1.1,1.1-0.1,2.8
		c0.7,1.4,0.5,2.6-0.7,2.6c-0.4,0-1.1,0.5-1.5,1.1l-0.8,1.2l-0.5-1.1c-0.4-1.1-0.5-1.2-1.1-0.4c-0.8,1-1.5,5.5-0.8,5.5
		c0.3,0,0.5,0.3,0.5,0.7c-0.1,0.5-0.2,0.5-0.5,0c-0.6-1-1.2-0.9-1.2,0.3c0,0.7,0.4,1.3,1.3,1.9c0.7,0.5,1.1,0.9,0.8,0.9
		c-0.8,0-2.2,2.5-2.2,3.9c0,1.3,0.3,1.3,2.2,0.5c0.6-0.3,0.8-0.1,0.8,0.7c0,0.5,0.3,1.4,0.7,1.9s0.6,1.3,0.5,1.7
		c-0.1,0.6-0.2,0.5-0.2-0.2c-0.1-1.5-1.6-1.2-1.8,0.3c-0.1,0.7,0,1.2,0.3,1.2c0.8,0,1.1,2.5,0.3,3.4c-0.5,0.5-0.6,0.8-0.2,1.2
		c0.7,0.7,0.6,2.4-0.1,3c-0.4,0.3-0.7,1-0.9,1.8c-0.2,1.2-0.1,1.4,0.7,1.5s1,0.4,1.1,1.9c0,1.2,0.5,1.7,1.4,1.5
		c1.7-0.4,1.9-0.5,1.7-1.2c-0.1-0.3,0.1-0.7,0.4-0.8c0.4-0.2,0.7-0.1,0.7,0.1c0,0.4,1.9,1,2.9,0.9c0.8-0.1,1.4,1,1,1.7
		c-0.1,0.2-0.6,0.1-1-0.3c-1.1-1-2.1-0.6-2.6,1c-0.2,1-0.5,1.3-0.7,0.8c-0.3-0.5-0.5-0.5-1.3,0c-0.5,0.3-0.9,0.4-1,0.2
		c-0.4-1.4-0.8-1.5-2.2-0.7c-1.3,0.7-1.4,1-1.5,3.2c0,1.5-0.3,2.6-0.7,3c-0.9,0.8-0.8,1.3,0.2,1.5c0.7,0.1,0.9,0.4,0.7,1.1
		c-0.3,1.1,0.7,1.6,1.9,0.9c1-0.7,1.8,0,1.3,1.1c-0.3,0.4-0.5,1.5-0.5,2.3c-0.1,1.3,0.1,1.6,0.7,1.6c0.4,0,0.9,0.2,1,0.4
		c0.3,0.5-1.3,3.4-2,3.7c-0.2,0.1,0.2,0.7,0.8,1.3c1.2,1.3,0.8,2.1-0.7,1.1c-1.2-0.8-3.3-1-4.1-0.5c-0.3,0.2-0.9,0.4-1.4,0.4
		c-1.1,0-1.3,1.3-0.2,1.6c0.5,0.1,0.8,0.6,0.8,1.1c0,0.7-0.3,0.9-1.3,0.9s-1.2,0.1-0.8,0.5c0.8,0.8,0.7,1.1-0.5,1.6
		c-0.6,0.2-1.1,0.7-1.1,1.1s-0.1,2.8-0.1,5.3c-0.1,3.5-0.3,4.9-0.9,6c-0.4,0.8-0.9,1.9-0.9,2.5c-0.6,4.9-0.8,6.2-1.1,6.6
		c-0.3,0.4-0.2,1,0.1,1.8c0.4,1.1,0.4,1.4-0.1,1.8c-1,0.8-1.6,3.9-0.9,4.5c0.4,0.3,0.6,1.3,0.6,3.1c0,1.4,0.2,2.8,0.4,2.9
		c0.6,0.4,0.5,2.1-0.1,3.1c-0.4,0.6-0.4,1,0.1,1.5c0.4,0.4,1.1,2.3,1.8,4.3c0.6,2,1.7,4.9,2.4,6.6c0.7,1.6,1.2,3.4,1.2,3.8
		c0,0.5,0.2,0.9,0.4,1c0.6,0.2,4.2,5.7,4.2,6.5c0,1.9,1.5,4.3,3.8,6.1c1.3,1.1,2.6,1.9,2.8,1.9c0.8,0,2.9,1.3,2.9,1.8
		c0,0.3,0.5,1,1.1,1.5l1.2,0.9l-1.3,0.5l-1.3,0.5l0.9,1.4c0.9,1.3,2.5,2.2,4.7,2.9c1.5,0.4,3,2.2,4.4,5.1c0.8,1.6,1.7,2.9,2.2,3.1
		c0.8,0.4,2.8,3.5,2.4,3.9c-0.5,0.5,0.7,2.4,1.5,2.4c0.6,0,0.8,0.3,0.8,0.9c0,1,1.1,2.4,1.9,2.4s3.1,2.5,3.8,4.2
		c0.3,0.8,1,2,1.5,2.7s1,1.6,1.2,2c0.2,0.5,0.6,0.7,1.1,0.5c0.5-0.1,1.1,0.2,1.9,0.8c0.7,0.5,1.5,0.9,1.7,0.8s0.7,0.1,1,0.5
		c0.3,0.3,0.8,0.6,1.1,0.6s1.5,0.7,2.5,1.5s2.6,1.7,3.5,2c1.6,0.5,1.8,0.7,1.2,1.4c-0.2,0.3-0.2,0.9,0,1.4c0.6,1.4,2.6,1.2,2.9-0.3
		c0.3-1.2,1.2-1.5,3-0.9c1.1,0.4,1.4,0.4,2.2-0.4c0.8-0.8,0.9-0.8,1.3-0.1c0.4,0.7,1.1,0.8,4.9,0.9c3.9,0.2,4.7,0.3,6.3,1.3
		c2.3,1.3,2.3,2.3,0.1,2.7c-1.8,0.3-2.1,0.8-1,1.2c1,0.4,1.7,0.3,2.4-0.5c0.6-0.5,0.9-0.6,1.5-0.2c0.4,0.3,1,0.5,1.2,0.5
		s0.9,0.4,1.4,1c0.5,0.5,1.4,1,2,1s1,0.2,1,0.6c0,1.1,1.6,2.3,2.6,2.1c1.4-0.3,2,0.4,2.2,2.9c0.1,1.3,0.4,2.5,0.6,2.6
		c0.4,0.2-0.4,1.8-0.9,1.8c-0.2,0-0.4-0.7-0.4-1.6c0-2.4-0.6-3.7-1.9-4c-0.6-0.1-1.7-0.5-2.5-0.9c-1.9-0.9-3.1-0.6-3.3,0.8
		c-0.2,1.3,1.5,2.7,2.8,2.3c1.2-0.3,1.4,0.5,0.2,1c-0.9,0.3-1,0.4-0.5,1.2c0.3,0.4,1,1,1.7,1.2c1.6,0.6,1.2,1.4-0.9,1.8
		c-1.2,0.2-1.8,0.6-1.8,1c0,0.3-0.4,0.8-1,1c-0.5,0.2-1,0.6-1,0.8c0,0.2-0.4,0.8-1,1.3c-2,1.8-1,2.9,1.6,1.8c1-0.5,1.5-1,1.5-1.5
		c0-1.1,0.7-1.4,1-0.6c0.2,0.6,0.6,0.7,2,0.5c1-0.2,1.8-0.5,1.9-0.7c0-0.2,0.3-0.3,0.5-0.2c0.2,0.1,0.2,0.4-0.1,0.8
		c-0.3,0.5-0.3,0.8,0,1.1c0.7,0.7,0.7,1.1-0.3,1.4c-1.1,0.4-1.1,1.5,0,1.8c0.4,0.1,0.9,0.7,1.1,1.2c0.2,0.9,0.3,1,0.6,0.4
		c0.2-0.3,0.3-0.8,0.1-1s0-0.9,0.2-1.5c0.6-1.7,1.2-0.6,1.2,2.3c0,1.7,0.3,2.8,1.2,4.5c1.4,2.5,1.3,3-0.2,3c-0.8,0-1,0.2-1,1.2
		c0,0.7,0.3,1.4,0.6,1.7s0.6,1,0.6,1.5c0,0.9,3.3,5.8,4.3,6.5c0.5,0.4,0.3,0.6-0.9,1c-0.8,0.3-1.3,0-2.4-1.2
		c-1.1-1.3-1.5-1.5-2.4-1.3c-1.2,0.3-1.4,1.1-0.7,2.4c0.3,0.6,0.3,1.1-0.2,2c-0.8,1.6-0.4,5,0.6,5.5c1.1,0.6,1.4,1.6,0.6,2.4
		c-0.6,0.5-0.6,1.2-0.4,4.3c0.1,2,0.2,4,0,4.5c-0.3,1-1.2,1.4-2.2,0.8c-1.1-0.7-2.1-0.1-2.1,1.1c0,0.5-0.3,1.1-0.7,1.2
		c-1.1,0.5,0,1.2,1.6,1c1.2-0.1,1.4-0.3,1.5-1.3c0.2-2,0.7-1.2,0.7,1s0,2.2-1.3,2.4c-1,0.1-1.6,0.6-2.4,1.8
		c-1.1,1.4-1.1,1.8-0.7,3.2c0.4,1.2,0.7,1.6,1.8,1.9c1.5,0.4,1.8,1.5,0.5,1.7c-1.8,0.3-1.9,0.4-1.4,1.5c0.3,0.5,0.7,1,0.9,1
		s-0.2,0.6-0.9,1.3c-1.2,1.1-1.3,1.4-0.7,1.8c0.7,0.5,0.9,1.4,0.3,1.4s-1.8,2.8-1.5,3.4c0.2,0.3,0.4,1,0.4,1.6c0,1,0.1,1,2.1,0.9
		s2.1-0.1,3.2,1.3c1.5,2,1,2.8-0.7,1.1c-1.6-1.6-3.3-1.6-4.9-0.1c-1.2,1.2-2.2,1.3-5.4,0.8c-1.5-0.3-1.6-0.3-2.2,1.2
		c-0.3,0.8-0.9,1.6-1.2,1.7c-0.8,0.3-1.1,1.3-0.6,2.2c0.3,0.6,0.1,1.1-1,2.1l-1.4,1.4l-0.4-1.3c-0.4-1.1-0.5-1.2-1.3-0.8
		c-0.4,0.3-0.8,0.8-0.8,1.1c0,0.3-0.6,1.3-1.4,2.1c-0.7,0.9-1.4,1.7-1.4,1.9c0,0.6-1.8,1.9-3,2.2c-1.2,0.3-1.9,1.5-1.4,2.3
		c0.2,0.2,0.6,0.3,1.1,0.2c0.6-0.2,0.8,0,0.8,0.8c0,0.7-0.2,1-0.6,0.8c-0.3-0.2-1,0.1-1.5,0.6c-0.6,0.6-1.5,0.9-2.5,0.9
		c-0.8,0-1.7,0.3-2,0.6c-0.6,0.7-2.3,0.8-2.7,0.3c-0.1-0.2,0.5-0.7,1.4-1.2c1.8-1,2.5-2,1.8-2.7c-0.5-0.4-1.5-0.1-3.4,1
		c-1.8,1-3.9,2-4.4,2c-0.8,0-1.4,1.7-0.9,2.6c0.5,1,0.2,1.4-1.3,2.2c-1.4,0.8-1.3,1.8,0.3,3.7c0.5,0.7,1,1.6,1,2.1s0.3,1.2,0.5,1.4
		c0.4,0.4,0.4,0.6-0.1,0.9c-0.9,0.6-1.5,0.3-1.6-0.9c0-0.7-0.4-1.1-1-1.3c-1.4-0.3-1.7,0.3-1.2,2.4c0.5,2.3,0.2,4.3-0.9,4.9
		c-0.7,0.4-0.7,0.7-0.5,2.3c0.2,1.5,0.1,2-0.5,2.7c-0.5,0.7-0.8,1.9-1,5.9c-0.2,2.7-0.6,6.3-1,7.9c-0.8,3.4-1.5,14-1.2,17.1
		c0.2,1.5,0.1,2.6-0.4,3.7c-0.4,0.8-0.7,2.5-0.7,3.7c0,1.2-0.3,2.4-0.6,2.9c-0.9,1.1-0.8,4.8,0.1,5.8c1.2,1.3,1.7,3.5,1.8,7.7
		c0.1,2.2,0.2,5.5,0.2,7.3c0,1.8,0.4,5.2,0.8,7.5c1.1,6.5,1.6,11.9,1.4,14.9c-0.1,1,0.1,1.7,0.4,1.8c1.3,0.5,1.8,1.5,1.7,3.9
		c0,1.3,0.2,2.7,0.4,3c0.3,0.2,0.5,1.1,0.5,1.9c0,2.9,1.2,7.5,2.4,9.3c0.3,0.4,0.5,1,0.5,1.3c0,0.3,0.8,1.7,1.8,3.1s2.9,4.3,4.3,6.4
		c3.4,5.3,8.5,11.5,9.4,11.5c0.3,0,3.9,2.4,5.6,3.7c0.6,0.4,1.4,0.8,1.8,0.8c0.8,0,7.7,3.4,8.7,4.3c0.4,0.3,1.9,0.7,3.4,0.8
		c1.4,0.1,4.2,0.4,6.1,0.6c2.6,0.3,4,0.2,5.8-0.2c1.3-0.4,3.1-0.6,4.1-0.6c1.7,0,5.8-1.5,7.2-2.7c0.6-0.5,1.7-1.1,7.5-4.3
		c1.5-0.8,2.9-1.8,3.1-2c0.3-0.3,1-0.9,1.7-1.3c2.2-1.3,4.4-3.2,4.4-3.8c0-0.3,0.8-1.3,1.8-2.3c1.7-1.7,2.9-3.1,3.9-4.9
		c0.3-0.4,1-1.2,1.6-1.8c1.2-1.1,1.2-1.1,0.5-1.9c-0.7-0.8-0.6-0.8,0.4-1.3c0.6-0.3,1.1-0.8,1.1-1.2s0.5-1.4,1-2.2
		c0.5-0.8,1-1.9,1-2.3c0-0.4,0.3-1,1.5-0.7c0.4-0.3,1-1.2,1.4-2c0.4-0.9,1.1-2.3,1.6-3.2s0.8-1.9,0.7-2.4c-0.1-0.5,0.1-1.1,0.3-1.4
		c1-1.2,3.3-10.7,3.3-13.7c0-1.2,0.2-2.3,0.4-2.4c0.2-0.2,0.4-0.8,0.2-1.4c-0.2-0.6,0-2.3,0.2-3.8s0.6-3.8,0.7-5.2
		c0.4-4.4,0.3-17-0.2-20.2c-0.3-2.1-0.3-3.4,0-3.9c0.5-0.9-0.2-3.7-1.4-6.3c-1-2-1-2.2,0-2c0.5,0.1,0.8-0.1,1-0.7
		c0.2-1.1-0.4-2.9-1-2.9c-0.3,0-0.4-0.3-0.2-0.8c0.4-1.3-1.5-2-1.9-0.8c-0.4,1.1-1.4,0.6-1.4-0.8c0-1.6,0.3-2,0.9-1.1
		c0.4,0.6,0.7,0.6,1.6,0.2c1-0.4,1.1-0.7,1.1-2.7c0-1.2-0.3-2.9-0.7-3.8c-0.4-1.2-0.5-1.9-0.2-3c0.2-0.9,0.7-2.4,0.9-3.4
		c0.3-1,0.8-2.3,1-2.8c0.2-0.6,0.4-2.1,0.4-3.5c-0.1-2,0.1-2.8,0.9-4.1c0.8-1.2,1.1-2.3,1.2-4.5c0.1-1.6,0.3-3,0.4-3.2
		c0.1-0.1,0.1-0.7,0-1.2c-0.2-0.9-0.1-1,0.8-1c1,0,1.1-0.2,1.1-1.6c0-1.1,0.3-2,0.8-2.6c0.4-0.6,0.8-1.3,0.8-1.7
		c0-0.5,0.3-0.7,0.7-0.7c0.8,0,0.8-0.2,0.3-3.2c-0.3-1.4-0.2-1.6,0.8-2c0.9-0.4,1.1-0.7,1.1-1.8c0-0.8,0.3-1.8,0.6-2.3
		c1.4-1.9,3.1-5.7,3.6-7.5c0.2-1.1,0.7-2.2,1-2.6c0.3-0.4,0.7-1.1,0.8-1.6s0.5-1.1,0.8-1.5c0.9-0.9,0.9-9.7,0-10
		c-0.7-0.3-0.8-1.2-0.2-1.6c0.8-0.5,1.7,0.6,1.7,1.9c0,1.8,0.9,1.2,1.3-0.9c0.1-1,0.6-2.4,1.1-3.1c0.4-0.7,1-2.6,1.2-4.2
		c0.8-4.9,1.3-7,2-8.4s1-7.9,0.4-8.9c-0.2-0.3,0-1.1,0.3-1.8c1-2.1,1.6-4.8,1.9-8.4c0.2-2.4,0.6-4,1.4-5.5c0.8-1.8,1-2.7,1-5.5
		c0-2.2,0.3-3.8,0.7-4.6c0.4-0.7,0.7-1.8,0.7-2.4s0.3-1.9,0.8-2.9c0.4-1,0.9-3.1,1.2-4.6s0.7-3.1,0.9-3.6c0.2-0.4,0.4-0.9,0.2-1.1
		c-0.2-0.2-0.1-1.4,0.2-2.7c0.4-2.2,0.4-2.4-0.4-3.3c-0.4-0.5-1-1.4-1.1-2.1c-0.3-0.9-0.2-1.1,0.5-1.1c0.4,0,1.3-0.5,2-1
		c1.8-1.5,2.4-5.6,2.5-17.7c0.1-5.4,0.3-10.9,0.6-12.3c0.8-4.3,0.9-7.7,0.1-9.1c-0.5-1-0.6-1.4-0.2-2c0.2-0.4,0.3-1,0.2-1.2
		c-0.2-0.4-1.1-6.6-1.1-8.1c0-0.5,0.1-2.4,0.1-4.4c0-3.6-0.7-8.1-1.5-9.1c-0.3-0.5-0.2-0.7,0.3-1c1-0.6,0.8-1.5-0.4-2.8
		c-0.7-0.7-1.1-1.7-1.2-2.6c-0.1-0.8-0.2-2.3-0.3-3.5c-0.1-1.1-0.4-2.1-0.7-2.2s-0.5-0.5-0.5-0.9c0-0.6-2.2-4.6-3.3-6
		c-0.6-0.8-0.2-1.5,0.9-1.5c1.3,0,0.9-0.7-0.5-1c-1-0.2-1.2-0.3-0.8-0.8c0.6-0.7-0.2-2.7-1.1-2.7c-0.3,0-0.5-0.3-0.5-0.8
		c0-1.3-1.4-1.8-2.5-0.8c-1.1,1.1-1.1,1.3,0.4,2.4c0.8,0.7,1.2,1.3,1.2,2.2c0,0.7,0.4,1.6,1,2.3c1.2,1.3,1.2,2,0,2.2
		c-1.1,0.2-3.2-2.7-2.6-3.5c0.5-0.6-0.6-2.7-1.3-2.7c-0.2,0-0.4-0.4-0.4-0.8s-0.5-1.3-1.2-2.1c-0.7-0.7-1.2-1.6-1.2-1.9
		s-0.5-1-1-1.5s-1-1.2-1-1.5c0-0.4-0.5-1.1-1.2-1.7c-0.7-0.5-1.2-1.2-1.2-1.5s-0.7-1.2-1.7-2.1c-0.9-0.9-2-2.2-2.3-2.8
		c-0.4-0.6-1.1-1.3-1.7-1.5c-0.6-0.2-1.2-0.8-1.4-1.4s-0.9-1.4-1.6-1.9c-0.7-0.5-2-1.6-2.9-2.5c-0.9-0.8-2-1.8-2.4-2.1
		c-0.4-0.3-0.6-0.9-0.5-1.5c0.1-0.6-0.1-1.3-0.4-1.5c-0.4-0.2-0.6-0.8-0.6-1.2c0-0.9-0.7-1.4-1.4-0.8c-0.8,0.6-3.7-0.5-3.9-1.6
		c0-0.5-0.3-0.9-0.5-0.9c-0.2,0-0.4-0.6-0.4-1.4c0-2.1-0.5-2.7-1.8-2c-0.9,0.5-1.2,0.5-1.7,0.1c-0.3-0.2-0.9-0.4-1.1-0.2
		c-0.3,0.1-1.7-0.4-3.1-1.2c-1.4-0.8-3.1-1.5-3.8-1.6c-0.6-0.1-1.2-0.4-1.3-0.6c-0.2-0.7,1.8-1.4,3.6-1.2c0.8,0.1,1.1,0,0.8-0.1
		c-0.3-0.2-0.8-0.5-1-0.8c-0.7-0.9-2.2-1.2-2.5-0.4c-0.2,0.7-0.3,0.6-1,0c-0.9-0.9-1.6-0.5-1.6,0.9c0,1.2-0.5,1.2-3.3,0.4
		c-4.2-1.3-3.9-1.1-3.5-2.7c0.3-1,1-1.3,1-0.3s1.6,1.1,3,0.2l1.3-0.8l-1.4-0.5c-0.8-0.3-1.3-0.7-1.3-1.2c0-0.6-0.4-0.8-0.9-0.8
		c-1.4,0-2.4-0.8-2.4-1.9s-1-1.7-1.8-1c-0.5,0.3-0.9,0.1-1.8-0.8c-0.7-0.7-1.6-1.2-2.1-1.2s-1.1-0.2-1.3-0.4
		c-0.3-0.3-1.2-0.6-2.2-0.7c-1.2-0.1-1.8,0-2,0.5c-0.3,0.6-0.6,0.6-2.4-0.2l-2-0.9l-0.8,1c-0.8,0.9-0.8,1,0.2,1.8
		c0.5,0.5,1.1,1.3,1.3,1.8c0.2,0.8,0.5,1,2,1c1.7,0,1.8,0,1.6,1c-0.3,1.3-1.1,1.4-1.5,0.1l-0.3-0.9l-0.4,0.9c-0.4,1-0.8,1.2-1.5,0.5
		c-0.2-0.3-1.5-0.5-2.9-0.5c-2.9-0.1-3.9-0.5-3.9-1.6c0-0.4-0.2-0.8-0.4-0.8s-0.7-0.3-1.1-0.7s-0.8-0.6-1-0.4s0,0.4,0.2,0.5
		c0.3,0.1,0.5,0.5,0.5,0.8c0,0.9-1.8,0.6-2.6-0.5c-0.6-0.8-0.7-1-0.2-1c0.3,0,0.7-0.4,0.8-1c0.1-0.6,0-1-0.3-1s-0.8-0.3-1-0.6
		c-0.3-0.4-0.3-0.7,0.2-1.1c0.3-0.2,0.6-1.1,0.6-2c0-1.2-0.1-1.4-0.5-0.8c-0.6,0.7-3.1,0.9-3.9,0.3c-0.3-0.3-0.6,0-0.9,0.9
		c-0.6,1.4-1.2,1.6-1.8,0.4c-0.5-0.9-2.5-1.2-2.5-0.4c0,0.3-0.3,0.4-0.8,0.2c-1.1-0.4-1.2,0.9-0.2,1.3c0.5,0.3,0.5,0.6,0.3,1.8
		c-0.3,1.4-0.5,2.8-0.7,6.5c-0.1,0.7,0,2,0.1,2.9l0.2,1.6l-2.1-0.1c-1.6-0.1-2.2-0.4-3-1.2c-1.1-1.3-1.1-1.5-0.1-2.6
		c0.4-0.5,0.8-1.2,0.8-1.5s0.3-0.8,0.5-1c0.7-0.7,0.1-1.8-0.9-1.8c-0.8,0-0.9-0.2-0.7-1.1c0.3-1.3-0.8-2-1.5-1
		c-0.3,0.4-1,0.6-1.7,0.6c-1,0-1.3-0.3-1.5-1.2c-0.2-0.7-0.6-1.5-0.9-1.9s-0.6-1.2-0.6-1.8c0-2.3-2.5-4.5-3.4-2.8
		c-0.6,1.2-2,1-2.5-0.2c-0.2-0.5-0.7-1-1-1c-1,0-3.4,0.9-3.9,1.5c-0.4,0.6-0.6,0.5-1.7,0c-0.7-0.4-1.3-0.5-1.5-0.4
		c-0.5,0.6-4.6,0.1-4.9-0.5s-0.5-0.5-1.3,0.4c-1.2,1.2-1.9,1.3-2.2,0.2c-0.2-1-0.8-1.1-1.1-0.2c-0.1,0.4-0.6,0.6-1.4,0.5
		c-1.6-0.1-2.2,0.4-2.2,1.8c0,1.1-0.9,2.1-1.9,2.1c-0.3,0-0.1-3,0.4-5.3c0.4-1.6-0.6-2.3-1.8-1.2c-0.9,0.8-1.6,0.9-1.8,0.2
		c-0.1-0.3-0.4-0.4-0.7-0.2c-0.3,0.3-0.3,0.5,0,0.9c0.3,0.3,0.4,0.8,0.2,1.2s-0.2,1,0,1.4c0.3,0.7,0.4,0.6,0.6-0.2
		c0.3-1.2,1-1.4,1.2-0.2c0.1,0.6-0.2,1.1-1.1,1.6c-0.7,0.4-1.3,1-1.3,1.3s-0.2,0.5-0.4,0.5c-0.5,0-1-1.4-0.9-2.7
		c0.1-0.7,0-1.1-0.3-0.9c-0.3,0.1-0.5,0.6-0.5,0.9c0,0.4-0.3,0.6-0.8,0.5c-1.3-0.3,0-3.7,1.4-3.7c0.6,0,1-1.6,0.5-1.9
		c-0.2-0.2-1.2-0.1-2.2,0.2c-1.4,0.4-1.9,0.4-2.4,0s-0.9-0.3-1.8,0.4c-1.1,0.8-1.3,0.8-2.3,0.3l-1.1-0.6l1.4-0.7
		c1.7-0.7,4.4-4.6,4.6-6.6c0.1-0.8,0.2-1.9,0.4-2.5c0.2-0.9,0-1.2-0.5-1.4c-0.3-0.2-0.9-0.8-1.1-1.4c-0.4-1.1-0.5-1-0.9,0.9
		c-0.2,1.3-1,1.5-2,0.4c-0.6-0.7-0.6-0.9-0.1-1.8c0.3-0.5,0.6-2,0.6-3.2c0-2.1,0-2.2-1-2.2c-0.8,0-1,0.2-1,1c0,0.6-0.2,1-0.6,1
		c-0.8,0-0.8-1.7,0-2.7c0.3-0.4,0.6-1.1,0.6-1.5c0-0.7,1.2-1.1,3.9-1.3c1.2-0.1,1.6-0.6,2.1-2.1c0.1-0.4,0.6-0.7,1.1-0.7
		s1-0.3,1.1-0.6c0.1-0.3,0.7-0.6,1.2-0.6c0.8,0,1.1-0.3,1.3-1.3c0.3-1.5,1.1-2,2.2-1.3c1,0.6,1,0.7,2.6-1c0.8-0.8,1.8-1.5,2.2-1.5
		c0.9-0.1,2.2-1,2.2-1.6c0-0.7,2.7-3.4,3.4-3.4c1,0,1.4-1.1,1.9-5.8c0.2-2.4,0.6-5,0.8-5.8c0.5-1.8-0.4-4-1.7-4.4l-1-0.3l1.1-0.6
		c1.3-0.8,1.3-1.1,0.2-3.5c-0.9-1.7-1.8-4.9-2.3-7.2c-0.1-0.6-0.5-1.3-0.8-1.4c-0.4-0.2-0.6-0.8-0.6-1.4c0-0.7-0.2-1.7-0.4-2.3
		c-0.6-1.6-4.7-6.9-5.3-6.9c-0.3,0-1-0.4-1.6-1c-0.7-0.5-1.5-1-1.9-1s-1-0.3-1.2-0.8c-0.3-0.4-1.1-0.9-1.9-1s-1.5-0.4-1.6-0.6
		S38.8,7.9,38,7.4L38,7.4z M34.6,21.7c0.2-1.3,0.7-1.6,1.5-0.8c1.1,1.1,0.8,2-0.5,1.8C34.7,22.6,34.5,22.3,34.6,21.7L34.6,21.7z
		 M28,21.5c0.2,0,0.4,0.2,0.4,0.4c0,0.3-0.2,0.6-0.4,0.7s-0.4-0.1-0.4-0.4C27.6,21.8,27.8,21.5,28,21.5z M31.5,22.3
		c0.1-0.3,0.2-0.1,0.2,0.5s-0.1,0.8-0.2,0.5S31.4,22.5,31.5,22.3z M47.9,22.7c0.4-0.4,0.5-0.3,0.5,0.5s-0.1,0.9-0.5,0.5
		S47.5,23,47.9,22.7z M26.1,26.1c0-1.2,1.1-1.6,1.8-0.7c0.3,0.3,1.2,1.1,2.1,1.7c1.4,1,1.5,1.2,1.5,3.7c0.1,1.5,0.1,3.1,0.1,3.6
		c0.1,1.5-0.3,2.2-1.4,2.2c-1,0-1-0.1-0.7-1.3c0.2-0.7,0.3-1.8,0.2-2.3c-0.2-0.6-0.1-1,0.2-1s0.5-0.2,0.5-0.4s-0.5-0.4-1-0.4
		c-1,0-1.8-1.1-1.1-1.5c0.6-0.4-0.5-2.3-1.4-2.4C26.3,27.2,26.1,26.8,26.1,26.1L26.1,26.1z M24.3,25.3c0.2,0,0.4,0.2,0.4,0.4
		s-0.2,0.4-0.4,0.4s-0.4-0.2-0.4-0.4C23.9,25.4,24,25.2,24.3,25.3z M37.2,27.2c0-0.3,0.3-0.7,0.8-1.1c1-0.6,1.4,0.1,0.8,1.3
		c-0.4,0.6-0.3,0.9,0.2,1.2c1.1,0.7,0.3,1.2-1.6,1.2c-2.2,0-2.6-0.5-1.2-1.4C36.7,28,37.2,27.5,37.2,27.2L37.2,27.2z M50.4,28.5
		c0.4-0.4,0.5-0.3,0.5,0.5s-0.1,0.9-0.5,0.5C50,29.1,50,28.9,50.4,28.5z M39.8,31.5c0.1,0,0.3,0.4,0.4,0.8s0,0.8-0.2,0.8
		s-0.4-0.3-0.4-0.8C39.6,31.9,39.7,31.5,39.8,31.5z M40.9,36.7c0.4-0.3,0.5-0.1,0.5,0.8c-0.1,1.1-0.1,1.2-0.5,0.5
		C40.5,37.4,40.5,37.1,40.9,36.7z M38.4,37.6c0-0.8,0.3-0.9,0.6-0.3c0.1,0.2,0,0.5-0.2,0.7C38.6,38.1,38.4,37.9,38.4,37.6L38.4,37.6
		z M23.7,39.5c-0.2,0.8-0.5,1-1.1,0.8c-0.9-0.2-0.9-0.1-0.4-1.5C22.9,37,24.2,37.7,23.7,39.5z M29.9,39.8c0.3-0.5,2.2-0.5,2.5,0.1
		c0.3,0.4-1.6,1-2.3,0.6C29.9,40.3,29.8,40,29.9,39.8L29.9,39.8z M41.8,41.4c0.2-0.5,0.3-0.5,0.5,0c0.4,0.6,0,1.2-0.4,0.8
		C41.8,42.1,41.7,41.7,41.8,41.4z M19.3,42.1c0-0.8,0.2-1,0.7-1c0.4,0,0.9,0.1,1.1,0.3c0.2,0.2,0.7,0.3,1.2,0.3
		c1.1,0,1.5,1.7,0.5,2.1c-0.4,0.2-0.9,0.8-1.3,1.5c-0.8,1.7-1.4,1.6-1.4-0.2c0-0.8,0.2-1.5,0.4-1.5s0.4-0.2,0.4-0.4
		s-0.3-0.3-0.8-0.2C19.5,43.1,19.3,43,19.3,42.1L19.3,42.1z M30.9,41.8c0-0.1,0.2-0.3,0.4-0.3c0.5,0,0.9,0.8,0.5,1
		C31.4,42.7,30.9,42.3,30.9,41.8L30.9,41.8z M14.3,45.1c0-1.6,0.6-2.3,1-1.3c0.3,0.8-0.1,2.7-0.6,2.7C14.5,46.5,14.3,45.9,14.3,45.1
		L14.3,45.1z M30.2,55.5c0.1-0.3,0.2-0.1,0.2,0.5s-0.1,0.8-0.2,0.5C30.1,56.3,30.1,55.8,30.2,55.5z M29.6,58.9
		c0.6,0,0.8,0.2,0.8,1.2v1.2l-0.8-0.8c-0.4-0.4-0.8-1-0.8-1.2S29.2,58.9,29.6,58.9z M24.3,61.3c0.4-0.9,0.4-0.8,0.2,0.5
		c-0.5,3-1.1,4.2-1.9,4.2c-0.4,0-0.8-0.2-0.8-0.5c0-0.8,1.2-3.2,1.6-3.2C23.6,62.3,23.9,61.8,24.3,61.3z M26.7,65.6
		c0.2,0,0.4,0.2,0.4,0.4c0,0.2-0.2,0.4-0.4,0.4s-0.4-0.2-0.4-0.4C26.3,65.7,26.5,65.6,26.7,65.6z M23.7,81c0.4,0,0.6,0.2,0.6,0.4
		c0,0.2-0.4,0.4-0.9,0.4s-0.7-0.2-0.6-0.4C22.9,81.1,23.3,81,23.7,81z M16.7,82.3c0.1-1.3,0.5-1.6,1.6-1c0.6,0.3,0.7,1.8,0.1,1.8
		c-0.6,0-0.5,1.7,0.1,1.7c0.3,0,0.1,0.3-0.4,0.5s-1,0.3-1.1,0.2C16.7,85.2,16.6,84,16.7,82.3L16.7,82.3z M25.5,85.5
		c0,0.5-0.4,0.8-1.3,1c-1.7,0.3-2.2,0-1.5-1C23.4,84.4,25.5,84.4,25.5,85.5z M17.6,87.1c0-0.5,1.2-0.5,1.4,0c0.1,0.2,0,0.5-0.2,0.7
		C18.4,88.1,17.6,87.7,17.6,87.1L17.6,87.1z M28.4,90c1.5-0.8,2.9-1,2.9-0.3c0,0.1-0.7,0.6-1.6,1.1c-0.8,0.4-2,1.1-2.5,1.5
		c-1.1,0.9-2.1,1-2.1,0.2C25.1,91.9,26,91.2,28.4,90L28.4,90z M19.1,90.2c-0.6-0.4-0.7-0.4,0-0.7c0.3-0.1,0.7,0,0.9,0.2
		C20.3,90.4,19.9,90.7,19.1,90.2L19.1,90.2z M19.7,91.3c0.9-0.5,2.2-0.5,3.1,0.2c0.6,0.5,0.7,0.6,0.2,0.8c-1.8,0.5-2.5,0.5-3.2,0
		C19.2,91.8,19.2,91.7,19.7,91.3L19.7,91.3z M18.7,94.7c-0.8-0.3-0.8-0.3,0.1-0.5c0.5-0.1,1-0.1,1.1,0.1
		C20.2,94.8,19.6,95,18.7,94.7L18.7,94.7z M94.1,96c0-1,0.3-1.2,1.3-1c1,0.3,1,0.9,0,1.4C94.3,97,94.1,96.9,94.1,96L94.1,96z
		 M34.8,96.4c0-0.3,0.5-0.7,1-0.8c0.7-0.1,0.9,0,0.7,0.7C36.2,97.4,34.6,97.5,34.8,96.4L34.8,96.4z M39.6,98.6
		c0.2-0.1,0.4,0.1,0.4,0.4c0,0.4-0.2,0.7-0.4,0.7s-0.4-0.2-0.4-0.4C39.2,99,39.4,98.7,39.6,98.6z M96.7,99.1c0.1-0.2,0.2,0,0.2,0.5
		c0,0.4-0.1,0.5-0.2,0.2C96.6,99.5,96.7,99.1,96.7,99.1z M13.7,98.8c0.4,0,0.5,0.2,0.4,0.4c-0.2,0.4-1,0.3-1-0.2
		C13.1,98.9,13.4,98.8,13.7,98.8z M116.6,99.8c0.7-0.2,1.2,0.2,0.9,0.7c-0.3,0.5-2.2,0.5-2.2,0c0-0.2,0.2-0.4,0.4-0.4
		S116.4,100,116.6,99.8z M114.1,102.5c0-0.8,0.6-1.6,0.9-1.3c0.6,0.5,0.3,1.8-0.3,1.8C114.4,103,114.1,102.8,114.1,102.5
		L114.1,102.5z M121.1,102.8c0.3,0.9-0.3,1.7-0.8,0.9c-0.2-0.4-0.8-0.7-1.3-0.7c-0.9,0-0.9-0.1-0.1-0.4
		C120.1,102,120.7,102.1,121.1,102.8z M18.4,105.1c0.2,0,0.4,0.5,0.4,1.1s-0.2,1-0.4,0.8c-0.2-0.1-0.4-0.6-0.4-1.1
		S18.2,105.1,18.4,105.1z M108.3,106.8c0.1-0.8,0.4-1.2,1-1.2c0.5-0.1,1,0.1,1.2,0.3c0.4,0.7-0.6,2.1-1.5,2.1
		C108.3,108,108.2,107.8,108.3,106.8L108.3,106.8z M23.4,107.2c0,0.5-0.3,0.8-0.8,0.8c-1,0-1-0.3-0.2-1.1
		C23.2,106.1,23.4,106.1,23.4,107.2z M20.5,108.5c0.3,0.5,0.4,2.4,0.2,2.4c-0.8,0-1.8-1.1-1.8-1.9C18.9,107.9,19.8,107.6,20.5,108.5
		z M118.2,109.1c0-0.5,0.4-0.7,0.9-0.7c1,0,0.8,1-0.2,1.2C118.5,109.7,118.2,109.5,118.2,109.1L118.2,109.1z M22.8,110.9
		c0.3,0,0.6,0.2,0.6,0.4s-0.3,0.3-0.6,0.2c-0.3-0.2-0.6-0.3-0.6-0.4S22.5,110.9,22.8,110.9z M181,163.8c-0.3-0.3-0.2-0.6,0.6-1.1
		c1.2-0.8,1.4-0.4,0.5,0.8C181.6,164,181.3,164.1,181,163.8L181,163.8z M184.9,167.9c0.3,0,0.6,0.2,0.6,0.4c0,0.2-0.3,0.4-0.6,0.4
		c-0.3,0-0.6-0.2-0.6-0.4C184.3,168,184.6,167.9,184.9,167.9z M162,260.5c0.3-0.3,0.8-1,1-1.2c0.3-0.7,0.5-0.7,0.6-0.2
		c0.1,0.3,0.4,1.2,0.6,2c0.2,0.9,0.3,1.7,0,2.1c-0.2,0.4-0.6,1.4-0.9,2.3s-0.8,1.7-1,1.8c-0.8,0.2-0.6-1.9,0.2-2.2
		c0.7-0.3,0.7-0.3,0-1.1c-0.4-0.5-0.6-1.1-0.5-1.4c0.2-0.3,0-0.9-0.2-1.1C161.5,261.1,161.5,260.9,162,260.5L162,260.5z
		 M164.5,266.4c0.2,0,0.4,0.2,0.4,0.4c0,0.2-0.3,0.4-0.7,0.4c-0.4,0-0.5-0.2-0.4-0.4C163.9,266.5,164.2,266.4,164.5,266.4z
		 M162.7,268.9c0-0.5,0.2-1,0.4-1.1c0.5-0.3,1,0.9,0.6,1.5C163.3,270,162.7,269.7,162.7,268.9L162.7,268.9z M165.7,275.3
		c0.1-0.2,0.2,0,0.2,0.5c0,0.4-0.1,0.5-0.2,0.2C165.6,275.7,165.7,275.3,165.7,275.3z M129.7,285.4c-0.2-0.7-0.1-1.2,0.1-1.1
		c0.5,0,0.6,0.3,0.5,1.5c0,0.6,0.2,1,0.7,1.2c0.4,0.1,0.9,0.4,1.2,0.5c0.3,0.1,0.5-0.2,0.6-0.8c0.2-1.3,0.9-1.3,1.1,0
		s-0.8,2.1-2.2,1.8C130.7,288.3,130.3,287.7,129.7,285.4L129.7,285.4z M127.6,292.2c0.3-0.9,1.2-1.2,1.7-0.5
		c0.3,0.6-1.1,2.2-1.6,1.7C127.5,293.2,127.4,292.7,127.6,292.2L127.6,292.2z M131.2,292.9c0.6,0,0.8,0.9,0.6,1.9
		c-0.3,1.1-1.5,1.4-2.7,0.6c-0.5-0.3-0.4-0.5,0.6-1.4C130.4,293.5,131,293,131.2,292.9z M133.6,295.1c0.2,0,0.4,0.4,0.4,0.8
		c0,0.4-0.2,0.8-0.4,0.8s-0.4-0.3-0.4-0.8S133.4,295,133.6,295.1z M166.7,298.9c0.6,0.6,0.7,2,0.2,2s-1.3-1-1.3-1.8
		C165.6,298.2,166.1,298.2,166.7,298.9z M138.4,302.4c-0.6-0.9-0.6-1.4-0.4-2c0.3-0.6,0.6-0.5,0.9,0.1c0.7,1.3,1.4,2.5,2.1,3.2
		c0.3,0.3,0.5,0.8,0.4,1.1c-0.3,0.8-1.2,0.6-1.7-0.4C139.4,303.9,138.9,303,138.4,302.4L138.4,302.4z M166.8,301.4
		c0.2-0.2,0.4,0.3,0.4,1.3c0,1.2-0.1,1.5-0.4,1c-0.2-0.3-0.4-0.9-0.4-1.3C166.4,302.1,166.6,301.6,166.8,301.4z M140.3,317.9
		c-0.1-0.7,1.6-0.5,2,0.3c0.7,1.3-0.1,1.9-1.1,0.9C140.7,318.7,140.3,318.1,140.3,317.9L140.3,317.9z M153.7,325.6
		c0.1-0.2,0.2,0,0.2,0.5c0,0.4-0.1,0.5-0.2,0.2C153.6,326,153.6,325.6,153.7,325.6z M147.5,373.8c-0.4-0.9,0.4-1.7,1.1-0.9
		c0.3,0.4,0.3,0.7-0.2,1.1C147.9,374.4,147.7,374.4,147.5,373.8L147.5,373.8z M145.5,374.4c0.4,0,1.1,1.4,0.9,1.9
		c-0.4,1.1-1.1,0.7-1.1-0.6C145.3,375,145.3,374.4,145.5,374.4z M139.9,376.9c0.2,0,0.3,0.2,0.2,0.4c-0.2,0.2-0.4,0.4-0.5,0.4
		c-0.1,0-0.2-0.2-0.2-0.4S139.6,376.9,139.9,376.9z M143.9,383.6c0.8,0.8,0.7,1.2-0.3,1.2c-0.5,0-0.8-0.3-0.8-0.8
		C142.8,383,143.1,382.8,143.9,383.6z M149,391.3c0-0.8,0.3-0.9,0.6-0.3c0.1,0.2,0,0.5-0.2,0.7C149.2,391.8,149,391.6,149,391.3
		L149,391.3z M136.9,428.8c0.1-1.2,0.3-1.5,0.7-0.7c0.1,0.2,0,0.7-0.2,1.1C137,429.9,136.9,429.8,136.9,428.8L136.9,428.8z
		 M139.9,431.2c0.7-0.9,1.2-0.8,1.8,0.4c0.3,0.9,0.3,1.3-0.2,1.8c-0.6,0.5-0.8,0.5-1.4-0.5C139.5,432,139.5,431.7,139.9,431.2
		L139.9,431.2z M145.9,432.9c0.1,0.6,0.2,1.9,0.4,2.8c0.3,1.6,0.3,1.7-0.7,1.5c-0.6-0.1-0.9-0.4-0.8-0.8c0.1-0.4,0.2-1.7,0.3-2.9
		C145.3,430.3,145.7,430,145.9,432.9z M134.5,433.2c0-0.5,1.1-1,2.1-0.8c1.1,0.3,1.5,0.9,1.2,1.8s-0.7,1.2-1.3,1.2
		c-0.7,0-0.7,0-0.2-0.2c0.8-0.2,1-1.2,0.3-1.6c-0.2-0.1-0.7,0-1,0.2C135,434.3,134.5,434,134.5,433.2L134.5,433.2z M132.9,436.3
		c0.8-0.5,1.2-0.4,2.4,0.5c0.8,0.6,0.9,0.9,0.4,1.6c-0.7,1.1-1.2,1-1.2-0.2c0-0.8-0.3-1.1-1.1-1.3
		C132.6,436.7,132.5,436.5,132.9,436.3L132.9,436.3z M141.7,441.1c0.9-1.6,1.7-3,2-2.8c1.1,0,1,2.2-0.2,3.4c-0.5,0.5-1,1.3-1.2,1.8
		c-0.1,0.6-0.6,1-1.1,1c-0.9,0-1.1,1-0.4,1.5c0.3,0.2,0.3,0.5,0,1.1s-0.3,0.8,0,0.8c0.2,0,0.4-0.2,0.4-0.4c0-0.2,0.3-0.4,0.6-0.4
		c0.3,0,0.6-0.4,0.6-0.8c0-0.8,3.2-3.1,3.7-2.8c0.4,0.3,0.5,5.1,0,6.3c-0.3,0.7-0.6,1-1.1,0.8c-0.8-0.3-1.1,0.6-0.6,1.9
		c0.5,1.3,0.1,2.1-3,5c-1.4,1.3-3,2.9-3.6,3.4c-0.6,0.6-1.7,1.1-2.9,1.2c-1.1,0.1-2.5,0.5-3.2,0.9c-0.7,0.4-1.6,0.6-1.9,0.4
		c-0.5-0.2-0.5-0.4,0.5-1.2c0.6-0.5,1.5-1,1.8-1s0.8-0.3,1-0.7c0.3-0.5,1.1-0.7,2.5-0.7c1.6,0,2.1-0.2,1.8-0.5
		c-0.6-0.5-0.6-1.5,0-1.5c0.6,0,4.9-3.8,4.9-4.4c0-0.8-1.2-1.1-2-0.5c-1.1,0.9-1.9,1-2.7,0.3c-0.7-0.6-0.7-0.6-0.6,0.4
		c0.2,1.2-0.6,2.4-1.6,2.4c-0.3,0-1.1,0.3-1.8,0.8l-1.2,0.9l-1.7-1.7c-1.2-1.3-1.5-1.7-1-1.9c0.3-0.2,0.7,0.1,0.8,0.6
		c0.1,0.4,0.2,0.8,0.3,0.8c1.5,0,4.4-2.7,4.4-4.1c0-0.2,0.4-0.7,0.8-1c0.4-0.3,0.8-0.9,1-1.2c0.2-0.5,0.3-0.4,0.5,0.3
		c0.2,0.7,0.6,1,1.3,1c1.3,0,1.3-1.1,0.1-1.5c-0.5-0.1-1.3-0.6-1.7-1c-0.8-0.8-0.7-0.8,0.1-1c0.5-0.1,1-0.8,1.3-1.5s0.8-1.3,1-1.3
		C139.9,444.2,140.8,442.8,141.7,441.1L141.7,441.1z M146.8,439.7c0.1,0,0.2,0.2,0.2,0.4c0,0.2-0.3,0.4-0.5,0.4s-0.3-0.2-0.2-0.4
		C146.4,439.9,146.6,439.7,146.8,439.7z M129.8,446c0.4,0,0.5,0.1,0.2,0.2c-0.3,0.2-0.7,0.1-0.8,0C129,446,129.2,445.9,129.8,446z
		 M133.4,449.3c0.3,0,0.6,0.3,0.6,0.6s-0.3,0.6-0.6,0.6c-0.3,0-0.6-0.3-0.6-0.6C132.8,449.5,133.1,449.3,133.4,449.3z M129.6,451.6
		c0.4-0.1,0.8-0.1,0.9,0.1c0.3,0.5-0.6,1-1.1,0.5C129.1,452,129.2,451.8,129.6,451.6z M130.9,458.8c0.4,0,0.7,0.2,0.7,0.4
		c0,0.2-0.2,0.4-0.4,0.4c-0.3,0-0.6-0.2-0.7-0.4C130.4,459,130.5,458.8,130.9,458.8z M127.8,463.8c0.2,0,0.4,0.2,0.4,0.4
		c0,0.2-0.2,0.4-0.4,0.4c-0.2,0-0.4-0.2-0.4-0.4C127.4,464,127.5,463.8,127.8,463.8z"/>
</g>
</svg>
