<?xml version="1.0" encoding="utf-8"?>
<!-- Generator: Adobe Illustrator 27.5.0, SVG Export Plug-In . SVG Version: 6.00 Build 0)  -->
<svg version="1.1" id="Ebene_1" xmlns="http://www.w3.org/2000/svg" xmlns:xlink="http://www.w3.org/1999/xlink" x="0px" y="0px"
	 viewBox="0 0 191 495" style="enable-background:new 0 0 191 495;" xml:space="preserve">
<style type="text/css">
	.st0{fill:#B1CBF0;}
</style>
<g>
	<path class="st0" d="M146,408.9c0,0.6,0.1,0.8,0.2,0.5c0.1-0.2,0.1-0.8,0-1C146.1,408.2,146,408.4,146,408.9z"/>
	<path class="st0" d="M95.9,280.9c-0.4,0.7,0.6,2.1,1.4,2.1s1.6-0.9,0.9-1.2c-0.3-0.1-0.8-0.4-1.1-0.8
		C96.4,280.4,96.2,280.4,95.9,280.9L95.9,280.9z"/>
	<path class="st0" d="M102.7,235.9c0,0.8,0.8,1.5,1.4,1.2c1.1-0.4,0.8-1.5-0.4-1.5C103.2,235.6,102.7,235.7,102.7,235.9L102.7,235.9
		z"/>
	<path class="st0" d="M121.7,222.7c0.1,0.2,0.9,0.4,1.7,0.4s1.4-0.2,1.4-0.4c0-0.2-0.8-0.4-1.7-0.4S121.5,222.4,121.7,222.7z"/>
	<path class="st0" d="M125.8,218.9c-0.2,0.2-0.5,0.6-0.7,1c-0.2,0.5,0,0.8,0.5,0.8c0.8,0,1.5-1.2,1-1.7
		C126.3,218.7,126,218.7,125.8,218.9L125.8,218.9z"/>
	<path class="st0" d="M18.3,119.8c0,0.7,0.2,1.1,0.7,1.1c0.4,0,0.6-0.3,0.5-0.9C19.3,118.6,18.3,118.5,18.3,119.8L18.3,119.8z"/>
	<path class="st0" d="M61.4,106.3c-0.3,0.5,0.4,0.8,1,0.5c0.4-0.2,0.4-0.4-0.1-0.6C61.9,106.1,61.5,106.1,61.4,106.3L61.4,106.3z"/>
	<path class="st0" d="M19.2,99.8c-1.6,0.4-6.3,5-6.3,6.1c0,0.4-0.4,1-0.8,1.4c-0.8,0.8-1.7,3.9-1.7,6.1v1.3l0.9-1
		c0.5-0.5,1.5-1.2,2.3-1.5s1.4-0.8,1.4-1.1c0-0.7,1.3-1.5,2.3-1.6c0.5,0,1.1,0.4,1.3,0.9c0.4,0.8,0.5,0.9,0.5,0.2
		c0-0.4-0.2-1-0.6-1.2c-0.6-0.5-0.6-0.7-0.1-1.9l0.5-1.4l1.4,1.4c2,2,2.3,3.1,1.5,5.4c-0.9,2.7-1.3,6.5-0.8,7.1s0.2,1-1.9,2.5
		c-0.9,0.6-1.1,0.6-2.7,0c-2.2-0.9-2.8-1.4-4.5-4.2c-0.9-1.5-1.6-2.2-2-2.1c-1,0.2-0.8,6.2,0.2,7.7c0.5,0.7,0.8,2,0.8,3.4
		c0,3.1,0.4,4,2,5c1.3,0.8,1.5,0.8,4.2,0.2c1.6-0.3,3.3-0.9,3.8-1.2c0.5-0.3,1.4-0.6,1.9-0.6c2.7-0.1,7.8-3.3,9.8-6.2
		c0.5-0.8,1.4-2.1,1.9-2.8c0.6-0.8,1.1-2.1,1.3-3.1c0.2-1,0.5-2.2,0.8-2.8c0.2-0.6,0.4-1.8,0.3-2.8c-0.1-1.4-0.3-1.8-1-1.8
		c-0.4,0-0.8-0.2-0.8-0.4c0-0.2,0.2-0.4,0.5-0.4s0.2-0.4-0.2-0.9c-0.3-0.5-0.5-1.1-0.4-1.4s-0.1-1-0.4-1.5s-0.7-1.4-0.8-2
		c-0.2-1.1-2.2-2.5-3.4-2.5c-0.4,0-0.7-0.2-0.7-0.4c0-0.2-0.5-0.4-1.1-0.4s-1.7-0.3-2.4-0.8C25,99.6,21.2,99.2,19.2,99.8L19.2,99.8z
		 M30.5,110.5c-0.1,0.5,0,1.1,0.2,1.4c0.6,0.8,1,4.2,0.7,5.9c-0.2,1-0.5,1.5-1,1.5s-1,0.5-1.3,1c-0.5,1.1-1.7,1.7-2.4,1.2
		c-0.2-0.1-0.9,0.1-1.4,0.5c-1.1,0.7-1.4,2.4-0.6,2.9c0.3,0.2,0.3,0.4-0.1,0.6c-0.8,0.5-1.7-1-1.4-2.4c0.2-0.6,1-2,1.9-3.1
		c0.9-1,1.6-2.1,1.6-2.3c0-0.2,0.3-1,0.7-1.8c0.4-0.7,0.7-2.2,0.7-3.3c0-1.4,0.3-2.2,0.9-2.9C29.8,108.7,30.9,109.1,30.5,110.5
		L30.5,110.5z M24.2,112.3c0,0.2-0.2,0.5-0.5,0.5c-0.2,0.1-0.5-0.2-0.5-0.5s0.2-0.6,0.5-0.5S24.2,112.1,24.2,112.3z M23.2,126.5
		c-0.1,0.1-0.5,0.2-0.8,0c-0.3-0.1-0.2-0.2,0.2-0.2C23.1,126.3,23.4,126.4,23.2,126.5z"/>
	<path class="st0" d="M107.7,99.2c0,0.2,0.3,0.4,0.6,0.4s0.8,0,0.9,0c0.2,0,0.4-0.2,0.5-0.4c0.1-0.2-0.3-0.5-0.9-0.5
		S107.7,99,107.7,99.2L107.7,99.2z"/>
	<path class="st0" d="M178.3,94.1c-0.5,0.5-0.3,0.9,0.5,1.1s1.9-0.6,1.4-1.1C179.8,93.8,178.6,93.8,178.3,94.1L178.3,94.1z"/>
	<path class="st0" d="M108.8,94.2c-0.1,0.2,0,0.6,0.2,0.7c0.6,0.4,1-0.1,0.5-0.7C109.2,93.9,109,93.9,108.8,94.2L108.8,94.2z"/>
	<path class="st0" d="M61.6,92.2c0,0.2,0.2,0.3,0.4,0.2c0.2-0.1,0.4-0.3,0.4-0.5c0-0.1-0.2-0.2-0.4-0.2C61.8,91.8,61.6,92,61.6,92.2
		z"/>
	<path class="st0" d="M179.9,89.6c-0.1,0.2,0,0.6,0.2,0.9c0.3,0.5,0.5,0.5,1.4,0c0.6-0.3,1-0.8,0.8-1
		C182,89.2,180.2,89.1,179.9,89.6L179.9,89.6z"/>
	<path class="st0" d="M181.5,87.2c-0.1,0.2,0,0.4,0.4,0.4s0.5-0.2,0.4-0.4c-0.1-0.2-0.3-0.4-0.4-0.4S181.6,86.9,181.5,87.2z"/>
	<path class="st0" d="M157.8,69.3c-0.2,0.2-0.1,0.5,0.1,0.6c0.2,0.2,0.5,0.1,0.6-0.1c0.2-0.2,0.1-0.5-0.1-0.6
		C158.3,69,158,69.1,157.8,69.3z"/>
	<path class="st0" d="M52.8,67.4c0,0.4-0.6,0.6-2.5,0.5c-2.3,0-2.7,0.1-3.4,1.1c-0.5,0.6-1,1.1-1.3,1.1c-0.7,0-2.4,1.9-2,2.2
		c0.1,0.2,0.6,0.3,1,0.3c0.8,0,1.6,1.5,1.3,2.4c-0.2,0.6,1.2,1.4,2.5,1.4c0.5,0,1.3,0.3,1.7,0.8c0.7,0.8,0.6,0.8-0.5,1.8
		c-0.6,0.5-1.5,1.7-1.9,2.5s-1.2,1.8-1.9,2.1c-1.5,0.8-1.9,2.3-0.8,3.8c0.4,0.7,0.7,1.3,0.5,1.4c-0.3,0.3-2.4,0.3-4.7,0
		c-2.2-0.2-2.5,0.2-1.5,2.3c0.9,1.8,3.1,4.1,3.9,4.1c0.3,0,1.1,0.5,1.8,1c1.5,1.2,5.1,1.5,5.5,0.4c0.2-0.4,0.7-0.6,1.6-0.5
		c0.8,0,1.9-0.1,2.5-0.4c0.7-0.2,1.4-0.3,1.8-0.1c0.8,0.5,3-1.8,2.8-2.8c-0.2-0.8,1-2.3,1.9-2.7c0.3-0.1,1.1,0.1,1.7,0.5
		c1.4,1,3.7,1,3.7-0.2c0-0.6-0.1-0.7-0.5-0.4c-0.3,0.2-1,0.3-1.6,0.2c-1-0.2-1-0.2,0.2-0.5c0.8-0.1,1.3-0.5,1.4-1
		c0.2-1.2,1.6-2.8,1.9-2.3c0.1,0.2,0.8,0.4,1.4,0.4c1,0,1.2-0.2,1.5-1.5c0.1-0.8,0.1-2.2,0-3c-0.1-0.9-0.2-2.3-0.2-3.1
		c0-1.2-0.2-1.7-1-2.2c-0.6-0.4-1-0.9-1-1.2c0-0.9-1.6-2-2.5-1.8c-0.5,0.1-0.8,0-0.8-0.4c0-0.3-0.2-0.6-0.4-0.6
		c-0.2,0-0.4-0.3-0.4-0.6s-0.2-0.6-0.5-0.6c-0.3,0-0.4,0.2-0.2,0.6c0.2,0.7-0.7,1.7-1.1,1.2c-0.2-0.1-0.2-0.7,0-1.2
		c0.2-0.7,0.1-1-0.3-1c-0.3,0-1-0.4-1.6-0.8s-1.4-0.8-1.9-0.8s-1.6-0.7-2.4-1.5C54.9,66.8,52.8,66.3,52.8,67.4L52.8,67.4z"/>
	<path class="st0" d="M182.3,59.6c-0.7,0.2-0.7,1.6,0,2.2c0.3,0.2,0.5,0.7,0.4,1s0,0.7,0.2,0.8c0.2,0.1,0.5,0,0.5-0.4
		s0.2-0.7,0.4-0.7s0.2-0.7,0-1.7C183.3,59.3,183.2,59.2,182.3,59.6L182.3,59.6z"/>
	<path class="st0" d="M180.1,58.2c0.2,1.3,1.2,1.5,1.2,0.2c0-0.7-0.2-1.1-0.7-1.1C180.2,57.3,180,57.6,180.1,58.2L180.1,58.2z"/>
	<path class="st0" d="M183.8,57.2c0,0.5,0.2,0.8,0.4,0.8s0.4-0.4,0.4-0.8s-0.2-0.8-0.4-0.8C184,56.4,183.8,56.8,183.8,57.2z"/>
	<path class="st0" d="M105.2,40c0,0.4,0.3,0.6,0.7,0.5c1-0.2,1.2-1.2,0.2-1.2C105.6,39.4,105.2,39.6,105.2,40L105.2,40z"/>
	<path class="st0" d="M94.7,34.2c-0.5,1.4-0.2,3.1,1.2,5.8c1.9,3.8,3.6,6.1,4.6,6.4c0.4,0.1,1.5,0.6,2.4,1.1c1.6,1,3.2,1.3,3.2,0.6
		c0-0.2-0.2-0.4-0.5-0.4s-0.4-0.6-0.2-1.6c0.3-2.8-1.1-6.2-3.7-8.7c-1.2-1.2-2.6-2.2-3-2.2s-1.4-0.4-2.2-0.8
		C95.1,33.7,94.9,33.7,94.7,34.2L94.7,34.2z"/>
	<path class="st0" d="M101.8,34c-0.3,1.3,0,1.8,1.6,2.3c1.4,0.5,1.5,0.5,2-0.8s0.5-2.1-0.2-1.7c-0.2,0.1-0.5,0-0.6-0.2
		s-0.8-0.4-1.4-0.4C102.3,33.2,101.9,33.4,101.8,34L101.8,34z"/>
	<path class="st0" d="M81.9,32c-1.3,0.6-2.9,1.9-7.9,6.4c-2.1,1.9-3.9,3.5-4.2,3.5s-0.4,0.4-0.4,0.8s-0.4,1-0.8,1.2
		c-1.5,0.5-3.4,3.4-3.4,5.1c0,1.3,0.2,1.7,1.1,2c0.6,0.2,1.8,0.4,2.7,0.4c1.2,0,1.8,0.2,2.1,0.8c0.6,1,2.3,1.1,2.7,0.2
		c0.1-0.4-0.1-0.9-0.7-1.3l-1-0.7l0.9-0.7c0.8-0.6,0.8-0.8,0.3-1.5c-0.3-0.5-1.1-0.8-1.8-0.8c-1.2,0-1.6-0.5-1-1.4
		c0.3-0.5,0.5-0.5,1.1,0c0.5,0.4,0.8,0.4,1.1,0.1c0.3-0.3,1.2-0.5,2.1-0.5c1,0,1.7-0.2,1.8-0.6c0.2-0.3,0.5-0.6,0.8-0.6
		c1,0,2.7,1,2.7,1.5c0,0.9-1,1.1-2.7,0.6c-1.9-0.5-2.6,0.1-1.3,1.2c0.8,0.6,1,0.6,1.5,0.1c0.5-0.4,1.2-0.5,2.2-0.3
		c0.8,0.1,1.5,0.3,1.5,0.3s-0.3,0.8-0.6,1.6c-0.3,0.8-0.6,1.8-0.6,2.2c0,0.3,0.3,0.6,0.6,0.6s0.6-0.2,0.6-0.4c0-0.2,0.2-0.4,0.4-0.4
		c0.8,0,0.4,1.6-0.4,1.9c-0.8,0.2-3.3-1.2-3.3-1.9c0-0.5-1.8-0.8-2.4-0.3c-0.7,0.5,0,1.6,1,1.6c0.5,0,0.5,0.1-0.1,0.6
		c-0.5,0.3-0.8,1.2-0.9,2.1c-0.1,1.4,0,1.5,0.9,1.2c0.7-0.2,1,0,1.2,0.5c0.3,0.9,1.1,0.4,1.1-0.7c0-0.5,0.2-0.8,0.5-0.7
		c0.2,0.1,0.5,0.4,0.5,0.7c0,0.3-0.1,1-0.1,1.5c-0.1,1.3-1.2,1.8-1.9,0.9c-0.3-0.4-0.9-0.7-1.3-0.7s-1-0.2-1.2-0.4
		c-0.3-0.3-0.9,0-1.8,0.8c-1.8,1.5-2.2,1.5-1.9,0c0.2-1.1,0.2-1.2-0.8-1.2c-0.5,0-1.3,0.4-1.7,0.8c-0.8,0.8-0.7,0.8,0.6,1.2
		c0.9,0.2,1.4,0.7,1.6,1.2c0.2,0.9,1.9,3,3.6,4.3c1.4,1.2,3.3,2,4.7,2c0.8,0,1.6,0.2,1.9,0.4c0.3,0.2,1.4,0.4,2.4,0.5
		c1.6,0.1,2.2-0.1,3.3-1c1.1-1,1.4-1.1,2.1-0.7c1.8,1.1,2.5,0.4,3.2-2.9c0.3-1.2,0.3-2,0-2.3c-0.5-0.7,0.2-2.6,0.9-2.6
		c0.5,0,1.3-1.8,1.4-3.3c0.1-0.6,0.5-1.9,0.9-3c0.7-1.8,0.7-2.2,0.2-4.2c-0.3-1.2-0.9-2.7-1.3-3.2c-0.5-0.5-0.8-1.2-0.8-1.5
		c0-0.2-0.5-0.9-1-1.3s-1.1-1.5-1.2-2.4c-0.5-2.5-2.5-5.2-4.6-5.9c-0.7-0.2-1.9-0.8-2.7-1.1C83.3,31.6,82.8,31.6,81.9,32L81.9,32z
		 M90.7,46.1c0.6,1-0.5,3-1.5,2.8s-1.4-1.8-0.7-2.8C89.2,45,90.1,45,90.7,46.1L90.7,46.1z M85.7,48.1c0,0.2-0.2,0.4-0.5,0.4
		c-0.2,0-0.3-0.2-0.2-0.4c0.1-0.2,0.3-0.4,0.5-0.4C85.6,47.7,85.7,47.9,85.7,48.1z M84.7,52.1c-0.2,0.5-0.4,0.6-0.7,0.3
		c-0.2-0.2-0.3-0.7-0.1-1.1c0.2-0.5,0.4-0.6,0.7-0.3C84.8,51.2,84.9,51.7,84.7,52.1z"/>
	<path class="st0" d="M105.2,30.9c0,0.3,0,0.8,0,0.9c0,0.2,0.2,0.4,0.4,0.5s0.5-0.3,0.5-0.9s-0.2-1.1-0.4-1.1
		C105.4,30.2,105.2,30.5,105.2,30.9L105.2,30.9z"/>
	<path class="st0" d="M168.9,30.2c-0.8,0.5-0.5,2.7,0.5,2.8c0.8,0.1,0.9-0.3,0.2-1c-0.5-0.4-0.4-0.6,0.2-0.9
		c0.4-0.2,0.6-0.6,0.5-0.8C170,29.7,169.6,29.7,168.9,30.2L168.9,30.2z"/>
	<path class="st0" d="M103.2,28.8c0,0.7,0.1,0.9,0.2,0.5c0.1-0.4,0.1-1,0-1.2C103.3,27.8,103.2,28.1,103.2,28.8z"/>
	<path class="st0" d="M103.7,10.7c-0.5,0.2-1,0.5-1,0.8c0,0.2-0.3,0.4-0.8,0.4c-0.4,0-1.9,1.1-3.4,2.5c-2.2,2.1-2.6,2.6-2.4,3.5
		c0.2,0.7,0,1.4-0.6,2.1c-1.5,2-1.5,9,0,7.5c0.6-0.6,2,0,2,0.9c0,0.3,0.5,1,1,1.5c0.9,0.9,1,0.9,1.3,0.2c0.2-0.4,0-1-0.3-1.3
		c-0.7-0.7-0.5-2.7,0.2-2.7c0.2,0,0.5,0.4,0.6,0.8c0.3,1.2,1.8,1,3.1-0.5l1.2-1.3v1c0,0.8,0.3,1.2,1.2,1.5c0.7,0.3,1.3,0.3,1.5,0.1
		c0.4-0.7,0.9-0.4,1.2,0.9c0.2,0.8,0.5,1.2,1,1.2c1,0,1.3,0.4,0.8,1.1c-1.5,1.7-1.5,1.8-0.6,2.4c0.8,0.5,0.8,0.7,0.3,1.3
		c-0.5,0.6-0.5,0.8,0.1,1.1c0.9,0.5,0.5,1.2-0.5,1.2c-0.6,0-0.8,0.4-1,2c-0.2,1.8-0.1,2.1,0.9,3.1c0.6,0.6,1.2,1.4,1.4,1.8
		c0.3,0.8,1.3,1,1.8,0.3c0.1-0.2,0-0.7-0.4-1.1c-0.5-0.5-0.5-0.8-0.2-1.4s0.2-0.8-0.5-1c-1-0.3-0.7-1.1,0.5-1.1c0.6,0,0.8,0.3,0.8,1
		c0,1,1,1.5,1.4,0.6c0.1-0.2,0.5-0.4,0.9-0.4c0.5,0,0.5,0.3,0.3,1.1c-0.2,0.7-0.5,1.2-0.7,1.3c-0.6,0.2-0.4,1.8,0.3,2
		c0.9,0.4,1.7-0.3,0.9-0.8c-0.4-0.2-0.7-0.5-0.7-0.8c0-0.7,1.3-0.5,2.1,0.2c0.9,0.8,1.6,0.5,1.6-0.7c0-0.4,0.6-1.3,1.2-1.9
		c0.7-0.6,1.2-1.4,1.2-1.8s0.3-1.4,0.7-2.2c0.5-1.2,0.6-1.7,0.2-2.5c-0.2-0.5-0.3-1.1-0.1-1.3c1-1.1,1.3-3.8,0.9-6.4
		c-0.2-1.5-0.5-3.5-0.5-4.6c0-2.5-1.5-4.9-5.2-8.4c-3.1-2.9-4.4-3.4-9.1-3.5C106.5,10.4,104.2,10.5,103.7,10.7L103.7,10.7z"/>
	<path class="st0" d="M49.3,452.2c0.1,0.2,0.4,0.4,0.7,0.4c0.2,0,0.4-0.2,0.4-0.4c0-0.2-0.3-0.4-0.7-0.4
		C49.4,451.8,49.2,451.9,49.3,452.2z"/>
	<path class="st0" d="M155.1,7.4c-0.8,0.5-1.5,1-1.6,1.2s-0.8,0.5-1.6,0.6s-1.6,0.6-1.9,1c-0.2,0.5-0.8,0.8-1.2,0.8s-1.2,0.5-1.9,1
		c-0.6,0.6-1.3,1-1.6,1c-0.6,0-4.7,5.3-5.3,6.9c-0.2,0.6-0.4,1.6-0.4,2.3c0,0.6-0.2,1.2-0.6,1.4c-0.3,0.1-0.7,0.8-0.8,1.4
		c-0.5,2.3-1.4,5.5-2.3,7.2c-1.1,2.4-1.1,2.7,0.2,3.5l1.1,0.6l-1,0.3c-1.3,0.4-2.2,2.6-1.7,4.4c0.2,0.8,0.6,3.4,0.8,5.8
		c0.5,4.7,0.9,5.8,1.9,5.8c0.7,0,3.4,2.7,3.4,3.4c0,0.6,1.3,1.5,2.2,1.6c0.4,0,1.4,0.7,2.2,1.5c1.6,1.7,1.6,1.6,2.6,1
		c1.1-0.7,1.9-0.2,2.2,1.3c0.2,1,0.5,1.3,1.3,1.3c0.5,0,1.1,0.3,1.2,0.6c0.1,0.3,0.6,0.6,1.1,0.6s1,0.3,1.1,0.7
		c0.5,1.5,0.9,2,2.1,2.1c2.7,0.2,3.9,0.6,3.9,1.3c0,0.4,0.3,1.1,0.6,1.5c0.8,1,0.8,2.7,0,2.7c-0.4,0-0.6-0.4-0.6-1c0-0.8-0.2-1-1-1
		c-1,0-1,0.1-1,2.2c0,1.2,0.3,2.7,0.6,3.2c0.5,0.9,0.5,1.1-0.1,1.8c-1,1.1-1.8,0.9-2-0.4c-0.4-1.9-0.5-2-0.9-0.9
		c-0.2,0.6-0.8,1.2-1.1,1.4c-0.5,0.2-0.7,0.5-0.5,1.4c0.2,0.6,0.3,1.7,0.4,2.5c0.2,2,2.9,5.9,4.6,6.6l1.4,0.7l-1.1,0.6
		c-1,0.5-1.2,0.5-2.3-0.3c-0.9-0.7-1.3-0.8-1.8-0.4s-1,0.4-2.4,0c-1-0.3-2-0.4-2.2-0.2c-0.5,0.3-0.1,1.9,0.5,1.9
		c1.4,0,2.7,3.4,1.4,3.7c-0.5,0.1-0.8-0.1-0.8-0.5c0-0.3-0.2-0.8-0.5-0.9c-0.3-0.2-0.4,0.2-0.3,0.9c0.1,1.3-0.4,2.7-0.9,2.7
		c-0.2,0-0.4-0.2-0.4-0.5s-0.6-0.9-1.3-1.3c-0.9-0.5-1.2-1-1.1-1.6c0.2-1.2,0.9-1,1.2,0.2c0.2,0.8,0.3,0.9,0.6,0.2
		c0.2-0.4,0.2-1,0-1.4s-0.1-0.9,0.2-1.2c0.3-0.4,0.3-0.6,0-0.9c-0.3-0.2-0.6-0.1-0.7,0.2c-0.2,0.7-0.9,0.6-1.8-0.2
		c-1.2-1.1-2.2-0.4-1.8,1.2c0.5,2.3,0.7,5.3,0.4,5.3c-1,0-1.9-1-1.9-2.1c0-1.4-0.6-1.9-2.2-1.8c-0.8,0.1-1.3-0.1-1.4-0.5
		c-0.3-0.9-0.9-0.8-1.1,0.2c-0.3,1.1-1,1-2.2-0.2c-0.8-0.9-1-1-1.3-0.4s-4.4,1.1-4.9,0.5c-0.2-0.1-0.8,0-1.5,0.4
		c-1.1,0.5-1.3,0.6-1.7,0c-0.5-0.6-2.9-1.5-3.9-1.5c-0.3,0-0.8,0.5-1,1c-0.5,1.2-1.9,1.4-2.5,0.2c-0.9-1.7-3.4,0.5-3.4,2.8
		c0,0.6-0.3,1.4-0.6,1.8s-0.7,1.2-0.9,1.9c-0.2,0.9-0.5,1.2-1.5,1.2c-0.7,0-1.4-0.2-1.7-0.6c-0.7-1-1.8-0.3-1.5,1
		c0.2,0.9,0.1,1.1-0.7,1.1c-1,0-1.6,1.1-0.9,1.8c0.2,0.2,0.5,0.7,0.5,1s0.4,1,0.8,1.5c1,1.1,1,1.3-0.1,2.6c-0.8,0.8-1.4,1.1-3,1.2
		l-2.1,0.1l0.2-1.6c0.1-0.9,0.2-2.2,0.1-2.9c-0.2-3.7-0.4-5.1-0.7-6.5c-0.2-1.2-0.2-1.5,0.3-1.8c1-0.4,0.9-1.7-0.2-1.3
		c-0.5,0.2-0.8,0.1-0.8-0.2c0-0.8-2-0.5-2.5,0.4c-0.6,1.2-1.2,1-1.8-0.4c-0.3-0.9-0.6-1.2-0.9-0.9c-0.8,0.6-3.3,0.4-3.9-0.3
		c-0.4-0.6-0.5-0.4-0.5,0.8c0,0.9,0.3,1.8,0.6,2c0.5,0.4,0.5,0.7,0.2,1.1c-0.2,0.3-0.7,0.6-1,0.6s-0.4,0.4-0.3,1
		c0.1,0.6,0.5,1,0.8,1c0.5,0,0.4,0.2-0.2,1c-0.8,1.1-2.6,1.4-2.6,0.5c0-0.3,0.2-0.7,0.5-0.8c0.2-0.1,0.4-0.3,0.2-0.5s-0.6,0-1,0.4
		s-0.9,0.7-1.1,0.7s-0.4,0.4-0.4,0.8c0,1.1-1,1.5-3.9,1.6c-1.4,0-2.7,0.2-2.9,0.5c-0.7,0.7-1.1,0.5-1.5-0.5l-0.4-0.9l-0.3,0.9
		c-0.4,1.3-1.2,1.2-1.5-0.1c-0.2-1-0.1-1,1.6-1c1.5,0,1.8-0.2,2-1c0.2-0.5,0.8-1.3,1.3-1.8c1-0.8,1-0.9,0.2-1.8l-0.8-1l-2,0.9
		c-1.8,0.8-2.1,0.8-2.4,0.2c-0.2-0.5-0.8-0.6-2-0.5c-1,0.1-1.9,0.4-2.2,0.7c-0.2,0.2-0.8,0.4-1.3,0.4s-1.4,0.5-2.1,1.2
		c-0.9,0.9-1.3,1.1-1.8,0.8c-0.8-0.7-1.8-0.1-1.8,1s-1,1.9-2.4,1.9c-0.5,0-0.9,0.2-0.9,0.8c0,0.5-0.5,0.9-1.3,1.2l-1.4,0.5l1.3,0.8
		c1.4,0.9,3,0.8,3-0.2s0.7-0.7,1,0.3c0.4,1.6,0.7,1.4-3.5,2.7c-2.8,0.8-3.3,0.8-3.3-0.4c0-1.4-0.7-1.8-1.6-0.9c-0.7,0.6-0.8,0.7-1,0
		c-0.3-0.8-1.8-0.5-2.5,0.4c-0.2,0.3-0.7,0.6-1,0.8c-0.3,0.1,0,0.2,0.8,0.1c1.8-0.2,3.8,0.5,3.6,1.2c-0.1,0.2-0.7,0.5-1.3,0.6
		c-0.7,0.1-2.4,0.8-3.8,1.6c-1.4,0.8-2.8,1.3-3.1,1.2c-0.2-0.2-0.8,0-1.1,0.2c-0.5,0.4-0.8,0.4-1.7-0.1c-1.3-0.7-1.8-0.1-1.8,2
		c0,0.8-0.2,1.4-0.4,1.4s-0.5,0.4-0.5,0.9c-0.2,1.1-3.1,2.2-3.9,1.6c-0.7-0.6-1.4-0.1-1.4,0.8c0,0.4-0.2,1-0.6,1.2
		c-0.3,0.2-0.5,0.9-0.4,1.5s-0.1,1.2-0.5,1.5s-1.5,1.3-2.4,2.1c-0.9,0.9-2.2,2-2.9,2.5c-0.7,0.5-1.4,1.3-1.6,1.9s-0.8,1.2-1.4,1.4
		c-0.6,0.2-1.3,0.9-1.7,1.5c-0.3,0.6-1.4,1.9-2.3,2.8c-1,0.9-1.7,1.8-1.7,2.1s-0.5,1-1.2,1.5c-0.7,0.6-1.2,1.3-1.2,1.7
		c0,0.3-0.5,1-1,1.5s-1,1.2-1,1.5s-0.5,1.2-1.2,1.9c-0.7,0.8-1.2,1.7-1.2,2.1s-0.2,0.8-0.4,0.8c-0.7,0-1.8,2.1-1.3,2.7
		c0.6,0.8-1.5,3.7-2.6,3.5c-1.2-0.2-1.2-0.9,0-2.2c0.6-0.7,1-1.6,1-2.3c0-0.9,0.4-1.5,1.2-2.2c1.5-1.1,1.5-1.3,0.4-2.4
		c-1.1-1-2.5-0.5-2.5,0.8c0,0.5-0.2,0.8-0.5,0.8c-0.9,0-1.7,2-1.1,2.7c0.4,0.5,0.2,0.6-0.8,0.8c-1.4,0.3-1.8,1-0.5,1
		c1.1,0,1.5,0.7,0.9,1.5c-1.1,1.4-3.3,5.4-3.3,6c0,0.4-0.2,0.8-0.5,0.9c-0.3,0.1-0.6,1.1-0.7,2.2c-0.1,1.2-0.2,2.7-0.3,3.5
		c-0.1,0.9-0.5,1.9-1.2,2.6c-1.2,1.3-1.4,2.2-0.4,2.8c0.5,0.3,0.6,0.5,0.3,1c-0.8,1-1.5,5.5-1.5,9.1c0,2,0.1,3.9,0.1,4.4
		c0,1.5-0.9,7.7-1.1,8.1c-0.1,0.2,0,0.8,0.2,1.2c0.4,0.6,0.3,1-0.2,2c-0.8,1.4-0.7,4.8,0.1,9.1c0.3,1.4,0.5,6.9,0.6,12.3
		c0.1,12.1,0.7,16.2,2.5,17.7c0.7,0.5,1.6,1,2,1c0.7,0,0.8,0.2,0.5,1.1c-0.1,0.7-0.7,1.6-1.1,2.1c-0.8,0.9-0.8,1.1-0.4,3.3
		c0.3,1.3,0.4,2.5,0.2,2.7s0,0.7,0.2,1.1c0.2,0.5,0.6,2.1,0.9,3.6s0.8,3.6,1.2,4.6c0.5,1,0.8,2.3,0.8,2.9s0.3,1.7,0.7,2.4
		c0.4,0.8,0.7,2.4,0.7,4.6c0,2.8,0.2,3.7,1,5.5c0.8,1.5,1.2,3.1,1.4,5.5c0.3,3.6,0.9,6.3,1.9,8.4c0.3,0.7,0.5,1.5,0.3,1.8
		c-0.6,1-0.3,7.5,0.4,8.9s1.2,3.5,2,8.4c0.2,1.6,0.8,3.5,1.2,4.2c0.5,0.7,1,2.1,1.1,3.1c0.4,2.1,1.3,2.7,1.3,0.9
		c0-1.3,0.9-2.4,1.7-1.9c0.6,0.4,0.5,1.3-0.2,1.6c-0.9,0.3-0.9,9.1,0,10c0.3,0.4,0.7,1,0.8,1.5c0.1,0.5,0.5,1.2,0.8,1.6
		c0.3,0.4,0.8,1.5,1,2.6c0.5,1.8,2.2,5.6,3.6,7.5c0.3,0.5,0.6,1.5,0.6,2.3c0,1.1,0.2,1.4,1.1,1.8c1,0.4,1.1,0.6,0.8,2
		c-0.5,3-0.5,3.2,0.3,3.2c0.4,0,0.7,0.2,0.7,0.7c0,0.4,0.4,1.1,0.8,1.7c0.5,0.6,0.8,1.5,0.8,2.6c0,1.4,0.1,1.6,1.1,1.6
		c0.9,0,1,0.1,0.8,1c-0.1,0.5-0.1,1.1,0,1.2c0.1,0.2,0.3,1.6,0.4,3.2c0.1,2.2,0.4,3.3,1.2,4.5c0.8,1.3,1,2.1,0.9,4.1
		c0,1.4,0.2,2.9,0.4,3.5c0.2,0.5,0.7,1.8,1,2.8c0.2,1,0.7,2.5,0.9,3.4c0.3,1.1,0.2,1.8-0.2,3c-0.4,0.9-0.7,2.6-0.7,3.8
		c0,2,0.1,2.3,1.1,2.7c0.9,0.4,1.2,0.4,1.6-0.2c0.6-0.9,0.9-0.5,0.9,1.1c0,1.4-1,1.9-1.4,0.8c-0.4-1.2-2.3-0.5-1.9,0.8
		c0.2,0.5,0.1,0.8-0.2,0.8c-0.6,0-1.2,1.8-1,2.9c0.2,0.6,0.5,0.8,1,0.7c1-0.2,1,0,0,2c-1.2,2.6-1.9,5.4-1.4,6.3
		c0.3,0.5,0.3,1.8,0,3.9c-0.5,3.2-0.6,15.8-0.2,20.2c0.1,1.4,0.5,3.7,0.7,5.2s0.4,3.2,0.2,3.8s0,1.2,0.2,1.4
		c0.2,0.1,0.4,1.2,0.4,2.4c0,3,2.3,12.5,3.3,13.7c0.2,0.3,0.4,0.9,0.3,1.4s0.2,1.5,0.7,2.4s1.2,2.3,1.6,3.2c0.4,0.8,1,1.7,1.4,2
		c1.2-0.3,1.5,0.3,1.5,0.7c0,0.4,0.5,1.5,1,2.3c0.5,0.8,1,1.8,1,2.2s0.5,0.9,1.1,1.2c1,0.5,1.1,0.5,0.4,1.3
		c-0.7,0.8-0.7,0.8,0.5,1.9c0.6,0.6,1.3,1.4,1.6,1.8c1,1.8,2.2,3.2,3.9,4.9c1,1,1.8,2,1.8,2.3c0,0.6,2.2,2.5,4.4,3.8
		c0.7,0.4,1.4,1,1.7,1.3c0.2,0.2,1.6,1.2,3.1,2c5.8,3.2,6.9,3.8,7.5,4.3c1.4,1.2,5.5,2.7,7.2,2.7c1,0,2.8,0.2,4.1,0.6
		c1.8,0.4,3.2,0.5,5.8,0.2c1.9-0.2,4.7-0.5,6.1-0.6c1.5-0.1,3-0.5,3.4-0.8c1-0.9,7.9-4.3,8.7-4.3c0.4,0,1.2-0.4,1.8-0.8
		c1.7-1.3,5.3-3.7,5.6-3.7c0.9,0,6-6.2,9.4-11.5c1.4-2.1,3.3-5,4.3-6.4s1.8-2.8,1.8-3.1c0-0.3,0.2-0.9,0.5-1.3
		c1.2-1.8,2.4-6.4,2.4-9.3c0-0.8,0.2-1.7,0.5-1.9c0.2-0.3,0.4-1.7,0.4-3c-0.1-2.4,0.4-3.4,1.7-3.9c0.3-0.1,0.5-0.8,0.4-1.8
		c-0.2-3,0.3-8.4,1.4-14.9c0.4-2.3,0.8-5.7,0.8-7.5c0-1.8,0.1-5.1,0.2-7.3c0.1-4.2,0.6-6.4,1.8-7.7c0.9-1,1-4.7,0.1-5.8
		c-0.3-0.5-0.6-1.7-0.6-2.9c0-1.2-0.3-2.9-0.7-3.7c-0.5-1.1-0.6-2.2-0.4-3.7c0.3-3.1-0.4-13.7-1.2-17.1c-0.4-1.6-0.8-5.2-1-7.9
		c-0.2-4-0.5-5.2-1-5.9c-0.6-0.7-0.7-1.2-0.5-2.7c0.2-1.6,0.2-1.9-0.5-2.3c-1.1-0.6-1.4-2.6-0.9-4.9c0.5-2.1,0.2-2.7-1.2-2.4
		c-0.6,0.2-1,0.6-1,1.3c-0.1,1.2-0.7,1.5-1.6,0.9c-0.5-0.3-0.5-0.5-0.1-0.9c0.2-0.2,0.5-0.9,0.5-1.4s0.5-1.4,1-2.1
		c1.6-1.9,1.7-2.9,0.3-3.7c-1.5-0.8-1.8-1.2-1.3-2.2c0.5-0.9-0.1-2.6-0.9-2.6c-0.5,0-2.6-1-4.4-2c-1.9-1.1-2.9-1.4-3.4-1
		c-0.7,0.7,0,1.7,1.8,2.7c0.9,0.5,1.5,1,1.4,1.2c-0.4,0.5-2.1,0.4-2.7-0.3c-0.3-0.3-1.2-0.6-2-0.6c-1,0-1.9-0.3-2.5-0.9
		c-0.5-0.5-1.2-0.8-1.5-0.6c-0.4,0.2-0.6-0.1-0.6-0.8c0-0.8,0.2-1,0.8-0.8c0.5,0.1,0.9,0,1.1-0.2c0.5-0.8-0.2-2-1.4-2.3
		c-1.2-0.3-3-1.6-3-2.2c0-0.2-0.7-1-1.4-1.9c-0.8-0.8-1.4-1.8-1.4-2.1c0-0.3-0.4-0.8-0.8-1.1c-0.8-0.4-0.9-0.3-1.3,0.8l-0.4,1.3
		l-1.4-1.4c-1.1-1-1.3-1.5-1-2.1c0.5-0.9,0.2-1.9-0.6-2.2c-0.3-0.1-0.9-0.9-1.2-1.7c-0.6-1.5-0.7-1.5-2.2-1.2
		c-3.2,0.5-4.2,0.4-5.4-0.8c-1.6-1.5-3.3-1.5-4.9,0.1c-1.7,1.7-2.2,0.9-0.7-1.1c1.1-1.4,1.2-1.4,3.2-1.3s2.1,0.1,2.1-0.9
		c0-0.6,0.2-1.3,0.4-1.6c0.3-0.6-0.9-3.4-1.5-3.4s-0.4-0.9,0.3-1.4c0.6-0.4,0.5-0.7-0.7-1.8c-0.7-0.7-1.1-1.3-0.9-1.3s0.6-0.5,0.9-1
		c0.5-1.1,0.4-1.2-1.4-1.5c-1.3-0.2-1-1.3,0.5-1.7c1.1-0.3,1.4-0.7,1.8-1.9c0.4-1.4,0.4-1.8-0.7-3.2c-0.8-1.2-1.4-1.7-2.4-1.8
		c-1.3-0.2-1.3-0.2-1.3-2.4s0.5-3,0.7-1c0.1,1,0.3,1.2,1.5,1.3c1.6,0.2,2.7-0.5,1.6-1c-0.4-0.1-0.7-0.7-0.7-1.2c0-1.2-1-1.8-2.1-1.1
		c-1,0.6-1.9,0.2-2.2-0.8c-0.2-0.5-0.1-2.5,0-4.5c0.2-3.1,0.2-3.8-0.4-4.3c-0.8-0.8-0.5-1.8,0.6-2.4c1-0.5,1.4-3.9,0.6-5.5
		c-0.5-0.9-0.5-1.4-0.2-2c0.7-1.3,0.5-2.1-0.7-2.4c-0.9-0.2-1.3,0-2.4,1.3c-1.1,1.2-1.6,1.5-2.4,1.2c-1.2-0.4-1.4-0.6-0.9-1
		c1-0.7,4.3-5.6,4.3-6.5c0-0.5,0.3-1.2,0.6-1.5s0.6-1,0.6-1.7c0-1-0.2-1.2-1-1.2c-1.5,0-1.6-0.5-0.2-3c0.9-1.7,1.2-2.8,1.2-4.5
		c0-2.9,0.6-4,1.2-2.3c0.2,0.6,0.4,1.3,0.2,1.5s-0.1,0.7,0.1,1c0.3,0.6,0.4,0.5,0.6-0.4c0.2-0.5,0.7-1.1,1.1-1.2
		c1.1-0.3,1.1-1.4,0-1.8c-1-0.3-1-0.7-0.3-1.4c0.3-0.3,0.3-0.6,0-1.1c-0.3-0.4-0.3-0.7-0.1-0.8c0.2-0.1,0.5,0,0.5,0.2
		c0.1,0.2,0.9,0.5,1.9,0.7c1.4,0.2,1.8,0.1,2-0.5c0.3-0.8,1-0.5,1,0.6c0,0.5,0.5,1,1.5,1.5c2.6,1.1,3.6,0,1.6-1.8
		c-0.6-0.5-1-1.1-1-1.3c0-0.2-0.5-0.6-1-0.8c-0.6-0.2-1-0.7-1-1c0-0.4-0.6-0.8-1.8-1c-2.1-0.4-2.5-1.2-0.9-1.8
		c0.7-0.2,1.4-0.8,1.7-1.2c0.5-0.8,0.4-0.9-0.5-1.2c-1.2-0.5-1-1.3,0.2-1c1.3,0.4,3-1,2.8-2.3c-0.2-1.4-1.4-1.7-3.3-0.8
		c-0.8,0.4-1.9,0.8-2.5,0.9c-1.3,0.3-1.9,1.6-1.9,4c0,0.9-0.2,1.6-0.4,1.6c-0.5,0-1.3-1.6-0.9-1.8c0.2-0.1,0.5-1.3,0.6-2.6
		c0.2-2.5,0.8-3.2,2.2-2.9c1,0.2,2.6-1,2.6-2.1c0-0.4,0.4-0.6,1-0.6s1.5-0.5,2-1c0.5-0.6,1.2-1,1.4-1s0.8-0.2,1.2-0.5
		c0.6-0.4,0.9-0.3,1.5,0.2c0.7,0.8,1.4,0.9,2.4,0.5c1.1-0.4,0.8-0.9-1-1.2c-2.2-0.4-2.2-1.4,0.1-2.7c1.6-1,2.4-1.1,6.3-1.3
		c3.8-0.1,4.5-0.2,4.9-0.9c0.4-0.7,0.5-0.7,1.3,0.1c0.8,0.8,1.1,0.8,2.2,0.4c1.8-0.6,2.7-0.3,3,0.9c0.3,1.5,2.3,1.7,2.9,0.3
		c0.2-0.5,0.2-1.1,0-1.4c-0.6-0.7-0.4-0.9,1.2-1.4c0.9-0.3,2.5-1.2,3.5-2s2.2-1.5,2.5-1.5s0.8-0.3,1.1-0.6c0.3-0.4,0.8-0.6,1-0.5
		s1-0.3,1.7-0.8c0.8-0.6,1.4-0.9,1.9-0.8c0.5,0.2,0.9,0,1.1-0.5c0.2-0.4,0.7-1.3,1.2-2s1.2-1.9,1.5-2.7c0.7-1.7,3-4.2,3.8-4.2
		s1.9-1.4,1.9-2.4c0-0.6,0.2-0.9,0.8-0.9c0.8,0,2-1.9,1.5-2.4c-0.4-0.4,1.6-3.5,2.4-3.9c0.5-0.2,1.4-1.5,2.2-3.1
		c1.4-2.9,2.9-4.7,4.4-5.1c2.2-0.7,3.8-1.6,4.7-2.9l0.9-1.4l-1.3-0.5l-1.3-0.5l1.2-0.9c0.6-0.5,1.1-1.2,1.1-1.5
		c0-0.5,2.1-1.8,2.9-1.8c0.2,0,1.5-0.8,2.8-1.9c2.3-1.8,3.8-4.2,3.8-6.1c0-0.8,3.6-6.3,4.2-6.5c0.2-0.1,0.4-0.5,0.4-1
		c0-0.4,0.5-2.2,1.2-3.8c0.7-1.7,1.8-4.6,2.4-6.6c0.7-2,1.4-3.9,1.8-4.3c0.5-0.5,0.5-0.9,0.1-1.5c-0.6-1-0.7-2.7-0.1-3.1
		c0.2-0.1,0.4-1.5,0.4-2.9c0-1.8,0.2-2.8,0.6-3.1c0.7-0.6,0.1-3.7-0.9-4.5c-0.5-0.4-0.5-0.7-0.1-1.8c0.3-0.8,0.4-1.4,0.1-1.8
		c-0.3-0.4-0.5-1.7-1.1-6.6c0-0.6-0.5-1.7-0.9-2.5c-0.6-1.1-0.8-2.5-0.9-6c0-2.5-0.1-4.9-0.1-5.3s-0.5-0.9-1.1-1.1
		c-1.2-0.5-1.3-0.8-0.5-1.6c0.4-0.4,0.2-0.5-0.8-0.5s-1.3-0.2-1.3-0.9c0-0.5,0.3-1,0.8-1.1c1.1-0.3,0.9-1.6-0.2-1.6
		c-0.5,0-1.1-0.2-1.4-0.4c-0.8-0.5-2.9-0.3-4.1,0.5c-1.5,1-1.9,0.2-0.7-1.1c0.6-0.6,1-1.2,0.8-1.3c-0.7-0.3-2.3-3.2-2-3.7
		c0.1-0.2,0.6-0.4,1-0.4c0.6,0,0.8-0.3,0.7-1.6c0-0.8-0.2-1.9-0.5-2.3c-0.5-1.1,0.3-1.8,1.3-1.1c1.2,0.7,2.2,0.2,1.9-0.9
		c-0.2-0.7,0-1,0.7-1.1c1-0.2,1.1-0.7,0.2-1.5c-0.4-0.4-0.7-1.5-0.7-3c-0.1-2.2-0.2-2.5-1.5-3.2c-1.4-0.8-1.8-0.7-2.2,0.7
		c-0.1,0.2-0.5,0.1-1-0.2c-0.8-0.5-1-0.5-1.3,0c-0.2,0.5-0.5,0.2-0.7-0.8c-0.5-1.6-1.5-2-2.6-1c-0.4,0.4-0.9,0.5-1,0.3
		c-0.4-0.7,0.2-1.8,1-1.7c1,0.1,2.9-0.5,2.9-0.9c0-0.2,0.3-0.3,0.7-0.1c0.3,0.1,0.5,0.5,0.4,0.8c-0.2,0.7,0,0.8,1.7,1.2
		c0.9,0.2,1.4-0.3,1.4-1.5c0.1-1.5,0.3-1.8,1.1-1.9s0.9-0.3,0.7-1.5c-0.2-0.8-0.5-1.5-0.9-1.8c-0.7-0.6-0.8-2.3-0.1-3
		c0.4-0.4,0.3-0.7-0.2-1.2c-0.8-0.9-0.5-3.4,0.3-3.4c0.3,0,0.4-0.5,0.3-1.2c-0.2-1.5-1.7-1.8-1.8-0.3c0,0.7-0.1,0.8-0.2,0.2
		c-0.1-0.4,0.1-1.2,0.5-1.7s0.7-1.4,0.7-1.9c0-0.8,0.2-1,0.8-0.7c1.9,0.8,2.2,0.8,2.2-0.5c0-1.4-1.4-3.9-2.2-3.9
		c-0.3,0,0.1-0.4,0.8-0.9c0.9-0.6,1.3-1.2,1.3-1.9c0-1.2-0.6-1.3-1.2-0.3c-0.3,0.5-0.4,0.5-0.5,0c0-0.4,0.2-0.7,0.5-0.7
		c0.7,0,0-4.5-0.8-5.5c-0.6-0.8-0.7-0.7-1.1,0.4l-0.5,1.1l-0.8-1.2c-0.4-0.6-1.1-1.1-1.5-1.1c-1.2,0-1.4-1.2-0.7-2.6
		c1-1.7,0.9-2.8-0.1-2.8c-0.4,0-1-0.4-1.2-0.9c-0.4-0.7-0.6-0.7-1.1-0.3c-0.3,0.3-1,0.5-1.5,0.5c-0.6,0-0.9,0.3-1,0.9
		c-0.1,1-0.9,1.4-0.9,0.5c0-0.2-0.4-1.3-0.9-2.3l-0.9-2l1.2-2.3c0.7-1.2,1.4-2.3,1.7-2.4c0.6-0.2,2.6,2,2.6,2.9c0,0.4,0.2,0.8,0.4,1
		c0.2,0.1,0.4,0.6,0.4,1c0,1.3,1.1,2,2.7,1.8l1.4-0.2l-0.2,1.5c-0.2,1.3-0.1,1.5,0.9,1.9c1,0.3,1,0.5,0.7,1.2
		c-0.2,0.5-0.4,0.8-0.3,0.9c0.1,0,0.6,0.1,1.2,0.2c1.8,0.3,2.1,0.5,2.1,1.5c0,0.5,0.5,1.5,1,2.1c0.7,0.8,1,1.9,1.2,3.7
		c0.1,1.4,0.4,2.7,0.6,3c0.5,0.8,0.8,2.2,0.5,2.8c-0.2,0.3,0,0.9,0.5,1.5c0.4,0.6,0.8,1.3,0.8,1.7c0,0.3,0.4,1.2,0.9,2
		c0.7,1.1,1,1.3,1.8,1s1-0.8,1.4-4c0.5-3.4,0.4-4-0.3-6.6c-0.5-1.6-1-3.9-1.2-5c-0.2-1.2-0.5-3.2-0.8-4.5c-0.2-1.3-0.7-2.9-1-3.5
		c-0.3-0.6-0.7-2.1-0.8-3.2c-0.1-1.2-0.6-2.8-1-3.7c-0.5-0.9-1-2.5-1.1-3.5c-0.2-1-0.5-1.8-0.7-1.8s-0.7-0.7-1.1-1.6
		c-0.4-0.8-1.5-2.4-2.5-3.5s-1.8-2.2-1.8-2.5s-0.5-0.8-1-0.9c-0.7-0.2-1-0.5-1-1.1c0-0.4-0.5-1-1-1.3s-1.9-1.2-3.2-2.1
		c-3-2-7.1-3.4-8.7-2.9c-0.7,0.2-1.2,0.3-1.3,0.3c0-0.1-1.2-0.2-2.4-0.4C156.9,6.6,156.3,6.7,155.1,7.4L155.1,7.4z M158.5,21.7
		c0.1,0.6-0.1,0.9-1,1c-1.3,0.2-1.6-0.7-0.5-1.8C157.8,20.1,158.3,20.4,158.5,21.7L158.5,21.7z M165.5,22.2c0,0.3-0.2,0.5-0.4,0.4
		s-0.4-0.4-0.4-0.7c0-0.2,0.2-0.4,0.4-0.4C165.3,21.5,165.5,21.8,165.5,22.2z M161.6,23.3c-0.1,0.3-0.2,0.1-0.2-0.5s0.1-0.8,0.2-0.5
		C161.7,22.5,161.7,23,161.6,23.3z M145.2,23.7c-0.4,0.4-0.5,0.3-0.5-0.5s0.1-0.9,0.5-0.5C145.6,23,145.6,23.3,145.2,23.7z
		 M167,26.1c0,0.7-0.2,1.1-0.8,1.2c-0.9,0.1-2,2-1.4,2.4c0.7,0.4-0.1,1.5-1.1,1.5c-0.5,0-1,0.2-1,0.4s0.2,0.4,0.5,0.4s0.4,0.4,0.2,1
		c-0.1,0.5,0,1.6,0.2,2.3c0.3,1.2,0.3,1.3-0.7,1.3c-1.1,0-1.5-0.7-1.4-2.2c0-0.5,0-2.1,0.1-3.6c0-2.5,0.1-2.7,1.5-3.7
		c0.9-0.6,1.8-1.4,2.1-1.7C165.9,24.5,167,24.9,167,26.1L167,26.1z M169.2,25.7c0,0.2-0.2,0.4-0.4,0.4s-0.4-0.2-0.4-0.4
		s0.2-0.4,0.4-0.4C169.1,25.2,169.2,25.4,169.2,25.7z M155.9,27.2c0,0.3,0.5,0.8,1,1.2c1.4,0.9,1,1.4-1.2,1.4
		c-1.9,0-2.7-0.5-1.6-1.2c0.5-0.3,0.6-0.6,0.2-1.2c-0.6-1.2-0.2-1.9,0.8-1.3C155.6,26.5,155.9,26.9,155.9,27.2L155.9,27.2z
		 M142.7,29.5c-0.4,0.4-0.5,0.3-0.5-0.5s0.1-0.9,0.5-0.5S143.1,29.1,142.7,29.5z M153.5,32.3c0,0.5-0.2,0.8-0.4,0.8
		s-0.3-0.4-0.2-0.8s0.3-0.8,0.4-0.8S153.5,31.9,153.5,32.3z M152.2,38c-0.4,0.7-0.4,0.6-0.5-0.5c0-0.9,0.1-1.1,0.5-0.8
		C152.6,37.1,152.6,37.4,152.2,38z M154.7,37.6c0,0.3-0.2,0.5-0.4,0.4c-0.2-0.2-0.3-0.5-0.2-0.7C154.4,36.7,154.7,36.8,154.7,37.6
		L154.7,37.6z M170.9,38.8c0.5,1.4,0.5,1.3-0.4,1.5c-0.6,0.2-0.9,0-1.1-0.8C168.9,37.7,170.2,37,170.9,38.8z M163.2,39.8
		c0.1,0.2,0,0.5-0.2,0.7c-0.7,0.4-2.6-0.2-2.3-0.6C161,39.3,162.9,39.3,163.2,39.8L163.2,39.8z M151.2,42.2
		c-0.4,0.4-0.8-0.2-0.4-0.8c0.2-0.5,0.3-0.5,0.5,0C151.4,41.7,151.3,42.1,151.2,42.2z M173.8,42.1c0,0.9-0.2,1-0.8,0.9
		c-0.5-0.1-0.8,0-0.8,0.2s0.2,0.4,0.4,0.4s0.4,0.7,0.4,1.5c0,1.8-0.6,1.9-1.4,0.2c-0.4-0.7-0.9-1.3-1.3-1.5c-1-0.4-0.6-2.1,0.5-2.1
		c0.5,0,1-0.1,1.2-0.3c0.2-0.2,0.7-0.3,1.1-0.3C173.6,41.1,173.8,41.3,173.8,42.1L173.8,42.1z M162.2,41.8c0,0.5-0.5,0.9-0.9,0.7
		c-0.4-0.2,0-1,0.5-1C162,41.5,162.2,41.7,162.2,41.8L162.2,41.8z M178.8,45.1c0,0.8-0.2,1.4-0.4,1.4c-0.5,0-0.9-1.9-0.6-2.7
		C178.2,42.8,178.8,43.5,178.8,45.1L178.8,45.1z M162.9,56.5c-0.1,0.3-0.2,0.1-0.2-0.5s0.1-0.8,0.2-0.5
		C163,55.8,163,56.3,162.9,56.5z M164.3,59.3c0,0.2-0.4,0.8-0.8,1.2l-0.8,0.8v-1.2c0-1,0.2-1.2,0.8-1.2
		C163.9,58.9,164.3,59.1,164.3,59.3z M169.7,62.3c0.4,0,1.6,2.4,1.6,3.2c0,0.3-0.4,0.5-0.8,0.5c-0.8,0-1.4-1.2-1.9-4.2
		c-0.2-1.3-0.2-1.4,0.2-0.5C169.2,61.8,169.5,62.3,169.7,62.3z M166.8,66c0,0.2-0.2,0.4-0.4,0.4S166,66.2,166,66
		c0-0.2,0.2-0.4,0.4-0.4S166.8,65.7,166.8,66z M170.3,81.4c0.1,0.2-0.1,0.4-0.6,0.4s-0.9-0.2-0.9-0.4c0-0.2,0.2-0.4,0.6-0.4
		S170.2,81.1,170.3,81.4z M176.4,82.3c0.1,1.7,0,2.9-0.3,3.2c-0.1,0.1-0.6,0-1.1-0.2s-0.7-0.5-0.4-0.5c0.6,0,0.7-1.7,0.1-1.7
		c-0.6,0-0.5-1.5,0.1-1.8C175.9,80.7,176.3,81,176.4,82.3L176.4,82.3z M170.4,85.5c0.7,1,0.2,1.3-1.5,1c-0.9-0.2-1.3-0.5-1.3-1
		C167.6,84.4,169.7,84.4,170.4,85.5z M175.5,87.1c0,0.6-0.8,1-1.2,0.7c-0.2-0.2-0.3-0.5-0.2-0.7C174.3,86.6,175.5,86.6,175.5,87.1
		L175.5,87.1z M164.7,90c2.4,1.2,3.3,1.9,3.3,2.5c0,0.8-1,0.7-2.1-0.2c-0.5-0.4-1.7-1.1-2.5-1.5c-0.9-0.5-1.6-1-1.6-1.1
		C161.8,89,163.2,89.2,164.7,90L164.7,90z M174,90.2c-0.8,0.5-1.2,0.2-0.9-0.5c0.2-0.2,0.6-0.3,0.9-0.2
		C174.7,89.8,174.6,89.8,174,90.2L174,90.2z M173.4,91.3c0.5,0.4,0.5,0.5-0.1,1c-0.7,0.5-1.4,0.5-3.2,0c-0.5-0.2-0.4-0.3,0.2-0.8
		C171.2,90.8,172.5,90.8,173.4,91.3L173.4,91.3z M174.4,94.7c-0.9,0.3-1.5,0.1-1.2-0.4c0.1-0.2,0.6-0.2,1.1-0.1
		C175.2,94.4,175.2,94.4,174.4,94.7L174.4,94.7z M99,96c0,0.9-0.2,1-1.3,0.4c-1-0.5-1-1.1,0-1.4C98.7,94.8,99,95,99,96L99,96z
		 M158.3,96.4c0.2,1.1-1.4,1-1.7-0.1c-0.2-0.7,0-0.8,0.7-0.7C157.8,95.7,158.3,96.1,158.3,96.4L158.3,96.4z M153.9,99.3
		c0,0.2-0.2,0.4-0.4,0.4s-0.4-0.3-0.4-0.7c0-0.3,0.2-0.5,0.4-0.4S153.9,99,153.9,99.3z M96.4,99.8c-0.1,0.3-0.2,0.2-0.2-0.2
		c0-0.5,0.1-0.7,0.2-0.5C96.4,99.1,96.5,99.5,96.4,99.8z M180,99c0,0.5-0.8,0.6-1,0.2c-0.1-0.2,0-0.4,0.4-0.4
		C179.7,98.8,180,98.9,180,99z M77.4,100.1c0.2,0,0.4,0.2,0.4,0.4c0,0.5-1.9,0.5-2.2,0c-0.3-0.5,0.2-0.9,0.9-0.7
		C76.7,100,77.2,100.1,77.4,100.1z M79,102.5c0,0.3-0.3,0.5-0.6,0.5c-0.6,0-0.9-1.3-0.3-1.8C78.4,100.9,79,101.7,79,102.5L79,102.5z
		 M74.2,102.6c0.8,0.3,0.8,0.4-0.1,0.4c-0.5,0-1.1,0.3-1.3,0.7c-0.5,0.8-1.1,0-0.8-0.9C72.4,102.1,73,102,74.2,102.6z M175.1,105.9
		c0,0.5-0.2,1-0.4,1.1c-0.2,0.2-0.4-0.2-0.4-0.8s0.2-1.1,0.4-1.1C174.9,105.1,175.1,105.4,175.1,105.9z M84.8,106.8
		c0.1,1,0,1.2-0.7,1.2c-0.9,0-1.9-1.4-1.5-2.1c0.2-0.2,0.7-0.4,1.2-0.3C84.4,105.6,84.7,106,84.8,106.8L84.8,106.8z M170.7,106.9
		c0.8,0.8,0.8,1.1-0.2,1.1c-0.5,0-0.8-0.3-0.8-0.8C169.7,106.1,169.9,106.1,170.7,106.9z M174.2,109c0,0.8-1,1.9-1.8,1.9
		c-0.2,0-0.1-1.9,0.2-2.4C173.3,107.6,174.2,107.9,174.2,109z M74.9,109.1c0,0.4-0.3,0.6-0.7,0.5c-1-0.2-1.2-1.2-0.2-1.2
		C74.5,108.4,74.9,108.6,74.9,109.1L74.9,109.1z M170.9,111.1c0,0.1-0.3,0.2-0.6,0.4c-0.3,0.1-0.6,0-0.6-0.2s0.3-0.4,0.6-0.4
		S170.9,111,170.9,111.1z M12.1,163.8c-0.3,0.3-0.6,0.2-1.1-0.3c-0.9-1.2-0.7-1.6,0.5-0.8C12.3,163.2,12.4,163.5,12.1,163.8
		L12.1,163.8z M8.8,168.3c0,0.2-0.3,0.4-0.6,0.4c-0.3,0-0.6-0.2-0.6-0.4c0-0.2,0.3-0.4,0.6-0.4C8.5,167.9,8.8,168,8.8,168.3z
		 M31.1,260.5c0.5,0.4,0.5,0.6,0.2,1c-0.2,0.2-0.4,0.8-0.2,1.1c0.1,0.3-0.1,0.9-0.5,1.4c-0.7,0.8-0.7,0.8,0,1.1
		c0.8,0.3,1,2.4,0.2,2.2c-0.2-0.1-0.7-0.9-1-1.8s-0.7-1.9-0.9-2.3c-0.3-0.4-0.2-1.2,0-2.1c0.2-0.8,0.5-1.7,0.6-2
		c0.1-0.5,0.3-0.5,0.6,0.2C30.3,259.5,30.8,260.2,31.1,260.5L31.1,260.5z M29.3,266.8c0.1,0.2,0,0.4-0.4,0.4s-0.7-0.2-0.7-0.4
		c0-0.2,0.2-0.4,0.4-0.4C28.9,266.4,29.2,266.5,29.3,266.8z M30.4,268.9c0,0.8-0.6,1.1-1,0.4c-0.4-0.6,0.1-1.8,0.6-1.5
		C30.2,267.9,30.4,268.4,30.4,268.9L30.4,268.9z M27.4,276c-0.1,0.3-0.2,0.2-0.2-0.2c0-0.5,0.1-0.7,0.2-0.5
		C27.4,275.3,27.5,275.7,27.4,276z M63.4,285.4c-0.6,2.3-1,2.9-2,3.1c-1.4,0.3-2.4-0.5-2.2-1.8c0.2-1.3,0.9-1.3,1.1,0
		c0.1,0.6,0.3,0.9,0.6,0.8s0.8-0.4,1.2-0.5c0.5-0.2,0.7-0.6,0.7-1.2c-0.1-1.2,0-1.5,0.5-1.5C63.5,284.2,63.6,284.7,63.4,285.4
		L63.4,285.4z M65.5,292.2c0.2,0.5,0.1,1-0.1,1.2c-0.5,0.5-1.9-1.1-1.6-1.7C64.3,291,65.2,291.3,65.5,292.2L65.5,292.2z M63.4,294
		c1,0.9,1.1,1.1,0.6,1.4c-1.2,0.8-2.4,0.5-2.7-0.6c-0.2-1,0-1.9,0.6-1.9C62.1,293,62.7,293.5,63.4,294z M59.9,295.9
		c0,0.5-0.2,0.8-0.4,0.8c-0.2,0-0.4-0.4-0.4-0.8c0-0.4,0.2-0.8,0.4-0.8C59.7,295,59.9,295.4,59.9,295.9z M27.5,299.1
		c0,0.8-0.8,1.8-1.3,1.8s-0.4-1.4,0.2-2C27,298.2,27.5,298.2,27.5,299.1z M54.7,302.4c-0.5,0.6-1,1.5-1.3,2c-0.5,1-1.4,1.2-1.7,0.4
		c-0.1-0.3,0.1-0.8,0.4-1.1c0.7-0.7,1.4-1.9,2.1-3.2c0.3-0.6,0.6-0.7,0.9-0.1C55.3,301,55.3,301.5,54.7,302.4L54.7,302.4z
		 M26.7,302.4c0,0.4-0.2,1-0.4,1.3c-0.3,0.5-0.4,0.2-0.4-1c0-1,0.2-1.5,0.4-1.3C26.5,301.6,26.7,302.1,26.7,302.4z M52.8,317.9
		c0,0.2-0.4,0.8-0.9,1.2c-1,1-1.8,0.4-1.1-0.9C51.2,317.4,52.9,317.2,52.8,317.9L52.8,317.9z M39.4,326.3c-0.1,0.3-0.2,0.2-0.2-0.2
		c0-0.5,0.1-0.7,0.2-0.5C39.5,325.6,39.5,326,39.4,326.3z M45.6,373.8c-0.2,0.6-0.4,0.6-0.9,0.2c-0.5-0.4-0.5-0.7-0.2-1.1
		C45.2,372.1,46,372.9,45.6,373.8L45.6,373.8z M47.8,375.7c0,1.3-0.7,1.7-1.1,0.6c-0.2-0.5,0.5-1.9,0.9-1.9
		C47.8,374.4,47.8,375,47.8,375.7z M53.7,377.3c0,0.2-0.1,0.4-0.2,0.4s-0.3-0.2-0.5-0.4c-0.1-0.2,0-0.4,0.2-0.4
		C53.5,376.9,53.7,377.1,53.7,377.3z M50.3,384c0,0.5-0.3,0.8-0.8,0.8c-1,0-1.1-0.4-0.3-1.2C50,382.8,50.3,383,50.3,384z
		 M44.1,391.3c0,0.3-0.2,0.5-0.4,0.4c-0.2-0.2-0.3-0.5-0.2-0.7C43.8,390.4,44.1,390.5,44.1,391.3L44.1,391.3z M56.2,428.8
		c0,1-0.1,1.1-0.5,0.4c-0.2-0.4-0.3-0.9-0.2-1.1C55.9,427.3,56.1,427.6,56.2,428.8L56.2,428.8z M53.2,431.2c0.4,0.5,0.4,0.8-0.2,1.7
		c-0.6,1-0.8,1-1.4,0.5c-0.5-0.5-0.5-0.9-0.2-1.8C52,430.4,52.5,430.3,53.2,431.2L53.2,431.2z M48,433.5c0.1,1.2,0.2,2.5,0.3,2.9
		c0.1,0.4-0.2,0.7-0.8,0.8c-1,0.2-1,0.1-0.7-1.5c0.2-0.9,0.3-2.2,0.4-2.8C47.4,430,47.8,430.3,48,433.5z M58.6,433.2
		c0,0.8-0.5,1.1-1.1,0.6c-0.3-0.2-0.8-0.3-1-0.2c-0.7,0.4-0.5,1.4,0.3,1.6c0.5,0.2,0.5,0.2-0.2,0.2c-0.6,0-1-0.3-1.3-1.2
		s0.1-1.5,1.2-1.8C57.5,432.2,58.6,432.7,58.6,433.2L58.6,433.2z M60.2,436.3c0.4,0.2,0.3,0.4-0.5,0.6c-0.8,0.2-1.1,0.5-1.1,1.3
		c0,1.2-0.5,1.3-1.2,0.2c-0.5-0.7-0.4-1,0.4-1.6C59,435.9,59.4,435.8,60.2,436.3L60.2,436.3z M51.4,441.1c0.9,1.7,1.8,3.1,2.1,3.1
		c0.2,0,0.7,0.6,1,1.3s0.8,1.4,1.3,1.5c0.8,0.2,0.9,0.2,0.1,1c-0.4,0.4-1.2,0.9-1.7,1c-1.2,0.4-1.2,1.5,0.1,1.5c0.7,0,1.1-0.3,1.3-1
		c0.2-0.7,0.3-0.8,0.5-0.3c0.2,0.3,0.6,0.9,1,1.2s0.8,0.8,0.8,1c0,1.4,2.9,4.1,4.4,4.1c0.1,0,0.2-0.4,0.3-0.8
		c0.1-0.5,0.5-0.8,0.8-0.6c0.5,0.2,0.2,0.6-1,1.9l-1.7,1.7l-1.2-0.9c-0.7-0.5-1.5-0.8-1.8-0.8c-1,0-1.8-1.2-1.6-2.4
		c0.1-1,0.1-1-0.6-0.4c-0.8,0.7-1.6,0.6-2.7-0.3c-0.8-0.6-2-0.3-2,0.5c0,0.6,4.3,4.4,4.9,4.4s0.6,1,0,1.5c-0.3,0.3,0.2,0.5,1.8,0.5
		c1.4,0,2.2,0.2,2.5,0.7c0.2,0.4,0.7,0.7,1,0.7s1.2,0.5,1.8,1c1,0.8,1,1,0.5,1.2c-0.3,0.2-1.2,0-1.9-0.4c-0.7-0.4-2.1-0.8-3.2-0.9
		c-1.2-0.1-2.3-0.6-2.9-1.2c-0.6-0.5-2.2-2.1-3.6-3.4c-3.1-2.9-3.5-3.7-3-5c0.5-1.3,0.2-2.2-0.6-1.9c-0.5,0.2-0.8-0.1-1.1-0.8
		c-0.5-1.2-0.4-6,0-6.3c0.5-0.3,3.7,2,3.7,2.8c0,0.4,0.3,0.8,0.6,0.8s0.6,0.2,0.6,0.4c0,0.2,0.2,0.4,0.4,0.4c0.3,0,0.3-0.2,0-0.8
		s-0.3-0.9,0-1.1c0.7-0.5,0.5-1.5-0.4-1.5c-0.5,0-1-0.4-1.1-1c-0.2-0.5-0.7-1.3-1.2-1.8c-1.2-1.2-1.3-3.4-0.2-3.4
		C49.7,438.1,50.5,439.5,51.4,441.1L51.4,441.1z M46.8,440.1c0.1,0.2,0,0.4-0.2,0.4s-0.5-0.2-0.5-0.4c0-0.2,0.1-0.4,0.2-0.4
		C46.5,439.7,46.7,439.9,46.8,440.1z M63.9,446.2c-0.1,0.1-0.5,0.2-0.8,0c-0.3-0.1-0.2-0.2,0.2-0.2C63.9,445.9,64.1,446,63.9,446.2z
		 M60.3,449.9c0,0.3-0.3,0.6-0.6,0.6s-0.6-0.3-0.6-0.6s0.3-0.6,0.6-0.6S60.3,449.5,60.3,449.9z M63.7,452.2c-0.5,0.5-1.4,0-1.1-0.5
		c0.1-0.2,0.5-0.2,0.9-0.1C63.9,451.8,64,452,63.7,452.2z M62.6,459.2c-0.1,0.2-0.4,0.4-0.7,0.4c-0.2,0-0.4-0.2-0.4-0.4
		c0-0.2,0.3-0.4,0.7-0.4C62.6,458.8,62.7,459,62.6,459.2z M65.7,464.2c0,0.2-0.2,0.4-0.4,0.4c-0.2,0-0.4-0.2-0.4-0.4
		c0-0.2,0.2-0.4,0.4-0.4C65.6,463.8,65.7,464,65.7,464.2z"/>
</g>
</svg>
