<svg width="290" height="53" viewBox="0 0 290 53" fill="none" xmlns="http://www.w3.org/2000/svg">
<path d="M190.057 41.2727H191.318L194.284 48.517H194.386L197.352 41.2727H198.614V50H197.625V43.3693H197.54L194.812 50H193.858L191.131 43.3693H191.045V50H190.057V41.2727ZM202.522 50.1534C202.108 50.1534 201.731 50.0753 201.393 49.919C201.055 49.7599 200.787 49.5312 200.588 49.233C200.389 48.9318 200.289 48.5682 200.289 48.142C200.289 47.767 200.363 47.4631 200.511 47.2301C200.659 46.9943 200.856 46.8097 201.103 46.6761C201.35 46.5426 201.623 46.4432 201.922 46.3778C202.223 46.3097 202.525 46.2557 202.829 46.2159C203.227 46.1648 203.549 46.1264 203.797 46.1009C204.047 46.0724 204.228 46.0256 204.342 45.9602C204.458 45.8949 204.517 45.7812 204.517 45.6193V45.5852C204.517 45.1648 204.402 44.8381 204.172 44.6051C203.944 44.3722 203.599 44.2557 203.136 44.2557C202.656 44.2557 202.279 44.3608 202.007 44.571C201.734 44.7812 201.542 45.0057 201.431 45.2443L200.477 44.9034C200.647 44.5057 200.875 44.196 201.159 43.9744C201.446 43.75 201.758 43.5937 202.096 43.5057C202.437 43.4148 202.772 43.3693 203.102 43.3693C203.312 43.3693 203.554 43.3949 203.826 43.446C204.102 43.4943 204.368 43.5952 204.623 43.7486C204.882 43.902 205.096 44.1335 205.267 44.4432C205.437 44.7528 205.522 45.1676 205.522 45.6875V50H204.517V49.1136H204.466C204.397 49.2557 204.284 49.4077 204.125 49.5696C203.966 49.7315 203.754 49.8693 203.49 49.983C203.225 50.0966 202.903 50.1534 202.522 50.1534ZM202.676 49.25C203.074 49.25 203.409 49.1719 203.681 49.0156C203.957 48.8594 204.164 48.6577 204.304 48.4105C204.446 48.1634 204.517 47.9034 204.517 47.6307V46.7102C204.474 46.7614 204.38 46.8082 204.235 46.8509C204.093 46.8906 203.929 46.9261 203.741 46.9574C203.556 46.9858 203.376 47.0114 203.2 47.0341C203.027 47.054 202.886 47.071 202.778 47.0852C202.517 47.1193 202.272 47.1747 202.045 47.2514C201.821 47.3253 201.639 47.4375 201.5 47.5881C201.363 47.7358 201.295 47.9375 201.295 48.1932C201.295 48.5426 201.424 48.8068 201.683 48.9858C201.944 49.1619 202.275 49.25 202.676 49.25ZM207.358 50V43.4545H208.33V44.4432H208.398C208.517 44.1193 208.733 43.8565 209.045 43.6548C209.358 43.4531 209.71 43.3523 210.102 43.3523C210.176 43.3523 210.268 43.3537 210.379 43.3565C210.49 43.3594 210.574 43.3636 210.631 43.3693V44.392C210.597 44.3835 210.518 44.3707 210.396 44.3537C210.277 44.3338 210.151 44.3239 210.017 44.3239C209.699 44.3239 209.415 44.3906 209.165 44.5241C208.918 44.6548 208.722 44.8366 208.577 45.0696C208.435 45.2997 208.364 45.5625 208.364 45.858V50H207.358ZM211.823 50V43.4545H212.828V50H211.823ZM212.334 42.3636C212.138 42.3636 211.969 42.2969 211.827 42.1634C211.688 42.0298 211.618 41.8693 211.618 41.6818C211.618 41.4943 211.688 41.3338 211.827 41.2003C211.969 41.0668 212.138 41 212.334 41C212.53 41 212.698 41.0668 212.837 41.2003C212.979 41.3338 213.05 41.4943 213.05 41.6818C213.05 41.8693 212.979 42.0298 212.837 42.1634C212.698 42.2969 212.53 42.3636 212.334 42.3636ZM216.597 50.1534C216.182 50.1534 215.805 50.0753 215.467 49.919C215.129 49.7599 214.861 49.5312 214.662 49.233C214.463 48.9318 214.364 48.5682 214.364 48.142C214.364 47.767 214.438 47.4631 214.585 47.2301C214.733 46.9943 214.93 46.8097 215.178 46.6761C215.425 46.5426 215.697 46.4432 215.996 46.3778C216.297 46.3097 216.599 46.2557 216.903 46.2159C217.301 46.1648 217.624 46.1264 217.871 46.1009C218.121 46.0724 218.303 46.0256 218.416 45.9602C218.533 45.8949 218.591 45.7812 218.591 45.6193V45.5852C218.591 45.1648 218.476 44.8381 218.246 44.6051C218.018 44.3722 217.673 44.2557 217.21 44.2557C216.73 44.2557 216.354 44.3608 216.081 44.571C215.808 44.7812 215.616 45.0057 215.506 45.2443L214.551 44.9034C214.722 44.5057 214.949 44.196 215.233 43.9744C215.52 43.75 215.832 43.5937 216.17 43.5057C216.511 43.4148 216.847 43.3693 217.176 43.3693C217.386 43.3693 217.628 43.3949 217.901 43.446C218.176 43.4943 218.442 43.5952 218.697 43.7486C218.956 43.902 219.17 44.1335 219.341 44.4432C219.511 44.7528 219.597 45.1676 219.597 45.6875V50H218.591V49.1136H218.54C218.472 49.2557 218.358 49.4077 218.199 49.5696C218.04 49.7315 217.828 49.8693 217.564 49.983C217.3 50.0966 216.977 50.1534 216.597 50.1534ZM216.75 49.25C217.148 49.25 217.483 49.1719 217.756 49.0156C218.031 48.8594 218.239 48.6577 218.378 48.4105C218.52 48.1634 218.591 47.9034 218.591 47.6307V46.7102C218.548 46.7614 218.455 46.8082 218.31 46.8509C218.168 46.8906 218.003 46.9261 217.815 46.9574C217.631 46.9858 217.45 47.0114 217.274 47.0341C217.101 47.054 216.96 47.071 216.852 47.0852C216.591 47.1193 216.347 47.1747 216.119 47.2514C215.895 47.3253 215.713 47.4375 215.574 47.5881C215.438 47.7358 215.369 47.9375 215.369 48.1932C215.369 48.5426 215.499 48.8068 215.757 48.9858C216.018 49.1619 216.349 49.25 216.75 49.25ZM222.438 46.0625V50H221.432V43.4545H222.404V44.4773H222.489C222.642 44.1449 222.875 43.8778 223.188 43.6761C223.5 43.4716 223.904 43.3693 224.398 43.3693C224.841 43.3693 225.229 43.4602 225.561 43.642C225.894 43.821 226.152 44.0938 226.337 44.4602C226.522 44.8239 226.614 45.2841 226.614 45.8409V50H225.608V45.9091C225.608 45.3949 225.475 44.9943 225.208 44.7074C224.941 44.4176 224.574 44.2727 224.108 44.2727C223.787 44.2727 223.5 44.3423 223.248 44.4815C222.998 44.6207 222.8 44.8239 222.655 45.0909C222.51 45.358 222.438 45.6818 222.438 46.0625ZM229.457 46.0625V50H228.452V43.4545H229.423V44.4773H229.509C229.662 44.1449 229.895 43.8778 230.207 43.6761C230.52 43.4716 230.923 43.3693 231.418 43.3693C231.861 43.3693 232.249 43.4602 232.581 43.642C232.913 43.821 233.172 44.0938 233.357 44.4602C233.541 44.8239 233.634 45.2841 233.634 45.8409V50H232.628V45.9091C232.628 45.3949 232.494 44.9943 232.227 44.7074C231.96 44.4176 231.594 44.2727 231.128 44.2727C230.807 44.2727 230.52 44.3423 230.267 44.4815C230.017 44.6207 229.82 44.8239 229.675 45.0909C229.53 45.358 229.457 45.6818 229.457 46.0625ZM238.216 50.1364C237.585 50.1364 237.041 49.9972 236.583 49.7188C236.129 49.4375 235.778 49.0455 235.531 48.5426C235.287 48.0369 235.164 47.4489 235.164 46.7784C235.164 46.108 235.287 45.517 235.531 45.0057C235.778 44.4915 236.122 44.0909 236.562 43.804C237.005 43.5142 237.522 43.3693 238.113 43.3693C238.454 43.3693 238.791 43.4261 239.123 43.5398C239.456 43.6534 239.758 43.8381 240.031 44.0938C240.304 44.3466 240.521 44.6818 240.683 45.0994C240.845 45.517 240.926 46.0312 240.926 46.642V47.0682H235.88V46.1989H239.903C239.903 45.8295 239.829 45.5 239.681 45.2102C239.537 44.9205 239.329 44.6918 239.059 44.5241C238.792 44.3565 238.477 44.2727 238.113 44.2727C237.713 44.2727 237.366 44.3722 237.074 44.571C236.784 44.767 236.561 45.0227 236.404 45.3381C236.248 45.6534 236.17 45.9915 236.17 46.3523V46.9318C236.17 47.4261 236.255 47.8452 236.426 48.1889C236.599 48.5298 236.839 48.7898 237.146 48.9688C237.453 49.1449 237.809 49.233 238.216 49.233C238.48 49.233 238.718 49.196 238.931 49.1222C239.147 49.0455 239.333 48.9318 239.49 48.7812C239.646 48.6278 239.767 48.4375 239.852 48.2102L240.824 48.483C240.721 48.8125 240.549 49.1023 240.308 49.3523C240.066 49.5994 239.768 49.7926 239.413 49.9318C239.058 50.0682 238.659 50.1364 238.216 50.1364ZM250.74 43.4545C250.689 43.0227 250.481 42.6875 250.118 42.4489C249.754 42.2102 249.308 42.0909 248.779 42.0909C248.393 42.0909 248.055 42.1534 247.765 42.2784C247.478 42.4034 247.254 42.5753 247.092 42.794C246.933 43.0128 246.853 43.2614 246.853 43.5398C246.853 43.7727 246.909 43.973 247.02 44.1406C247.133 44.3054 247.278 44.4432 247.454 44.554C247.63 44.6619 247.815 44.7514 248.008 44.8224C248.201 44.8906 248.379 44.946 248.541 44.9886L249.427 45.2273C249.654 45.2869 249.907 45.3693 250.186 45.4744C250.467 45.5795 250.735 45.723 250.991 45.9048C251.25 46.0838 251.463 46.3139 251.63 46.5952C251.798 46.8764 251.882 47.2216 251.882 47.6307C251.882 48.1023 251.758 48.5284 251.511 48.9091C251.267 49.2898 250.909 49.5923 250.437 49.8168C249.968 50.0412 249.399 50.1534 248.728 50.1534C248.103 50.1534 247.562 50.0526 247.105 49.8509C246.65 49.6491 246.292 49.3679 246.031 49.0071C245.772 48.6463 245.626 48.2273 245.592 47.75H246.683C246.711 48.0795 246.822 48.3523 247.015 48.5682C247.211 48.7812 247.458 48.9403 247.757 49.0455C248.058 49.1477 248.382 49.1989 248.728 49.1989C249.132 49.1989 249.494 49.1335 249.815 49.0028C250.136 48.8693 250.39 48.6847 250.578 48.4489C250.765 48.2102 250.859 47.9318 250.859 47.6136C250.859 47.3239 250.778 47.0881 250.616 46.9062C250.454 46.7244 250.241 46.5767 249.977 46.4631C249.713 46.3494 249.427 46.25 249.12 46.1648L248.047 45.858C247.365 45.6619 246.825 45.3821 246.427 45.0185C246.029 44.6548 245.831 44.179 245.831 43.5909C245.831 43.1023 245.963 42.6761 246.227 42.3125C246.494 41.946 246.852 41.6619 247.301 41.4602C247.752 41.2557 248.257 41.1534 248.814 41.1534C249.376 41.1534 249.876 41.2543 250.314 41.456C250.751 41.6548 251.098 41.9276 251.353 42.2741C251.612 42.6207 251.748 43.0142 251.762 43.4545H250.74ZM256.142 50.1364C255.528 50.1364 255 49.9915 254.557 49.7017C254.114 49.4119 253.773 49.0128 253.534 48.5043C253.295 47.9957 253.176 47.4148 253.176 46.7614C253.176 46.0966 253.298 45.5099 253.543 45.0014C253.79 44.4901 254.134 44.0909 254.574 43.804C255.017 43.5142 255.534 43.3693 256.125 43.3693C256.585 43.3693 257 43.4545 257.369 43.625C257.739 43.7955 258.041 44.0341 258.277 44.3409C258.513 44.6477 258.659 45.0057 258.716 45.4148H257.71C257.634 45.1165 257.463 44.8523 257.199 44.6222C256.938 44.3892 256.585 44.2727 256.142 44.2727C255.75 44.2727 255.406 44.375 255.111 44.5795C254.818 44.7812 254.589 45.0668 254.425 45.4361C254.263 45.8026 254.182 46.233 254.182 46.7273C254.182 47.233 254.261 47.6733 254.42 48.0483C254.582 48.4233 254.81 48.7145 255.102 48.9219C255.398 49.1293 255.744 49.233 256.142 49.233C256.403 49.233 256.641 49.1875 256.854 49.0966C257.067 49.0057 257.247 48.875 257.395 48.7045C257.543 48.5341 257.648 48.3295 257.71 48.0909H258.716C258.659 48.4773 258.518 48.8253 258.294 49.1349C258.072 49.4418 257.778 49.6861 257.412 49.8679C257.048 50.0469 256.625 50.1364 256.142 50.1364ZM261.192 46.0625V50H260.186V41.2727H261.192V44.4773H261.277C261.43 44.1392 261.661 43.8707 261.967 43.6719C262.277 43.4702 262.689 43.3693 263.203 43.3693C263.649 43.3693 264.04 43.4588 264.375 43.6378C264.71 43.8139 264.97 44.0852 265.155 44.4517C265.342 44.8153 265.436 45.2784 265.436 45.8409V50H264.43V45.9091C264.43 45.3892 264.295 44.9872 264.026 44.7031C263.759 44.4162 263.388 44.2727 262.913 44.2727C262.584 44.2727 262.288 44.3423 262.027 44.4815C261.768 44.6207 261.564 44.8239 261.413 45.0909C261.266 45.358 261.192 45.6818 261.192 46.0625ZM268.282 41.2727V50H267.276V41.2727H268.282ZM272.05 50.1534C271.635 50.1534 271.259 50.0753 270.92 49.919C270.582 49.7599 270.314 49.5312 270.115 49.233C269.916 48.9318 269.817 48.5682 269.817 48.142C269.817 47.767 269.891 47.4631 270.038 47.2301C270.186 46.9943 270.384 46.8097 270.631 46.6761C270.878 46.5426 271.151 46.4432 271.449 46.3778C271.75 46.3097 272.053 46.2557 272.357 46.2159C272.754 46.1648 273.077 46.1264 273.324 46.1009C273.574 46.0724 273.756 46.0256 273.869 45.9602C273.986 45.8949 274.044 45.7812 274.044 45.6193V45.5852C274.044 45.1648 273.929 44.8381 273.699 44.6051C273.472 44.3722 273.126 44.2557 272.663 44.2557C272.183 44.2557 271.807 44.3608 271.534 44.571C271.261 44.7812 271.07 45.0057 270.959 45.2443L270.004 44.9034C270.175 44.5057 270.402 44.196 270.686 43.9744C270.973 43.75 271.286 43.5937 271.624 43.5057C271.964 43.4148 272.3 43.3693 272.629 43.3693C272.839 43.3693 273.081 43.3949 273.354 43.446C273.629 43.4943 273.895 43.5952 274.151 43.7486C274.409 43.902 274.624 44.1335 274.794 44.4432C274.964 44.7528 275.05 45.1676 275.05 45.6875V50H274.044V49.1136H273.993C273.925 49.2557 273.811 49.4077 273.652 49.5696C273.493 49.7315 273.281 49.8693 273.017 49.983C272.753 50.0966 272.43 50.1534 272.05 50.1534ZM272.203 49.25C272.601 49.25 272.936 49.1719 273.209 49.0156C273.484 48.8594 273.692 48.6577 273.831 48.4105C273.973 48.1634 274.044 47.9034 274.044 47.6307V46.7102C274.001 46.7614 273.908 46.8082 273.763 46.8509C273.621 46.8906 273.456 46.9261 273.268 46.9574C273.084 46.9858 272.903 47.0114 272.727 47.0341C272.554 47.054 272.413 47.071 272.305 47.0852C272.044 47.1193 271.8 47.1747 271.572 47.2514C271.348 47.3253 271.166 47.4375 271.027 47.5881C270.891 47.7358 270.822 47.9375 270.822 48.1932C270.822 48.5426 270.952 48.8068 271.21 48.9858C271.472 49.1619 271.803 49.25 272.203 49.25ZM271.47 42.3636C271.291 42.3636 271.132 42.2955 270.993 42.1591C270.857 42.0199 270.788 41.8608 270.788 41.6818C270.788 41.4858 270.857 41.3239 270.993 41.196C271.132 41.0653 271.291 41 271.47 41C271.666 41 271.828 41.0653 271.956 41.196C272.087 41.3239 272.152 41.4858 272.152 41.6818C272.152 41.8608 272.087 42.0199 271.956 42.1591C271.828 42.2955 271.666 42.3636 271.47 42.3636ZM273.925 42.3636C273.746 42.3636 273.587 42.2955 273.447 42.1591C273.311 42.0199 273.243 41.8608 273.243 41.6818C273.243 41.4858 273.311 41.3239 273.447 41.196C273.587 41.0653 273.746 41 273.925 41C274.121 41 274.283 41.0653 274.411 41.196C274.541 41.3239 274.607 41.4858 274.607 41.6818C274.607 41.8608 274.541 42.0199 274.411 42.1591C274.283 42.2955 274.121 42.3636 273.925 42.3636ZM279.8 43.4545V44.3068H276.272V43.4545H279.8ZM277.328 50V42.5511C277.328 42.1761 277.417 41.8636 277.593 41.6136C277.769 41.3636 277.998 41.1761 278.279 41.0511C278.56 40.9261 278.857 40.8636 279.169 40.8636C279.417 40.8636 279.618 40.8835 279.775 40.9233C279.931 40.9631 280.047 41 280.124 41.0341L279.834 41.9034C279.783 41.8864 279.712 41.8651 279.621 41.8395C279.533 41.8139 279.417 41.8011 279.272 41.8011C278.939 41.8011 278.699 41.8849 278.551 42.0526C278.407 42.2202 278.334 42.4659 278.334 42.7898V50H277.328ZM282.215 41.2727V50H281.21V41.2727H282.215ZM284.057 50V43.4545H285.063V50H284.057ZM284.569 42.3636C284.373 42.3636 284.203 42.2969 284.061 42.1634C283.922 42.0298 283.853 41.8693 283.853 41.6818C283.853 41.4943 283.922 41.3338 284.061 41.2003C284.203 41.0668 284.373 41 284.569 41C284.765 41 284.932 41.0668 285.071 41.2003C285.213 41.3338 285.284 41.4943 285.284 41.6818C285.284 41.8693 285.213 42.0298 285.071 42.1634C284.932 42.2969 284.765 42.3636 284.569 42.3636Z" fill="#303030"/>
<path d="M8.2 33.16C6.94667 33.16 5.96 32.68 5.24 31.72C4.6 30.84 4.28 29.6667 4.28 28.2C4.28 26.3867 4.89333 24.2133 6.12 21.68C2.28 21.44 0.36 19.5333 0.36 15.96C0.36 13.9333 1 11.7467 2.28 9.4C2.73333 8.54667 3.24 7.74667 3.8 7C4.36 6.22667 4.97333 5.54666 5.64 4.96C7.32 3.38667 9.04 2.6 10.8 2.6C14.08 2.6 15.72 4.34667 15.72 7.84C15.72 8.77333 15.56 9.76 15.24 10.8C14.9467 11.84 14.4533 12.9333 13.76 14.08C13.0933 15.2267 12.3867 16.36 11.64 17.48C10.8933 18.5733 10.1733 19.68 9.48 20.8C10.7333 20.5867 12.12 20.2133 13.64 19.68C13.72 19.6533 13.8133 19.64 13.92 19.64C14.1333 19.64 14.24 19.7333 14.24 19.92C14.24 20.08 14.0933 20.2267 13.8 20.36C12.92 20.6533 12.08 20.9067 11.28 21.12C10.48 21.3333 9.72 21.4933 9 21.6C7.48 24.24 6.72 26.5733 6.72 28.6C6.72 29.5867 6.88 30.4 7.2 31.04C7.65333 31.8133 8.28 32.2 9.08 32.2C10.5467 32.2 12.2533 31.1067 14.2 28.92C15.0267 28.0133 16.3467 25.9867 18.16 22.84C18.5333 20.68 19.0267 18.88 19.64 17.44C20.28 15.9467 21.12 15.2 22.16 15.2C22.8533 15.2 23.2 15.6133 23.2 16.44C23.2 16.8667 23.0533 17.44 22.76 18.16C22.5467 18.6667 22.2933 19.16 22 19.64C21.7333 20.12 21.4533 20.5867 21.16 21.04L19.72 23.04C19.08 24.7467 18.76 26.4667 18.76 28.2C18.76 28.76 18.8 29.2667 18.88 29.72C19.2 31.4267 20 32.28 21.28 32.28C24.56 32.28 28.12 28.6 31.96 21.24C33.2933 18.7333 33.96 16.04 33.96 13.16C33.96 10.4933 33.2 8.6 31.68 7.48C31.0133 6.97333 30.0667 6.72 28.84 6.72C27.5333 6.72 26.5733 7.08 25.96 7.8C25.7467 8.01333 25.56 8.12 25.4 8.12C25.24 8.12 25.16 8.05333 25.16 7.92C25.16 7.78666 25.2133 7.66667 25.32 7.56C26.2 6.49333 27.6667 5.96 29.72 5.96C30.92 5.96 31.9333 6.16 32.76 6.56C35.2667 7.78667 36.52 10.0933 36.52 13.48C36.52 15.9867 35.84 18.5467 34.48 21.16C33.7067 22.6533 32.88 24.04 32 25.32C31.12 26.6 30.1867 27.7467 29.2 28.76C26.5067 31.6133 23.8667 33.04 21.28 33.04C19.2267 33.04 17.9333 32.16 17.4 30.4C17.2133 29.8133 17.12 29.1333 17.12 28.36C17.12 27.6667 17.2 26.9467 17.36 26.2C16.8533 26.9467 16.3467 27.64 15.84 28.28C15.36 28.8933 14.8667 29.4533 14.36 29.96C12.2267 32.0933 10.1733 33.16 8.2 33.16ZM6.48 20.96C7.09333 19.8667 7.70667 18.7733 8.32 17.68C8.96 16.5867 9.58667 15.48 10.2 14.36C11.6667 11.72 12.6133 9.56 13.04 7.88C13.2 7.18667 13.28 6.56 13.28 6C13.28 4.26667 12.52 3.4 11 3.4C9.90667 3.4 8.69333 3.98667 7.36 5.16C5.92 6.44 4.70667 8.10667 3.72 10.16C2.68 12.32 2.16 14.2933 2.16 16.08C2.16 19.04 3.6 20.6667 6.48 20.96ZM38.1891 32C36.2424 32 35.2691 30.8133 35.2691 28.44C35.2691 27.2667 35.5491 26.0267 36.1091 24.72C36.9091 22.8267 38.0424 21.2267 39.5091 19.92C40.9491 18.64 42.3091 18 43.5891 18C45.5624 18 46.5491 19.16 46.5491 21.48C46.5491 22.68 46.2557 23.9467 45.6691 25.28C44.9757 26.88 43.9757 28.3333 42.6691 29.64C41.0424 31.2133 39.5491 32 38.1891 32ZM38.8291 31.12C39.4424 31.12 40.0957 30.8667 40.7891 30.36C41.6691 29.72 42.6691 28.3867 43.7891 26.36C45.0157 24.1733 45.6291 22.4133 45.6291 21.08C45.6291 19.88 45.1224 19.28 44.1091 19.28C43.3091 19.28 42.4024 19.7867 41.3891 20.8C40.4024 21.7867 39.5624 23.04 38.8691 24.56C37.9357 26.56 37.4691 28.16 37.4691 29.36C37.4691 30.5333 37.9224 31.12 38.8291 31.12ZM65.0813 32C63.5346 32 62.7613 31.0133 62.7613 29.04C62.7613 28.1867 62.9079 27.3867 63.2013 26.64C61.2013 30.16 59.2813 31.92 57.4413 31.92C57.3346 31.92 57.2279 31.92 57.1213 31.92C57.0146 31.8933 56.8946 31.8667 56.7613 31.84C55.4279 31.4667 54.7613 30.4533 54.7613 28.8C54.7613 27.5733 55.0946 26.2133 55.7613 24.72C56.0813 24 56.4279 23.32 56.8013 22.68C57.2013 22.0133 57.6413 21.4 58.1213 20.84C59.8013 18.8133 61.7213 17.8 63.8813 17.8C64.8413 17.8 65.7346 18.04 66.5613 18.52C67.0146 17.64 67.5479 16.4133 68.1613 14.84C68.8013 13.24 69.5346 11.3067 70.3613 9.04C70.6813 8.16 71.0146 7.58666 71.3613 7.32C71.7613 7.05333 72.2946 6.93333 72.9613 6.96L73.8013 7.08C73.9879 7.10667 74.1479 7.13333 74.2813 7.16C74.4146 7.16 74.5346 7.14666 74.6413 7.12C74.3746 7.41333 73.8813 8.24 73.1613 9.6C72.4413 10.9333 71.5079 12.8133 70.3613 15.24C69.1879 17.6933 68.1879 19.88 67.3613 21.8C66.5613 23.72 65.9213 25.3467 65.4413 26.68C65.0413 27.8 64.8413 28.7733 64.8413 29.6C64.8413 30.5067 65.1479 30.96 65.7613 30.96C66.5613 30.96 67.4146 30.2267 68.3213 28.76L68.4813 28.56L69.1213 28.88L68.9613 29.08C67.7346 31.0267 66.4413 32 65.0813 32ZM57.8413 30.8C58.7213 30.8 59.7879 29.9333 61.0413 28.2C62.3746 26.3067 64.1479 23.2933 66.3613 19.16C66.0413 18.84 65.6546 18.68 65.2013 18.68C64.1079 18.68 62.8279 19.4133 61.3613 20.88C59.9746 22.24 58.8146 23.8 57.8813 25.56C57.1346 26.9467 56.7613 28.16 56.7613 29.2C56.7613 30.2667 57.1213 30.8 57.8413 30.8ZM69.4625 32.28C69.9692 31 70.6358 29.4 71.4625 27.48C72.3158 25.56 73.2758 23.3733 74.3425 20.92C74.5558 20.3867 74.7558 19.96 74.9425 19.64C75.1558 19.32 75.3425 19.0667 75.5025 18.88C75.8492 18.48 76.3158 18.32 76.9025 18.4L77.7425 18.52C77.9292 18.5467 78.0892 18.5733 78.2225 18.6C78.3825 18.6 78.5158 18.5867 78.6225 18.56C78.0892 18.8267 77.4625 19.5867 76.7425 20.84C76.0492 22.0667 75.2758 23.7467 74.4225 25.88C74.7158 25.5067 75.0892 25.0133 75.5425 24.4C75.9958 23.76 76.5692 23.0267 77.2625 22.2C78.0358 21.2933 78.8358 20.4533 79.6625 19.68C80.4892 18.9067 81.2892 18.52 82.0625 18.52C82.6758 18.52 83.1158 18.72 83.3825 19.12C83.6492 19.52 83.7825 19.9733 83.7825 20.48C83.7825 21.0933 83.5425 21.64 83.0625 22.12C82.5825 22.6 82.1158 22.84 81.6625 22.84C81.4758 22.84 81.2758 22.8 81.0625 22.72C80.8758 22.64 80.7825 22.52 80.7825 22.36C80.7825 22.2267 80.8092 22.1067 80.8625 22C80.9158 21.8667 80.9425 21.72 80.9425 21.56C80.9425 21.16 80.7558 20.96 80.3825 20.96C80.2492 20.96 80.0625 21 79.8225 21.08C79.6092 21.1333 79.3158 21.3467 78.9425 21.72C78.1958 22.4133 77.3825 23.2533 76.5025 24.24C75.6492 25.2 74.8358 26.28 74.0625 27.48C73.3158 28.68 72.7025 30 72.2225 31.44C72.0892 31.84 71.6892 32.0533 71.0225 32.08C70.1158 32.1333 69.5958 32.2 69.4625 32.28ZM84.7794 31.96C83.0727 31.96 82.2194 31.16 82.2194 29.56C82.2194 29 82.3794 28.2533 82.6994 27.32C83.0194 26.36 83.4727 25.2267 84.0594 23.92L86.2594 19.08C86.4994 18.52 87.0194 18.24 87.8194 18.24H90.2194C89.286 18.9333 88.4327 20.0533 87.6594 21.6C87.366 22.1867 87.006 22.92 86.5794 23.8C86.1794 24.6533 85.7127 25.64 85.1794 26.76C84.6727 27.8 84.4194 28.7333 84.4194 29.56C84.4194 30.4133 84.7127 30.84 85.2994 30.84C85.9394 30.84 86.6994 30.3333 87.5794 29.32C89.046 27.6133 91.0194 24.2 93.4994 19.08C93.7927 18.52 94.2994 18.24 95.0194 18.24H97.1794C96.2994 18.96 95.3794 20.28 94.4194 22.2C93.086 24.8933 92.286 26.9467 92.0194 28.36C91.9927 28.52 91.966 28.6667 91.9394 28.8C91.9394 28.9333 91.9394 29.0667 91.9394 29.2C91.9394 30.24 92.2994 30.76 93.0194 30.76C93.7927 30.76 94.6994 30 95.7394 28.48L96.3394 28.76C94.8994 30.8933 93.4727 31.96 92.0594 31.96C90.566 31.96 89.8194 31.0133 89.8194 29.12C89.8194 28.4 89.9527 27.64 90.2194 26.84C88.246 30.2533 86.4327 31.96 84.7794 31.96ZM94.2594 16.52C93.3527 16.52 92.8994 16.08 92.8994 15.2C92.8994 14.32 93.326 13.88 94.1794 13.88C95.086 13.88 95.5394 14.32 95.5394 15.2C95.5394 16.08 95.1127 16.52 94.2594 16.52ZM89.4994 16.52C88.5927 16.52 88.1394 16.08 88.1394 15.2C88.1394 14.32 88.566 13.88 89.4194 13.88C90.326 13.88 90.7794 14.32 90.7794 15.2C90.7794 16.08 90.3527 16.52 89.4994 16.52ZM101.3 32.16C98.6336 32.16 97.3003 30.8267 97.3003 28.16C97.3003 25.92 98.0736 23.7067 99.6203 21.52C101.3 19.12 103.234 17.92 105.42 17.92C107.447 17.92 108.354 18.84 108.14 20.68C108.114 21.16 107.86 21.68 107.38 22.24C106.927 22.7733 106.487 23.04 106.06 23.04C105.82 23.04 105.62 22.96 105.46 22.8C106.127 22.1333 106.54 21.4533 106.7 20.76C106.754 20.5733 106.794 20.4133 106.82 20.28C106.847 20.12 106.86 19.9733 106.86 19.84C106.86 19.1467 106.54 18.8 105.9 18.8C104.967 18.8 103.66 19.9333 101.98 22.2C100.38 24.36 99.5803 26.4667 99.5803 28.52C99.5803 30.4667 100.327 31.44 101.82 31.44C103.26 31.44 104.66 30.5333 106.02 28.72L106.26 28.4L106.82 28.72L106.54 29.12C105.127 31.1467 103.38 32.16 101.3 32.16ZM106.602 32.28C107.508 30.2 108.802 27.2267 110.482 23.36C112.188 19.4667 114.295 14.6933 116.802 9.04C116.828 8.96 116.842 8.88 116.842 8.8C116.868 8.72 116.882 8.64 116.882 8.56C116.882 8.18667 116.722 7.78667 116.402 7.36H118.562C119.308 7.36 119.682 7.53333 119.682 7.88C119.682 8.06667 119.602 8.34667 119.442 8.72L112.402 24.88C112.908 24.16 113.988 23.0667 115.642 21.6C117.242 20.1867 118.388 19.3733 119.082 19.16C119.375 19.08 119.655 19.04 119.922 19.04C120.935 19.04 121.442 19.5733 121.442 20.64C121.442 20.9067 121.375 21.24 121.242 21.64C121.082 22.1467 120.722 22.6267 120.162 23.08C119.602 23.56 119.082 23.8 118.602 23.8C118.202 23.8 117.908 23.6267 117.722 23.28C118.015 22.8267 118.162 22.4933 118.162 22.28C118.162 22.0933 118.068 21.9333 117.882 21.8C117.722 21.72 117.535 21.68 117.322 21.68C116.815 21.68 116.335 21.96 115.882 22.52C115.242 23.32 114.922 24.44 114.922 25.88C114.922 27.08 115.215 28.1733 115.802 29.16C116.495 30.3333 117.375 30.92 118.442 30.92C119.508 30.92 120.535 30.2267 121.522 28.84L122.082 29.32C120.668 31.2933 119.108 32.28 117.402 32.28C117.295 32.28 117.175 32.28 117.042 32.28C116.908 32.28 116.775 32.2667 116.642 32.24C115.895 32.16 115.175 31.7333 114.482 30.96C113.602 30 113.162 28.7867 113.162 27.32C113.162 26.2267 113.468 25.16 114.082 24.12C112.295 25.8267 110.722 28.2667 109.362 31.44C109.202 31.84 108.735 32.04 107.962 32.04C107.668 32.04 107.215 32.12 106.602 32.28ZM125.972 32C124.239 32 123.372 31.0533 123.372 29.16C123.372 28.7867 123.399 28.4 123.452 28C123.532 27.6 123.652 27.2 123.812 26.8C125.225 23.0667 126.425 20.0267 127.412 17.68H124.812L125.292 16.8H127.772L128.732 14C129.079 13.0133 129.372 12.4267 129.612 12.24C129.799 12.1067 130.225 12.04 130.892 12.04L132.612 12.08C132.079 12.5333 131.679 13.08 131.412 13.72L130.092 16.8H133.132L132.652 17.68H129.732C129.545 18.1067 129.359 18.5333 129.172 18.96C129.012 19.3867 128.825 19.8267 128.612 20.28C128.052 21.5067 127.572 22.6667 127.172 23.76C126.692 25.0133 126.305 26.0933 126.012 27C125.745 27.9067 125.585 28.6267 125.532 29.16C125.425 30.4667 125.772 31.12 126.572 31.12C127.319 31.12 128.225 30.32 129.292 28.72L129.772 29.28C128.492 31.0933 127.225 32 125.972 32ZM149.652 32C148.105 32 147.332 31.0133 147.332 29.04C147.332 28.1867 147.478 27.3867 147.772 26.64C145.772 30.16 143.852 31.92 142.012 31.92C141.905 31.92 141.798 31.92 141.692 31.92C141.585 31.8933 141.465 31.8667 141.332 31.84C139.998 31.4667 139.332 30.4533 139.332 28.8C139.332 27.5733 139.665 26.2133 140.332 24.72C140.652 24 140.998 23.32 141.372 22.68C141.772 22.0133 142.212 21.4 142.692 20.84C144.372 18.8133 146.292 17.8 148.452 17.8C149.412 17.8 150.305 18.04 151.132 18.52C151.585 17.64 152.118 16.4133 152.732 14.84C153.372 13.24 154.105 11.3067 154.932 9.04C155.252 8.16 155.585 7.58666 155.932 7.32C156.332 7.05333 156.865 6.93333 157.532 6.96L158.372 7.08C158.558 7.10667 158.718 7.13333 158.852 7.16C158.985 7.16 159.105 7.14666 159.212 7.12C158.945 7.41333 158.452 8.24 157.732 9.6C157.012 10.9333 156.078 12.8133 154.932 15.24C153.758 17.6933 152.758 19.88 151.932 21.8C151.132 23.72 150.492 25.3467 150.012 26.68C149.612 27.8 149.412 28.7733 149.412 29.6C149.412 30.5067 149.718 30.96 150.332 30.96C151.132 30.96 151.985 30.2267 152.892 28.76L153.052 28.56L153.692 28.88L153.532 29.08C152.305 31.0267 151.012 32 149.652 32ZM142.412 30.8C143.292 30.8 144.358 29.9333 145.612 28.2C146.945 26.3067 148.718 23.2933 150.932 19.16C150.612 18.84 150.225 18.68 149.772 18.68C148.678 18.68 147.398 19.4133 145.932 20.88C144.545 22.24 143.385 23.8 142.452 25.56C141.705 26.9467 141.332 28.16 141.332 29.2C141.332 30.2667 141.692 30.8 142.412 30.8ZM158.633 32.16C157.593 32.16 156.699 31.8267 155.953 31.16C155.553 30.7867 155.259 30.36 155.073 29.88C154.913 29.3733 154.833 28.8 154.833 28.16C154.833 25.7067 155.846 23.2667 157.873 20.84C159.579 18.7867 161.353 17.76 163.193 17.76C163.806 17.76 164.326 17.92 164.753 18.24C165.206 18.6133 165.433 19.0933 165.433 19.68C165.433 21.1467 164.459 22.6133 162.513 24.08C161.899 24.5333 161.086 24.9333 160.073 25.28C158.953 25.6533 158.139 25.84 157.633 25.84C157.259 26.7467 157.073 27.7067 157.073 28.72C157.073 30.4533 157.713 31.32 158.993 31.32C160.673 31.32 162.246 30.2267 163.713 28.04L163.873 27.8L164.553 28.08L164.433 28.32C163.766 29.6533 162.926 30.6267 161.913 31.24C160.899 31.8533 159.806 32.16 158.633 32.16ZM157.873 25.16C158.326 25.16 158.953 25.0133 159.753 24.72C160.206 24.5333 160.633 24.3333 161.033 24.12C161.459 23.9067 161.833 23.6667 162.153 23.4C163.619 22.1733 164.353 20.88 164.353 19.52C164.353 18.9333 164.139 18.64 163.713 18.64C162.966 18.64 161.833 19.56 160.313 21.4C159.539 22.3333 158.726 23.5867 157.873 25.16ZM164.619 32.28C165.125 31 165.792 29.4 166.619 27.48C167.472 25.56 168.432 23.3733 169.499 20.92C169.712 20.3867 169.912 19.96 170.099 19.64C170.312 19.32 170.499 19.0667 170.659 18.88C171.005 18.48 171.472 18.32 172.059 18.4L172.899 18.52C173.085 18.5467 173.245 18.5733 173.379 18.6C173.539 18.6 173.672 18.5867 173.779 18.56C173.245 18.8267 172.619 19.5867 171.899 20.84C171.205 22.0667 170.432 23.7467 169.579 25.88C169.872 25.5067 170.245 25.0133 170.699 24.4C171.152 23.76 171.725 23.0267 172.419 22.2C173.192 21.2933 173.992 20.4533 174.819 19.68C175.645 18.9067 176.445 18.52 177.219 18.52C177.832 18.52 178.272 18.72 178.539 19.12C178.805 19.52 178.939 19.9733 178.939 20.48C178.939 21.0933 178.699 21.64 178.219 22.12C177.739 22.6 177.272 22.84 176.819 22.84C176.632 22.84 176.432 22.8 176.219 22.72C176.032 22.64 175.939 22.52 175.939 22.36C175.939 22.2267 175.965 22.1067 176.019 22C176.072 21.8667 176.099 21.72 176.099 21.56C176.099 21.16 175.912 20.96 175.539 20.96C175.405 20.96 175.219 21 174.979 21.08C174.765 21.1333 174.472 21.3467 174.099 21.72C173.352 22.4133 172.539 23.2533 171.659 24.24C170.805 25.2 169.992 26.28 169.219 27.48C168.472 28.68 167.859 30 167.379 31.44C167.245 31.84 166.845 32.0533 166.179 32.08C165.272 32.1333 164.752 32.2 164.619 32.28ZM194.585 35.68C191.545 35.68 189.145 35.1467 187.385 34.08C185.652 32.9867 184.785 31.56 184.785 29.8C184.785 27.8533 185.745 26.0267 187.665 24.32C189.719 22.5067 192.412 21.28 195.745 20.64C196.199 20.56 196.679 20.4933 197.185 20.44C197.692 20.3867 198.199 20.36 198.705 20.36C201.799 20.36 203.892 21.1067 204.985 22.6C205.092 22.7333 205.145 22.9067 205.145 23.12C205.145 23.5467 205.025 23.6133 204.785 23.32C203.825 21.96 201.732 21.28 198.505 21.28C197.492 21.28 196.585 21.36 195.785 21.52C192.985 22.0533 190.759 23.1067 189.105 24.68C187.532 26.1733 186.745 27.76 186.745 29.44C186.745 31.04 187.465 32.32 188.905 33.28C190.319 34.24 192.239 34.72 194.665 34.72C196.959 34.72 199.079 34.44 201.025 33.88C202.972 33.3467 204.759 32.5867 206.385 31.6C209.052 29.9733 210.385 27.8133 210.385 25.12C210.385 22.0267 208.452 19.24 204.585 16.76C203.599 16.12 202.772 15.56 202.105 15.08C201.439 14.5733 200.919 14.1467 200.545 13.8C199.132 12.44 198.425 11 198.425 9.48C198.425 9.08 198.465 8.70667 198.545 8.36C198.919 6.62667 200.079 5.22667 202.025 4.16C203.812 3.17333 205.745 2.68 207.825 2.68C210.199 2.68 211.999 3.09333 213.225 3.92C214.105 4.50667 214.545 5.4 214.545 6.6C214.545 7.37333 214.319 8.09333 213.865 8.76C213.439 9.4 212.879 9.72 212.185 9.72C211.679 9.72 211.225 9.52 210.825 9.12C210.479 8.77333 210.305 8.36 210.305 7.88C210.305 6.6 210.932 5.96 212.185 5.96C212.932 5.96 213.385 6.2 213.545 6.68C213.679 5.96 213.399 5.33333 212.705 4.8C211.612 3.94667 210.185 3.52 208.425 3.52C206.585 3.52 204.905 4.04 203.385 5.08C201.759 6.17333 200.945 7.44 200.945 8.88C200.945 10.7467 202.652 12.6667 206.065 14.64C210.839 17.36 213.225 20.5067 213.225 24.08C213.225 25.6533 212.719 27.1733 211.705 28.64C210.692 30.1333 209.345 31.36 207.665 32.32C203.825 34.56 199.465 35.68 194.585 35.68ZM219.23 32.16C216.563 32.16 215.23 30.8267 215.23 28.16C215.23 25.92 216.003 23.7067 217.55 21.52C219.23 19.12 221.163 17.92 223.35 17.92C225.377 17.92 226.283 18.84 226.07 20.68C226.043 21.16 225.79 21.68 225.31 22.24C224.857 22.7733 224.417 23.04 223.99 23.04C223.75 23.04 223.55 22.96 223.39 22.8C224.057 22.1333 224.47 21.4533 224.63 20.76C224.683 20.5733 224.723 20.4133 224.75 20.28C224.777 20.12 224.79 19.9733 224.79 19.84C224.79 19.1467 224.47 18.8 223.83 18.8C222.897 18.8 221.59 19.9333 219.91 22.2C218.31 24.36 217.51 26.4667 217.51 28.52C217.51 30.4667 218.257 31.44 219.75 31.44C221.19 31.44 222.59 30.5333 223.95 28.72L224.19 28.4L224.75 28.72L224.47 29.12C223.057 31.1467 221.31 32.16 219.23 32.16ZM224.931 32.28C225.838 30.2 227.131 27.2267 228.811 23.36C230.518 19.4667 232.625 14.6933 235.131 9.04C235.158 8.96 235.171 8.88 235.171 8.8C235.198 8.72 235.211 8.64 235.211 8.56C235.211 8.18667 235.051 7.78667 234.731 7.36H236.891C237.638 7.36 238.011 7.53333 238.011 7.88C238.011 8.06667 237.931 8.34667 237.771 8.72C236.945 10.5067 235.878 12.8533 234.571 15.76C233.265 18.6667 231.705 22.1333 229.891 26.16C230.291 25.6 230.771 25.0267 231.331 24.44C231.891 23.8533 232.518 23.2533 233.211 22.64C233.691 22.1867 234.225 21.76 234.811 21.36C235.398 20.9333 236.038 20.5333 236.731 20.16C238.305 19.28 239.465 18.84 240.211 18.84C240.398 18.84 240.531 18.8533 240.611 18.88C240.185 19.6267 239.785 20.3467 239.411 21.04C239.065 21.7333 238.731 22.3867 238.411 23C236.865 25.9867 235.998 28.0533 235.811 29.2C235.731 29.6 235.691 29.9467 235.691 30.24C235.691 30.96 235.958 31.32 236.491 31.32C237.211 31.32 238.185 30.4267 239.411 28.64L240.011 29C238.625 31.1067 237.251 32.16 235.891 32.16C234.211 32.16 233.371 31.2933 233.371 29.56C233.371 28.1467 234.238 26.0533 235.971 23.28C236.238 22.8533 236.371 22.4933 236.371 22.2C236.371 21.88 236.225 21.72 235.931 21.72C235.638 21.72 235.251 21.88 234.771 22.2C234.318 22.4933 233.771 22.9333 233.131 23.52C232.118 24.4533 231.158 25.5867 230.251 26.92C229.371 28.2267 228.545 29.7333 227.771 31.44C227.585 31.84 227.158 32.0533 226.491 32.08C225.611 32.1333 225.091 32.2 224.931 32.28ZM243.725 31.96C242.018 31.96 241.165 31.16 241.165 29.56C241.165 29 241.325 28.2533 241.645 27.32C241.965 26.36 242.418 25.2267 243.005 23.92L245.205 19.08C245.445 18.52 245.965 18.24 246.765 18.24H249.165C248.231 18.9333 247.378 20.0533 246.605 21.6C246.311 22.1867 245.951 22.92 245.525 23.8C245.125 24.6533 244.658 25.64 244.125 26.76C243.618 27.8 243.365 28.7333 243.365 29.56C243.365 30.4133 243.658 30.84 244.245 30.84C244.885 30.84 245.645 30.3333 246.525 29.32C247.991 27.6133 249.965 24.2 252.445 19.08C252.738 18.52 253.245 18.24 253.965 18.24H256.125C255.245 18.96 254.325 20.28 253.365 22.2C252.031 24.8933 251.231 26.9467 250.965 28.36C250.938 28.52 250.911 28.6667 250.885 28.8C250.885 28.9333 250.885 29.0667 250.885 29.2C250.885 30.24 251.245 30.76 251.965 30.76C252.738 30.76 253.645 30 254.685 28.48L255.285 28.76C253.845 30.8933 252.418 31.96 251.005 31.96C249.511 31.96 248.765 31.0133 248.765 29.12C248.765 28.4 248.898 27.64 249.165 26.84C247.191 30.2533 245.378 31.96 243.725 31.96ZM255.166 32.28C256.072 30.2 257.366 27.2267 259.046 23.36C260.752 19.4667 262.859 14.6933 265.366 9.04C265.392 8.96 265.406 8.88 265.406 8.8C265.432 8.72 265.446 8.64 265.446 8.56C265.446 8.18667 265.286 7.78667 264.966 7.36H267.126C267.872 7.36 268.246 7.53333 268.246 7.88C268.246 8.06667 268.166 8.34667 268.006 8.72C267.179 10.5067 266.112 12.8533 264.806 15.76C263.499 18.6667 261.939 22.1333 260.126 26.16C260.526 25.6 261.006 25.0267 261.566 24.44C262.126 23.8533 262.752 23.2533 263.446 22.64C263.926 22.1867 264.459 21.76 265.046 21.36C265.632 20.9333 266.272 20.5333 266.966 20.16C268.539 19.28 269.699 18.84 270.446 18.84C270.632 18.84 270.766 18.8533 270.846 18.88C270.419 19.6267 270.019 20.3467 269.646 21.04C269.299 21.7333 268.966 22.3867 268.646 23C267.099 25.9867 266.232 28.0533 266.046 29.2C265.966 29.6 265.926 29.9467 265.926 30.24C265.926 30.96 266.192 31.32 266.726 31.32C267.446 31.32 268.419 30.4267 269.646 28.64L270.246 29C268.859 31.1067 267.486 32.16 266.126 32.16C264.446 32.16 263.606 31.2933 263.606 29.56C263.606 28.1467 264.472 26.0533 266.206 23.28C266.472 22.8533 266.606 22.4933 266.606 22.2C266.606 21.88 266.459 21.72 266.166 21.72C265.872 21.72 265.486 21.88 265.006 22.2C264.552 22.4933 264.006 22.9333 263.366 23.52C262.352 24.4533 261.392 25.5867 260.486 26.92C259.606 28.2267 258.779 29.7333 258.006 31.44C257.819 31.84 257.392 32.0533 256.726 32.08C255.846 32.1333 255.326 32.2 255.166 32.28ZM277.679 25.88C277.332 25.88 277.199 25.6933 277.279 25.32C277.492 24.4667 277.866 23.52 278.399 22.48C278.932 21.44 279.652 20.3333 280.559 19.16C281.332 18.1467 282.119 17.16 282.919 16.2C283.719 15.2133 284.519 14.2267 285.319 13.24C286.252 12.0667 286.719 11.0133 286.719 10.08C286.719 8.58667 285.812 7.84 283.999 7.84C283.146 7.84 282.239 8.06667 281.279 8.52C280.639 8.84 280.092 9.26667 279.639 9.8C279.159 10.3333 278.959 10.8267 279.039 11.28C279.146 10.8533 279.479 10.4533 280.039 10.08C280.626 9.70667 281.146 9.52 281.599 9.52C282.506 9.52 282.959 10.0133 282.959 11C282.959 11.6933 282.666 12.2533 282.079 12.68C281.492 13.16 280.906 13.4 280.319 13.4C279.732 13.4 279.252 13.2133 278.879 12.84C278.506 12.4133 278.319 11.9067 278.319 11.32C278.319 10.8133 278.412 10.36 278.599 9.96C278.972 9.08 279.946 8.2 281.519 7.32C282.986 6.49333 284.426 6.08 285.839 6.08C286.959 6.08 287.866 6.34667 288.559 6.88C289.252 7.41333 289.599 8.14667 289.599 9.08C289.599 10.6267 288.732 12.3467 286.999 14.24C286.199 15.12 285.372 15.9867 284.519 16.84C283.666 17.6667 282.826 18.5067 281.999 19.36C281.092 20.32 280.306 21.3333 279.639 22.4C278.999 23.44 278.466 24.5067 278.039 25.6C277.959 25.7867 277.839 25.88 277.679 25.88ZM276.199 32.56C275.772 32.56 275.412 32.4 275.119 32.08C274.906 31.8133 274.799 31.5333 274.799 31.24C274.799 30.6533 275.026 30.16 275.479 29.76C275.879 29.44 276.306 29.28 276.759 29.28C277.212 29.28 277.572 29.44 277.839 29.76C278.052 30.0267 278.159 30.3067 278.159 30.6C278.159 31.16 277.919 31.6533 277.439 32.08C277.092 32.4 276.679 32.56 276.199 32.56Z" fill="#DB545A"/>
</svg>
